<svg width="922" height="501" viewBox="0 0 922 501" fill="none" xmlns="http://www.w3.org/2000/svg">
<g clip-path="url(#clip0_849_2)">
<mask id="mask0_849_2" style="mask-type:luminance" maskUnits="userSpaceOnUse" x="0" y="0" width="922" height="501">
<path d="M922 0H0V501H922V0Z" fill="white"/>
</mask>
<g mask="url(#mask0_849_2)">
<path d="M809.036 471.421C806.909 471.421 804.791 471.372 802.683 471.273C793.811 470.854 627.211 470.644 460.609 470.644C294.01 470.644 127.41 470.854 118.538 471.273C116.428 471.372 114.313 471.421 112.186 471.421C82.0043 471.421 50.3319 461.392 27.9101 439.251C8.37365 419.96 -1.26959 394.243 0.134061 369.16C1.21218 349.597 9.01271 330.415 24.0862 314.991C24.4997 314.559 24.9387 314.125 25.3773 313.719C40.7262 298.377 58.7461 287.257 77.3059 277.071C91.4127 269.305 105.822 262.08 119.591 253.923C123.052 251.88 126.462 249.797 129.823 247.605C136.319 243.397 143.067 238.703 147.304 232.115C148.37 230.492 149.274 228.719 149.975 226.825C155.494 211.849 146.163 195.329 135.466 184.088C128.481 176.728 120.468 169.869 114.438 161.739C111.277 157.437 108.643 152.769 107 147.493C104.442 139.255 104.693 130.38 106.587 121.856C107.527 117.663 108.868 113.563 110.462 109.653C114.538 99.7225 120.143 90.8745 126.902 83.0692C141.11 66.7132 160.32 55.0519 180.787 47.9759C187.759 45.5412 194.906 43.6612 202.028 42.2946C209.831 40.8012 217.903 39.8812 225.915 39.8812C241.29 39.8812 256.438 43.2732 268.994 52.5226L269.094 52.5892L271.514 54.5105C291.452 70.8665 301.899 99.6145 324.407 111.643C330.84 115.073 338.002 116.74 345.176 116.74C346.883 116.74 348.591 116.645 350.289 116.459L350.302 116.444C359.594 115.439 368.635 111.648 375.892 105.361C381.296 95.9785 387.808 87.1079 394.914 79.1439C396.923 75.8825 399 72.6772 401.315 69.6759C401.515 69.4332 401.716 69.1759 401.917 68.9185C407.999 61.2079 414.695 55.2412 421.819 50.8719C432.272 44.4385 443.604 41.4612 455.121 41.4612C456.947 41.4612 458.779 41.5359 460.611 41.6839C462.443 41.5359 464.274 41.4612 466.099 41.4612C477.616 41.4612 488.948 44.4385 499.403 50.8719C506.525 55.2412 513.222 61.2079 519.303 68.9185C519.504 69.1759 519.704 69.4332 519.906 69.6759C522.222 72.6772 524.296 75.8825 526.305 79.1439C533.412 87.1079 539.923 95.9785 545.329 105.361C552.585 111.648 561.627 115.439 570.917 116.444L570.931 116.459C572.631 116.645 574.338 116.74 576.044 116.74C583.219 116.74 590.38 115.073 596.813 111.643C619.323 99.6145 629.77 70.8665 649.708 54.5105L652.128 52.5892L652.228 52.5226C664.784 43.2719 679.929 39.8812 695.305 39.8812C703.316 39.8812 711.392 40.8012 719.192 42.2946C726.315 43.6612 733.461 45.5412 740.435 47.9759C760.9 55.0519 780.112 66.7132 794.319 83.0692C801.078 90.8745 806.683 99.7225 810.759 109.653C812.351 113.563 813.693 117.663 814.633 121.856C816.527 130.38 816.779 139.255 814.22 147.493C812.577 152.769 809.944 157.437 806.784 161.739C800.752 169.869 792.74 176.728 785.755 184.088C775.059 195.329 765.728 211.849 771.245 226.825C771.948 228.719 772.851 230.492 773.916 232.115C778.155 238.703 784.903 243.397 791.397 247.605C794.757 249.797 798.17 251.88 801.63 253.923C815.4 262.08 829.808 269.305 843.915 277.071C862.475 287.257 880.495 298.377 895.844 313.719C896.283 314.125 896.721 314.559 897.135 314.991C912.208 330.415 920.008 349.597 921.087 369.16C922.491 394.243 912.847 419.96 893.309 439.251C870.888 461.393 839.219 471.423 809.036 471.421Z" fill="#F5F5F5"/>
<path d="M891.095 481.527C891.095 491.883 698.36 500.28 460.611 500.28C222.86 500.28 30.1262 491.883 30.1262 481.527C30.1262 471.168 222.86 462.771 460.611 462.771C698.36 462.771 891.095 471.168 891.095 481.527Z" fill="#E6E6E6"/>
<path d="M756.932 137.375C755.564 139.265 754.264 141.165 752.979 142.853C754.388 141.093 755.701 139.264 756.932 137.375Z" fill="#734E4F"/>
<path d="M827.3 112.256C824.205 101.719 817.756 88.5439 820.285 77.3545L791.871 66.8345C787.189 66.9412 782.709 77.8999 780.86 81.7225C772.34 99.3345 767.819 120.651 756.932 137.375C760.152 132.92 763.76 128.552 768.523 127.341C768.504 130.531 766.329 133.807 765.603 137.007C764.705 140.951 764.255 145.055 764.359 149.08C764.599 158.315 767.017 167.052 769.615 175.845C773.009 187.34 777.944 197.692 783.524 208.212C788.917 218.379 799.121 230.103 800.172 241.916C806.728 230.903 812.081 218.955 818.323 207.688C824.8 195.993 829.311 183.755 835.001 171.739C835.973 178.144 836.359 184.908 836.163 191.397C836.157 191.571 836.392 191.591 836.419 191.42C837.924 182.291 840.781 172.999 840.888 163.728C841.097 145.619 832.256 129.131 827.3 112.256Z" fill="#263238"/>
<path d="M768.543 110.391L715.363 164.485C715.363 164.485 729.019 172.624 729.537 172.105C730.056 171.585 773.135 133.774 773.135 133.774L768.543 110.391Z" fill="#F5B0B5"/>
<path d="M745.253 341.961C745.356 333.732 755.536 227.238 755.536 227.238L788.139 225.427L771.984 348.281C789.409 362.479 811.995 414.927 825.169 456.629L817.517 462.827L752.849 367.261C747.796 359.796 745.141 350.975 745.253 341.961Z" fill="#23333C"/>
<path d="M773.388 369.581C774.376 364.248 775.91 319.459 777.372 290.129L780.928 216.173L810.939 216.699C810.939 216.699 823.08 248.717 817.4 264C813.86 273.523 810.778 290.477 810.778 290.477L796.659 376.204C803.703 400.279 788.716 469.706 788.716 469.706L778.062 470.269C782.196 435.233 771.924 377.481 773.388 369.581Z" fill="#37474F"/>
<path d="M756.9 487.127C783.411 484.484 795.191 482.813 788.775 469.837L788.716 469.706C788.716 469.706 782.371 469.739 778.803 469.896L756.304 481.245C750.22 483.859 753.193 487.478 756.9 487.127Z" fill="#263238"/>
<path d="M804.043 477.733L813.616 473.861L817.518 462.827C817.518 462.827 823.338 458.201 825.17 456.629C825.17 456.629 830.835 460.425 831.423 462.771C832.464 466.925 829.185 472.356 822.935 479.309C822.151 480.181 821.108 480.788 819.964 481.047C816.586 481.813 804.872 483.069 804.872 483.069C801.95 482.847 801.324 478.832 804.043 477.733Z" fill="#263238"/>
<path d="M816.117 231.756L754.263 235.956L759.992 196.759C760.781 191.361 760.877 185.886 760.281 180.465L758.515 164.428L754.381 159.002C749.473 153.29 748.69 145.118 752.408 138.572L768.543 110.391C768.543 110.391 770.951 109.928 774.811 109.561C775.394 109.499 776.059 109.459 776.694 109.411V109.4L777.168 109.373C777.453 109.353 777.697 109.324 777.992 109.308C778.725 109.261 779.499 109.223 780.292 109.189L781.797 109.093L781.727 107.805C781.676 106.885 782.231 106.071 783.019 105.749C783.312 105.617 783.61 105.556 783.932 105.561L796.988 105.941L797.08 105.96C798.146 106.016 799 106.868 799.06 107.949L799.203 110.525L799.28 110.547C800.079 110.713 800.88 110.883 801.673 111.085C802.52 111.292 803.372 111.549 804.223 111.806L804.279 111.823C810.083 113.689 814.235 118.911 814.66 124.993C815.81 141.405 808.783 162.745 805.576 174.638C804.009 180.454 803.963 186.544 805.437 192.384C808.093 202.907 812.539 220.087 816.117 231.756Z" fill="#A855F7"/>
<path d="M796.471 94.9892L782.464 95.7678L783.019 105.749C783.312 105.617 783.609 105.556 783.932 105.561L796.988 105.941L797.08 105.96L796.471 94.9892Z" fill="#F5B0B5"/>
<path d="M809.155 94.3078C811.656 91.4372 813.078 86.6438 810.48 84.9492C809.706 84.4425 808.62 84.2478 807.424 84.2985C810.374 73.9012 809.032 59.8345 802.539 55.5998C794.043 50.0558 783.976 50.3132 770.259 72.6558C764.832 81.4959 765.867 94.4318 773.792 100.651C779.746 105.325 791.202 102.364 798.806 96.8438C802.154 97.5718 805.983 97.9492 809.155 94.3078Z" fill="#F9CACC"/>
<path d="M775.86 83.3199L775.724 83.2946C774.592 82.9292 773.095 82.3159 773.135 81.1946C773.192 79.6372 776.471 78.6745 777.876 78.3319C778.176 78.2652 778.472 78.4425 778.545 78.7399C778.617 79.0372 778.436 79.3359 778.139 79.4079C776.152 79.8919 774.258 80.7785 774.242 81.2345C774.242 81.2399 774.306 81.6732 776.062 82.2399C776.351 82.3345 776.512 82.6452 776.419 82.9372C776.34 83.1812 776.107 83.3346 775.86 83.3199Z" fill="#491F06"/>
<path d="M776.067 89.1292C775.573 88.9465 775.283 88.7958 775.271 88.7892C775.015 88.6532 774.915 88.3358 775.049 88.0785C775.187 87.8225 775.483 87.7079 775.763 87.8585C775.996 87.9839 781.628 90.8558 785.227 85.6758C785.392 85.4372 785.715 85.3732 785.96 85.5438C786.197 85.7092 786.257 86.0385 786.091 86.2772C782.807 91.0065 777.957 89.8305 776.067 89.1292Z" fill="#491F06"/>
<path d="M789.775 80.3439C789.335 81.3746 788.219 81.8866 787.283 81.4866C786.345 81.0866 785.943 79.9266 786.383 78.8959C786.823 77.8652 787.939 77.3532 788.876 77.7532C789.812 78.1532 790.215 79.3132 789.775 80.3439Z" fill="#491F06"/>
<path d="M778.351 75.5385C777.912 76.5692 776.795 77.0799 775.859 76.6812C774.923 76.2799 774.519 75.1212 774.96 74.0892C775.401 73.0585 776.517 72.5465 777.453 72.9465C778.389 73.3479 778.793 74.5079 778.351 75.5385Z" fill="#491F06"/>
<path d="M796.528 78.3705C796.306 78.2878 796.138 78.0798 796.12 77.8265C795.819 73.8398 792.252 73.8732 792.099 73.8745C791.754 73.8825 791.467 73.6078 791.456 73.2598C791.45 72.9132 791.724 72.6252 792.073 72.6185C793.771 72.5785 797.065 73.6025 797.376 77.7332C797.403 78.0798 797.142 78.3812 796.795 78.4065L796.528 78.3705Z" fill="#491F06"/>
<path d="M782.461 69.1692C782.275 69.2385 782.055 69.1985 781.904 69.0479C779.523 66.6799 777.276 68.6599 777.181 68.7452C776.964 68.9399 776.632 68.9225 776.433 68.7079C776.24 68.4919 776.255 68.1572 776.472 67.9612C777.528 67.0039 780.184 65.8452 782.651 68.2985C782.856 68.5038 782.857 68.8399 782.651 69.0465L782.461 69.1692Z" fill="#491F06"/>
<path d="M812.459 54.4132C806.076 47.3172 796.316 44.2985 786.929 46.2572C782.999 47.0772 779.209 49.0998 776.873 52.3652C770.739 60.9492 774.605 66.1318 774.605 66.1318C774.316 66.4185 778.708 62.0398 781.461 59.3185C781.237 61.9332 781.837 67.6065 783.184 69.8585C784.171 66.8492 785.565 63.9732 787.316 61.3318C788.981 65.5532 789.585 70.1865 789.063 74.6918C790.643 71.2065 792.223 67.7185 793.803 64.2318C797.543 68.6372 801.416 73.3145 802.508 78.9878C803.24 82.8012 802.631 86.7772 801.361 90.4465C800.092 94.1158 796.853 102.191 794.924 105.56C805.167 102.401 809.876 94.9505 814.705 89.5252C818.756 84.9732 820.192 78.5465 819.795 72.4678C819.407 66.5638 817.391 60.7345 813.8 56.0318C813.372 55.4705 812.924 54.9305 812.459 54.4132Z" fill="#263238"/>
<path d="M769.735 88.1398C769.26 86.2078 761.039 90.1958 754.779 91.3012C751.606 91.8625 748.535 92.9798 745.902 94.8372C742.176 97.4625 740.002 100.801 738.631 108.523L738.63 108.52L715.363 164.485C714.664 166.167 714.572 168.037 715.099 169.78C716.568 174.625 722.171 176.834 726.551 174.298C730.719 171.885 733.688 167.843 734.746 163.145L742.151 130.237L746.928 112.091C747.634 112.116 752.428 113.289 753.428 106.72C753.428 106.72 758.476 108.813 759.668 105.179C759.668 105.179 761.53 104.359 761.447 102.495C761.447 102.495 762.959 100.688 761.575 98.8945L756.739 94.8772C756.739 94.8772 770.196 92.4598 769.735 88.1398Z" fill="#F5B0B5"/>
<path d="M688.952 168.265C685.623 165.092 684.103 161.072 684.388 156.198C684.665 151.482 686.684 147.628 690.449 144.64C694.211 141.653 698.757 140.316 704.087 140.628C709.413 140.94 713.697 142.794 716.935 146.19C720.173 149.588 721.653 153.648 721.377 158.365C721.092 163.238 719.185 167.057 715.667 169.829C712.141 172.603 707.641 173.828 702.161 173.506C696.683 173.186 692.279 171.44 688.952 168.265ZM689.708 112.293C690.296 102.247 692.44 94.3171 696.141 88.4985C699.84 82.6825 704.909 76.9838 711.348 71.4038C717.123 66.7012 721.367 62.6758 724.083 59.3185C726.8 55.9665 728.313 51.6265 728.627 46.2958C728.893 41.7305 727.476 37.8665 724.38 34.7065C721.279 31.5465 717.825 29.8558 714.021 29.6332C708.087 29.2852 703.253 30.9145 699.532 34.5118C698.295 35.7078 697.099 37.0505 695.947 38.5372C691.483 44.2958 683.544 46.0398 677.141 42.5625C669.192 38.2465 666.953 27.8798 672.393 20.6532C672.636 20.3292 672.884 20.0052 673.136 19.6785C677.432 14.1278 683.441 9.32382 691.164 5.26916C698.883 1.21849 708.073 -0.500186 718.729 0.125148C732.577 0.934481 743.6 5.09582 751.793 12.5998C759.98 20.1065 763.659 31.0145 762.821 45.3198C762.241 55.2172 760.224 62.8892 756.777 68.3358C753.325 73.7865 749.671 78.1945 745.807 81.5545C741.945 84.9185 739.447 87.1025 738.321 88.1038C733.163 92.6918 729.144 97.4185 726.264 102.291C723.38 107.163 721.709 113.557 721.247 121.47L720.965 126.265L689 124.395L689.708 112.293Z" fill="#4F78B7"/>
<path d="M803.664 112.787C798.491 111.827 793.304 114.44 790.984 119.16L770.331 161.187L731.584 121L731.478 120.893L728.917 118.24C728.917 118.24 729.678 105.64 725.491 103.667C725.491 103.667 725.072 104.905 723.889 105.92L723.833 105.96C719.353 109.141 713.98 97.6665 713.98 97.6665C711.091 91.7772 709.647 92.8892 709.647 92.8892C708.159 93.6732 712.011 101.079 714.414 105.383C714.14 105.229 713.861 105.065 713.576 104.889L706.758 95.5559C705.314 92.6665 704.201 94.9892 704.201 94.9892C703.313 98.4225 712.604 112 712.604 112L707.66 105.708C702.295 97.0372 701.512 99.7692 701.512 99.7692C700.735 102.368 710.6 115.695 710.6 115.695L703.424 106.777C700.658 105.56 702.699 110.949 702.699 110.949C705.143 119.895 722.603 130.028 722.603 130.028L722.604 130.025C722.887 130.252 723.161 130.476 723.451 130.707L742.011 157.053L742.251 157.413L760.278 183C766.224 191.44 778.971 190.693 783.891 181.613L811.864 129.947C815.677 122.92 811.517 114.24 803.664 112.787Z" fill="#F9CACC"/>
<path d="M663.581 298.7C662.152 296.783 660.327 295.291 658.307 294.443C656.899 293.853 655.323 293.504 654.293 292.203C650.943 287.969 659.2 284.917 661.251 283.865C663.421 282.752 665.621 280.591 665.552 277.748C665.499 275.6 664.16 273.837 662.788 272.471C659.407 269.105 655.295 266.819 650.976 265.904C650.912 263.975 646.141 251.031 646.141 251.031L609.873 251.877L607.589 260.671C607.589 260.671 594.049 264.193 592.831 267.191C592.125 268.924 592.388 271.057 593.155 272.752C593.92 274.449 595.13 275.787 596.363 277.02C594.963 279.484 592.371 280.393 590.172 281.767C587.972 283.14 585.82 285.897 586.553 288.751C587.484 292.375 592.04 292.64 593.587 295.944C591.957 297.227 590.326 298.511 588.694 299.793C588.186 300.193 587.66 300.615 587.352 301.245C586.48 303.031 587.815 305.251 589.277 306.341C591.456 307.964 594.037 308.577 596.572 309.031C611.548 311.721 626.791 309.887 641.931 309.543C649.073 309.381 656.32 309.539 663.236 307.368C664.385 307.008 665.692 306.384 666.008 305.001C666.203 304.149 665.949 303.247 665.639 302.444C665.115 301.081 664.415 299.817 663.581 298.7Z" fill="#263238"/>
<path d="M652.983 313.869C648.753 311.517 643.279 314.276 642.776 319.067C642.125 325.269 645.46 337.116 662.733 359.408L673.816 373.955L688.804 365.373C688.804 365.373 668.275 322.379 652.983 313.869Z" fill="#F9CACC"/>
<path d="M598.392 315.342C602.622 312.989 608.096 315.748 608.6 320.538C609.251 326.742 605.915 338.588 588.643 360.88L574.41 379.889L562.572 366.846C562.572 366.846 583.102 323.852 598.392 315.342Z" fill="#F9CACC"/>
<path d="M641.48 313.359L642.655 315.816C648.862 328.809 639.938 344.031 625.487 344.881C625.219 344.897 624.952 344.913 624.684 344.927C610.286 345.695 599.703 331.664 604.298 318.083L605.56 314.355L612.903 314.022C616.519 313.212 618.223 311.843 619.022 308.271V308.249C619.506 304.845 619.19 302.145 618.075 300.112L634.016 296.355L634.81 304.977C634.954 306.535 635.024 308.097 635.024 309.661C635.046 311.344 636.307 312.735 637.99 312.9L641.48 313.359Z" fill="#F5B0B5"/>
<path d="M656.075 281.633C654.896 286.667 651.044 288.249 647.46 289.26C646.214 291.788 644.588 294.295 642.695 296.559C642.093 297.261 641.471 297.943 640.848 298.581C638.041 301.833 634.435 304.252 630.316 305.241C630.183 305.285 630.072 305.307 629.937 305.329C629.692 305.372 629.469 305.461 629.225 305.505C629.069 305.527 628.892 305.527 628.736 305.549C628.601 305.572 628.447 305.572 628.312 305.592C628 305.615 627.688 305.637 627.355 305.637C627.043 305.637 626.709 305.615 626.397 305.592C626.264 305.572 626.129 305.572 625.975 305.549C625.819 305.527 625.64 305.527 625.484 305.505C625.24 305.461 625.017 305.372 624.772 305.329L624.415 305.241C620.297 304.252 616.668 301.833 613.886 298.581C611.214 295.856 608.876 292.58 607.25 289.26C603.666 288.249 599.813 286.667 598.656 281.633C597.721 277.655 598.811 272.401 602.175 272.115C603.176 272.027 604.311 272.401 605.424 273.037C606.895 266.4 610.457 259.321 614.82 254.464C616.645 252.045 618.76 250.464 621.053 249.519C622.279 248.924 623.548 248.528 624.795 248.419C625.663 248.331 626.51 248.308 627.355 248.331C628.202 248.308 629.047 248.331 629.915 248.419C631.161 248.528 632.431 248.924 633.656 249.519C635.971 250.464 638.064 252.045 639.911 254.464C641.004 255.673 642.027 257.015 642.984 258.465C645.901 262.816 648.172 268.048 649.286 273.037C650.399 272.401 651.533 272.027 652.536 272.115C655.899 272.401 656.989 277.655 656.075 281.633Z" fill="#F9CACC"/>
<path d="M695.681 412.025C695.681 412.025 649.099 404.036 648.073 402.324C619.431 406.593 606.48 404.668 600.58 402.436L554.813 406.428L577.696 442.948H673.865L695.681 412.025Z" fill="#37474F"/>
<path d="M674.903 466.435L672.856 476.539L672.76 476.469C659.108 473.36 623.372 463.58 609.332 460.637C574.736 453.323 551.968 446.461 538.838 429.68C536.532 426.709 535.632 423.08 536.057 419.596C536.483 416.116 538.237 412.743 541.151 410.361C547.541 405.144 556.412 404.247 563.706 408.068L614.814 438.884L674.903 466.435Z" fill="#F5B0B5"/>
<path d="M708.906 475.184C698.355 467.788 691.5 466.221 677.156 465.954L677.115 465.951C676.168 465.94 675.18 465.925 674.17 465.929L674.138 466.029L674.062 465.98L672.015 476.085C673.287 476.987 674.548 477.787 675.772 478.54C687.044 485.308 696.562 486.235 703.838 487.084C711.668 487.968 715.328 479.68 708.906 475.184Z" fill="#263238"/>
<path d="M704.496 436.3C689.989 451.921 666.723 456.856 631.628 461.249C617.389 463.006 580.951 469.764 567.084 471.718L566.981 471.781L565.615 461.483L565.717 461.501V461.583L628.011 439.116L681.548 412.684C689.139 409.485 697.904 411.124 703.828 416.857C706.551 419.492 707.992 422.98 708.121 426.485C708.249 429.99 707.045 433.533 704.496 436.3Z" fill="#F9CACC"/>
<path d="M565.615 461.483C563.765 461.344 562.019 461.224 560.417 461.123C547.624 460.454 540.827 461.685 530.32 467.816C523.517 471.74 530.183 480.304 538.059 480.08C545.055 479.885 550.321 479.727 561.336 474.689C563.151 473.869 565.047 472.887 566.981 471.781L565.615 461.483Z" fill="#263238"/>
<path d="M629.787 293.748C632.283 292.973 635.004 291.161 636.155 287.048C636.248 286.711 636.05 286.36 635.708 286.265C635.372 286.171 635.017 286.367 634.92 286.708C632.861 294.052 625.255 293.011 624.93 292.964C624.579 292.909 624.256 293.151 624.2 293.499C624.148 293.845 624.389 294.169 624.74 294.221C624.784 294.229 627.161 294.561 629.787 293.748Z" fill="#491F06"/>
<path d="M636.699 280.468C636.618 281.662 635.582 282.566 634.387 282.485C633.191 282.406 632.288 281.37 632.37 280.176C632.451 278.981 633.487 278.078 634.683 278.158C635.878 278.24 636.782 279.273 636.699 280.468Z" fill="#491F06"/>
<path d="M620.461 280.468C620.379 281.662 619.344 282.566 618.148 282.485C616.952 282.406 616.049 281.37 616.129 280.176C616.212 278.981 617.247 278.078 618.444 278.158C619.639 278.24 620.541 279.273 620.461 280.468Z" fill="#491F06"/>
<path d="M639.08 276.255L639.145 276.231C639.469 276.089 639.619 275.715 639.477 275.393C637.789 271.548 634.292 271.685 632.664 272.277C632.335 272.4 632.168 272.764 632.291 273.093C632.411 273.424 632.743 273.597 633.112 273.471C633.225 273.427 636.683 272.213 638.3 275.901C638.433 276.201 638.771 276.351 639.08 276.255Z" fill="#491F06"/>
<path d="M621.387 274.351L621.42 274.291C621.582 273.976 621.458 273.593 621.142 273.433C617.382 271.527 614.767 273.84 613.887 275.323C613.711 275.625 613.815 276.013 614.12 276.189C614.424 276.368 614.794 276.293 614.996 275.963C615.055 275.859 616.952 272.74 620.559 274.568C620.852 274.717 621.208 274.62 621.387 274.351Z" fill="#491F06"/>
<path d="M625.295 289.36C625.635 289.36 625.912 289.085 625.915 288.747C625.915 288.407 625.64 288.129 625.298 288.125C625.287 288.125 624.103 288.094 623.799 287.46C623.659 287.168 623.522 286.258 625.244 284.124C625.459 283.86 625.415 283.47 625.148 283.257C624.882 283.045 624.491 283.088 624.275 283.353C622.662 285.352 622.136 286.871 622.679 287.995C623.326 289.339 625.211 289.36 625.292 289.36H625.295Z" fill="#491F06"/>
<path d="M663.059 297.49C663.608 299.328 664.567 300.789 665.841 301.976C667.128 303.185 668.74 304.109 670.563 304.822L670.656 324.994L669.511 361.248C669.487 361.801 669.497 362.364 669.528 362.916C669.795 367.492 671.747 371.825 675.043 375.065C676.839 376.83 679.173 377.613 681.444 377.481C684.091 377.329 686.655 375.942 688.181 373.442C688.584 372.777 688.897 372.062 689.179 371.184C690.181 368.049 690.375 364.708 689.909 361.461L680.168 303.338C680.417 300.016 680.407 297.35 680.143 295.076L680.137 294.967C680.117 294.812 680.097 294.669 680.068 294.517C680.013 294.155 679.96 293.804 679.896 293.465L679.879 293.365C679.381 291.072 678.553 288.807 677.363 286.597C677.277 286.447 677.203 286.297 677.116 286.147C677.043 286.019 676.968 285.889 676.884 285.761C676.76 285.548 676.627 285.322 676.492 285.109L667.305 268.581C667.305 268.581 661.099 265.689 670.18 284.422C670.344 284.757 670.507 285.101 670.683 285.445C670.683 285.445 663.46 286.439 662.88 289.237C662.268 292.603 662.368 295.306 663.059 297.49Z" fill="#F9CACC"/>
<path d="M574.409 379.889C577.888 376.588 578.409 371.234 575.635 367.324L536.068 311.545L528.951 324.104L559.397 377.662C562.491 383.105 569.869 384.198 574.409 379.889Z" fill="#F9CACC"/>
<path d="M523.112 383.133C519.783 379.96 518.263 375.938 518.548 371.066C518.824 366.35 520.844 362.494 524.609 359.508C528.371 356.521 532.916 355.182 538.247 355.494C543.573 355.806 547.856 357.661 551.095 361.058C554.333 364.456 555.813 368.516 555.537 373.232C555.251 378.105 553.347 381.924 549.825 384.696C546.301 387.469 541.801 388.694 536.321 388.373C530.843 388.053 526.437 386.305 523.112 383.133ZM523.868 327.16C524.457 317.113 526.599 309.184 530.301 303.365C534 297.549 539.071 291.851 545.508 286.271C551.283 281.568 555.525 277.543 558.243 274.187C560.961 270.833 562.473 266.493 562.787 261.164C563.053 256.597 561.636 252.734 558.539 249.574C555.437 246.414 551.985 244.722 548.183 244.5C542.245 244.152 537.413 245.781 533.691 249.378C532.455 250.576 531.259 251.916 530.107 253.404C525.643 259.162 517.704 260.907 511.301 257.429C503.352 253.113 501.113 242.748 506.552 235.521C506.795 235.196 507.044 234.872 507.296 234.545C511.591 228.995 517.601 224.192 525.324 220.137C533.043 216.084 542.232 214.368 552.888 214.992C566.739 215.803 577.76 219.964 585.952 227.466C594.139 234.972 597.819 245.881 596.98 260.188C596.401 270.083 594.384 277.755 590.936 283.203C587.484 288.653 583.829 293.061 579.967 296.421C576.104 299.787 573.607 301.971 572.481 302.971C567.321 307.559 563.304 312.285 560.424 317.157C557.54 322.028 555.869 328.424 555.407 336.337L555.127 341.133L523.16 339.26L523.868 327.16Z" fill="#E86C6C"/>
<path d="M656.612 339.159C652.514 330.884 653.878 317.996 650.744 313.016L639.186 311.712C637.45 311.415 636.179 309.911 636.179 308.147V307.132H617.315V309.449C617.315 310.647 616.65 311.745 615.587 312.299C615.587 312.299 602.314 314.124 599.667 314.956L600.659 324.916C601.155 330.105 600.528 335.347 598.804 340.301C597.683 343.543 597.134 346.889 597.134 350.261C597.134 354.231 597.891 358.225 599.431 361.935L604.288 373.452L605.019 375.191C605.959 377.551 606.534 379.964 606.664 382.401C606.872 385.877 606.22 389.328 604.836 392.519L600.58 402.505C606.48 406.112 619.431 409.224 648.074 402.324C645.907 396.436 644.392 392.181 644.34 391.715C644.262 390.807 644.236 389.899 644.236 388.991C644.236 387.097 644.418 385.281 644.967 383.804L648.804 376.384L653.427 367.381C657.892 358.717 660.816 347.616 656.612 339.159Z" fill="#A855F7"/>
<path d="M646.104 248.613C643.774 244.449 635.464 240.119 631.044 239.721C623.33 239.028 613.242 241.277 607.876 247.169C597.064 259.04 604.311 273.954 604.594 273.946C604.594 273.946 606.518 278.668 609.806 278.413C612.868 278.174 612.64 272.282 612.688 269.986C616.423 276.813 623.867 266.347 624.287 261.761C624.203 265.401 628.063 267.707 630.798 268.896C633.858 270.224 636.59 268.765 639.523 268.916C638.346 271.83 639.778 277.2 641.856 279.352C644.862 282.462 647.866 279.922 648.426 276.306C649.507 269.34 653.634 262.068 646.104 248.613Z" fill="#263238"/>
<path d="M520.068 313.304C518.962 310.093 522.611 308.417 522.9 308.384C522.723 308.263 521.276 307.22 521.788 305.284C522.292 303.371 524.026 303.791 524.25 303.856C524.018 303.687 522.327 302.409 523.843 299.811C525.459 297.028 527.562 298.059 527.562 298.059C527.562 298.059 527.759 295.721 530.689 294.092C533.605 292.469 536.31 295.375 536.31 295.375L533.332 299.027L540.579 300.869C540.579 300.869 543.228 301.601 542.227 303.443C541.738 304.343 539.927 304.163 539.927 304.163L534.004 303.38L540.182 305.743L540.187 305.756C541.056 306.368 542.066 307.348 541.77 308.493C541.307 310.336 539.046 309.857 538.668 309.768C539.016 309.869 540.74 310.471 539.885 312.572C538.987 314.815 535.302 313.389 534.936 313.243C535.15 313.364 536.871 314.38 535.735 316.279C534.526 318.297 525.683 314.581 525.683 314.581L524.903 318.213C524.903 318.213 521.208 316.676 520.068 313.304Z" fill="#F9CACC"/>
<path d="M243.534 153.993L238.6 179.71L237.611 184.842C237.11 187.441 233.787 188.245 232.152 186.165L209.072 156.777L208.926 124.464L243.534 153.993Z" fill="#A855F7"/>
<path d="M265.075 175.534L263.756 188.478C263.318 192.85 258.212 195.025 254.744 192.264L238.6 179.71L243.534 153.993L263.22 170.796C264.563 171.993 265.247 173.75 265.075 175.534Z" fill="#F5B0B5"/>
<path d="M192.092 128.219L196.103 96.8039L211.277 108.965C209.541 116.759 211.646 129.843 211.646 129.843L192.092 128.219Z" fill="#F5B0B5"/>
<path d="M200.56 112.029C204.163 115.663 209.235 119.164 214.623 118.444C223.186 117.3 230.048 109.964 232.598 101.38L232.852 101.427C233.907 101.309 235.326 101.039 235.488 100.052C235.587 99.4585 235.276 98.7025 235.119 98.1439C234.867 97.2599 234.588 96.3785 234.282 95.5105C233.576 93.5172 233.63 91.2985 233.516 89.2465C233.408 87.3359 233.252 85.4292 233.028 83.5279C232.41 78.3025 231.343 72.9038 228.808 68.2345C227.155 65.1865 224.778 62.5359 221.615 61.0279C218.795 59.6825 215.63 59.3292 212.54 59.4692C206.962 59.7225 202.343 64.5159 199.223 68.6945C195.78 73.3065 193.05 78.4919 191.644 83.9879C188.98 94.4079 193.255 104.667 200.56 112.029Z" fill="#F9CACC"/>
<path d="M226.903 93.1305C226.802 94.1745 227.562 95.0999 228.598 95.1999C229.634 95.2985 230.555 94.5332 230.656 93.4906C230.755 92.4466 229.996 91.5212 228.96 91.4212C227.923 91.3226 227.002 92.0879 226.903 93.1305Z" fill="#491F06"/>
<path d="M224.968 89.4572L224.915 89.4252C224.655 89.2572 224.579 88.9105 224.748 88.6492C226.76 85.5425 229.766 86.1612 231.09 86.9078C231.356 87.0612 231.45 87.4038 231.295 87.6718C231.143 87.9425 230.831 88.0465 230.53 87.8825C230.439 87.8292 227.623 86.2799 225.694 89.2599C225.535 89.5025 225.223 89.5852 224.968 89.4572Z" fill="#491F06"/>
<path d="M228.483 105.002L228.479 105.064C228.448 105.372 228.172 105.596 227.863 105.565C224.183 105.181 223.369 102.222 223.435 100.704C223.451 100.396 223.713 100.158 224.021 100.173C224.332 100.186 224.567 100.419 224.557 100.76C224.551 100.865 224.448 104.077 227.979 104.445C228.267 104.476 228.481 104.718 228.483 105.002Z" fill="#491F06"/>
<path d="M282.64 462.765L265.724 386.255L236.596 282.967L225.38 227.879H178.493L154.02 357.575L110.104 458.073L118.448 463.7L161.096 398.26C166.501 389.967 169.992 384.988 174.109 375.673L174.127 375.68L174.268 375.311C176.128 371.068 178.121 365.935 180.479 359.195L199.907 308.789L234.989 370.009C242.948 383.896 249.603 398.488 254.869 413.603L272.685 464.729L282.64 462.765Z" fill="#37474F"/>
<path d="M240.087 282.433C240.087 282.433 237.356 282.897 232.776 283.521C217.364 285.557 190.508 288.532 168.342 281.684C174.212 243.505 175.7 204.797 173.208 166.251C172.778 159.569 172.66 154.081 173.126 151.379C174.999 140.457 183.607 128.009 186.546 125.463C187.979 124.237 189.575 122.408 190.85 120.836C192.214 119.169 193.186 117.804 193.186 117.804C193.186 117.804 208.087 122.479 215.583 131.085C217.111 132.844 218.823 135.389 220.628 138.352C222.456 141.383 224.352 144.831 226.134 148.255C232.29 160.032 234.742 173.383 233.262 186.595L233.007 188.909C232.706 191.639 230.762 217.508 230.762 217.508L240.087 282.433Z" fill="#E6D2F8"/>
<path d="M134.396 476.476L124.25 473.771L118.883 463.032L117.315 462.299C114.764 460.63 112.375 459.061 110.311 457.692L110.229 457.99C100.289 463.924 104.051 469.896 116.481 480.368C118.449 482.025 128.597 483.127 134.314 482.036L134.422 482.014C137.282 481.404 137.222 477.229 134.396 476.476Z" fill="#263238"/>
<path d="M272.552 464.408C270.827 479.318 282.779 476.785 309.341 470.012C313.027 469.03 314.625 464.494 307.851 464.133L282.167 461.108C278.673 462.194 272.552 464.408 272.552 464.408Z" fill="#263238"/>
<path d="M243.588 69.5638C246.356 66.3718 243.034 55.4545 237.786 59.2012C237.932 55.6052 232.978 53.7052 229.655 53.0612C226.604 52.4679 226.051 53.7159 223.907 55.1159C224.726 50.8799 217.172 50.0012 213.943 49.8465C211.242 49.7185 208.399 49.9065 206.034 51.2692C204.97 51.8825 202.939 53.4785 203.832 54.8039C198.214 55.4199 192.91 56.9905 189.36 61.4572C186.7 64.8039 185.122 69.1678 188.447 72.3318C185.636 74.0212 182.879 76.1532 181.611 79.1825C179.996 83.0399 182.155 85.0878 185.167 87.2985C182.49 89.5052 181.099 92.7185 182.066 96.2585C182.628 98.3145 186.083 102.216 188.768 101.316C187.03 103.397 189.635 107.323 191.491 108.62C192.479 109.311 193.916 109.559 195.13 109.532C196.162 109.509 197.508 108.649 198.24 108.741C198.402 108.76 199.156 109.565 199.724 109.684C200.582 109.863 200.9 109.699 201.711 109.38C203.004 108.869 203.899 107.776 204.548 106.647C205.623 104.773 206.015 102.459 206.352 100.419C201.776 101.051 201.619 92.5012 203.219 90.3092C206.151 86.2919 212.151 87.3038 212.827 92.1705C215.174 91.6732 216.828 88.9332 218.443 87.1812L218.55 87.0745C218.73 86.8852 218.908 86.6958 219.088 86.5358L218.976 86.4998C219.635 85.4652 219.946 84.1465 220.298 82.8932C224.21 83.9025 228.74 83.1759 229.502 78.8092C229.118 81.7252 232.896 82.1972 235.135 81.5879C237.199 81.0265 237.827 79.6972 237.93 78.0959C238.902 79.6759 242.716 79.6679 244.236 78.8065C247.923 76.7185 246.831 71.6158 243.588 69.5638Z" fill="#263238"/>
<path d="M216.703 111.668C217.166 109.783 225.192 113.676 231.304 114.755C234.404 115.301 237.402 116.393 239.972 118.207C243.61 120.771 245.734 124.029 247.071 131.568L247.072 131.567L269.79 186.209C270.471 187.849 270.563 189.677 270.047 191.379C268.612 196.109 263.143 198.267 258.866 195.789C254.796 193.435 251.898 189.487 250.864 184.9L243.634 152.771L238.968 135.052C238.282 135.077 233.6 136.223 232.624 129.808C232.624 129.808 227.695 131.852 226.531 128.304C226.531 128.304 224.714 127.503 224.795 125.683C224.795 125.683 223.319 123.919 224.668 122.168L229.392 118.247C229.392 118.247 216.252 115.885 216.703 111.668Z" fill="#F5B0B5"/>
<path d="M251.552 224.304C248.723 220.817 247.751 216.735 248.632 212.052C249.487 207.519 251.921 204.034 255.94 201.61C259.955 199.186 264.523 198.456 269.645 199.42C274.765 200.385 278.683 202.713 281.396 206.405C284.109 210.097 285.037 214.213 284.184 218.746C283.301 223.43 280.981 226.892 277.228 229.138C273.471 231.386 268.961 232.015 263.693 231.023C258.427 230.031 254.379 227.79 251.552 224.304ZM259.243 170.193C261.063 160.536 264.124 153.124 268.432 147.949C272.737 142.777 278.353 137.888 285.283 133.285C291.46 129.449 296.071 126.077 299.119 123.165C302.167 120.256 304.172 116.241 305.136 111.119C305.963 106.729 305.071 102.812 302.464 99.3665C299.853 95.9212 296.72 93.8545 293.065 93.1665C287.36 92.0918 282.477 93.0678 278.425 96.0892C277.079 97.0945 275.755 98.2438 274.455 99.5412C269.415 104.562 261.511 105.265 255.741 101.102C248.58 95.9345 247.7 85.6172 253.867 79.2959C254.143 79.0119 254.423 78.7278 254.708 78.4438C259.559 73.6012 265.975 69.6972 273.959 66.7305C281.936 63.7665 291.049 63.2465 301.292 65.1745C314.603 67.6812 324.759 73.0812 331.76 81.3652C338.755 89.6532 340.961 100.675 338.372 114.424C336.581 123.936 333.675 131.116 329.657 135.961C325.637 140.811 321.551 144.625 317.392 147.398C313.233 150.177 310.543 151.981 309.328 152.81C303.761 156.613 299.284 160.691 295.888 165.051C292.489 169.409 290.076 175.396 288.644 183.001L287.777 187.609L257.053 181.824L259.243 170.193Z" fill="#CA8E49"/>
<path d="M289.36 156.771C288.816 156.428 287.188 156.579 282.321 159.832C282.047 160.016 281.755 160.193 281.463 160.347L275.248 163.617C276.381 162.901 283.62 158.359 287.173 154.844C288.267 153.776 289.009 152.8 289.139 152.057C289.139 152.057 289.073 149.571 286.68 151.551L278.791 156.067H278.777L273.44 159.113C273.779 158.879 275.092 157.943 276.733 156.705C280.547 153.815 286.132 149.284 285.183 148.075C285.183 148.075 284.349 146.537 279.507 150.573C279.507 150.573 269.595 158.715 266.901 154.157C266.432 153.351 265.788 151.699 265.788 151.661C262.037 155.535 258.807 163.032 258.625 163.669L258.612 163.696L211.081 187.584L206.123 146.121C205.575 141.461 201.983 137.737 197.348 137.008C190.305 135.901 184.239 141.995 185.371 149.024L193.625 200.759C195.083 209.859 205.588 214.259 213.087 208.908L259.563 175.789C259.861 175.685 260.161 175.581 260.461 175.477H260.473C264.795 174.879 279.415 172.509 284.205 166.664C284.205 166.664 285.885 164.425 285.963 163.319C286.003 162.888 285.793 162.297 285.208 162.707C281.748 164.996 278.525 166.921 276.607 166.853C277.583 166.267 286.419 161.471 288.8 158.748V158.736C289.217 158.268 289.491 157.851 289.581 157.487L289.595 157.46L289.633 157.304C289.633 157.304 289.685 156.952 289.36 156.771Z" fill="#F9CACC"/>
<path d="M204.376 137.3L218.278 178.15C219.112 180.605 217.571 183.227 215.019 183.691L214.395 183.804L188.91 188.46L187.78 188.664C185.604 189.057 183.506 187.704 182.92 185.572C175.88 159.916 178.308 143.182 178.863 140.137L178.88 140.052C179.279 135.425 183.92 129.345 187.216 127.92C195.026 124.501 201.732 126.562 204.376 137.3Z" fill="#A855F7"/>
<path d="M427.52 124.696C432.329 124.72 436.535 127.939 437.816 132.573L449.203 173.797L493.665 142.301C493.665 142.301 495.128 130.867 499.225 129.817C499.225 129.817 529.383 136.956 496.451 154.427L497.549 153.363L454.511 195.085C447.737 201.652 436.423 198.811 433.555 189.824L417.239 138.696C415.02 131.749 420.228 124.66 427.52 124.696Z" fill="#F9CACC"/>
<path d="M434.687 123.908L455.039 163.139C456.261 165.495 455.104 168.387 452.592 169.248L451.976 169.459L426.885 178.089L425.772 178.469C423.629 179.201 421.296 178.155 420.377 176.085C409.305 151.187 409.193 133.869 409.289 130.701L409.292 130.611C408.984 125.865 412.751 118.995 415.869 117.045C423.251 112.384 430.359 113.441 434.687 123.908Z" fill="#A855F7"/>
<path d="M431.035 210.704L375.735 209.187L361.972 248.712C350.391 293.599 372.824 471.369 376.808 470.099L375.156 471.448L375.242 471.421C378.654 471.552 384.704 472.036 384.704 472.036C384.843 472.377 384.959 472.72 385.052 473.04L400.322 276.321L405.931 276.308L428.582 470.712L428.623 470.573C428.623 470.573 434.646 469.816 438.048 469.532L437.499 469.108C437.499 469.108 443.258 407.211 445.3 348.048C448.499 255.445 431.035 210.704 431.035 210.704Z" fill="#37474F"/>
<path d="M461.189 484.235C435.049 484.871 423.372 484.652 428.04 470.725L428.082 470.585C428.082 470.585 434.265 469.824 437.759 469.539L461.055 478.211C467.297 480.093 464.843 484.128 461.189 484.235Z" fill="#263238"/>
<path d="M353.075 487.149C349.518 487.206 346.948 483.287 352.939 481.127L375.135 471.47L375.156 471.448L375.242 471.421C378.654 471.552 384.706 472.036 384.706 472.036C384.843 472.377 384.959 472.72 385.052 473.04C389.399 485.913 378.003 486.632 353.075 487.149Z" fill="#263238"/>
<path d="M444.035 266.188C444.035 266.188 440.051 238.636 436.394 219.265C434.114 207.192 433.554 194.864 434.686 182.63C435.922 169.3 435.939 147.065 435.756 131.452C435.636 121.244 428.023 112.681 417.903 111.351L414.692 110.928C413.451 110.668 412.207 110.465 410.963 110.321C402.146 109.223 393.414 110.725 386.59 112.663C378.784 114.889 373.494 117.664 373.494 117.664L372.77 120.296C368.722 135.041 367.711 150.451 369.763 165.601V165.603C372.866 188.245 371.135 211.287 364.63 233.196C361.039 245.285 357.814 258.168 357.532 266.188H444.035Z" fill="#E6D2F8"/>
<path d="M387.907 93.4452L390.406 111.777C390.647 113.556 392.166 114.883 393.96 114.883H402.668C404.956 114.883 406.66 112.768 406.174 110.531L403.535 98.4079L387.907 93.4452Z" fill="#F5B0B5"/>
<path d="M374.02 91.9332C371.768 88.5625 370.915 83.3105 373.887 81.8718C374.774 81.4438 375.947 81.3838 377.2 81.6012C375.494 70.2238 378.812 55.5572 386.24 51.9625C395.958 47.2599 406.551 48.8905 418.011 74.3332C422.543 84.3998 419.702 97.9158 410.496 103.411C403.576 107.539 391.884 102.864 384.603 96.0078C380.97 96.3238 376.878 96.2052 374.02 91.9332Z" fill="#F9CACC"/>
<path d="M395.875 79.3039C396.236 80.4399 397.365 81.0959 398.4 80.7679C399.432 80.4399 399.977 79.2519 399.617 78.1159C399.255 76.9785 398.125 76.3225 397.092 76.6505C396.059 76.9785 395.515 78.1665 395.875 79.3039Z" fill="#491F06"/>
<path d="M408.68 74.9439C409.04 76.0799 410.171 76.7359 411.203 76.4079C412.238 76.0799 412.783 74.8919 412.42 73.7559C412.06 72.6186 410.93 71.9626 409.896 72.2906C408.863 72.6186 408.318 73.8065 408.68 74.9439Z" fill="#491F06"/>
<path d="M390.072 76.8586C390.315 76.7932 390.515 76.5906 390.56 76.3239C391.286 72.1292 395.062 72.5305 395.223 72.5479C395.588 72.5905 395.919 72.3292 395.967 71.9626C396.01 71.5959 395.747 71.2626 395.379 71.2186C393.586 71.0039 389.99 71.7519 389.239 76.0959C389.176 76.4599 389.419 76.8065 389.787 76.8692L390.072 76.8586Z" fill="#491F06"/>
<path d="M406.612 89.4012C406.443 89.2132 406.172 89.1292 405.914 89.2119C401.852 90.4879 400.48 86.9492 400.422 86.7959C400.292 86.4519 399.908 86.2772 399.56 86.4039C399.215 86.5332 399.038 86.9185 399.17 87.2665C399.798 88.9599 402.111 91.8119 406.316 90.4905C406.67 90.3799 406.866 90.0039 406.752 89.6492L406.612 89.4012Z" fill="#491F06"/>
<path d="M406.346 68.2906C406.535 68.3839 406.774 68.3652 406.948 68.2199C409.712 65.9546 411.891 68.2826 411.983 68.3826C412.192 68.6106 412.546 68.6266 412.778 68.4186C413.007 68.2092 413.023 67.8532 412.812 67.6239C411.792 66.5012 409.096 65.0026 406.235 67.3492C405.995 67.5466 405.959 67.9012 406.157 68.1412L406.346 68.2906Z" fill="#491F06"/>
<path d="M411.201 84.5252C411.568 84.2746 411.846 83.9399 412.014 83.5332C412.546 82.2452 411.803 80.6412 410.027 79.2412L404.707 74.1772C404.503 73.9812 404.184 73.9826 403.98 74.1946C403.786 74.3999 403.793 74.7252 404 74.9199L409.356 80.0159C411.033 81.3412 411.332 82.4932 411.065 83.1399C410.788 83.8052 409.903 84.1399 408.805 84.0092C408.528 83.9759 408.24 84.1679 408.2 84.4465C408.164 84.7225 408.32 84.9746 408.597 85.0186C409.663 85.1452 410.567 84.9612 411.201 84.5252Z" fill="#491F06"/>
<path d="M413.103 55.4345C401.282 37.9905 383.211 48.0012 383.211 48.0012C364.704 61.0465 373.654 78.7092 373.654 78.7092C380.631 91.2132 387.907 90.8292 387.907 90.8292C379.258 83.5999 387.306 67.3359 387.306 67.3359C388.368 71.5012 386.548 78.2412 386.548 78.2412C394.435 76.0199 397.746 65.4465 397.746 65.4465L399.728 70.4519C405.215 66.8132 406.282 63.8852 406.182 62.0319L407.12 64.5359C408.603 62.8852 409.424 61.4679 409.83 60.2719L417.342 72.8785C419.314 63.9292 413.103 55.4345 413.103 55.4345Z" fill="#263238"/>
<path d="M459.576 208.165C456.679 204.593 455.684 200.413 456.586 195.616C457.462 190.972 459.955 187.406 464.071 184.922C468.182 182.438 472.86 181.69 478.107 182.678C483.351 183.666 487.363 186.052 490.142 189.833C492.922 193.614 493.872 197.83 492.999 202.473C492.095 207.27 489.719 210.816 485.874 213.117C482.026 215.418 477.407 216.061 472.012 215.046C466.618 214.029 462.471 211.736 459.576 208.165ZM467.455 152.744C469.316 142.854 472.452 135.263 476.864 129.963C481.274 124.665 487.027 119.657 494.123 114.942C500.45 111.014 505.172 107.561 508.295 104.578C511.415 101.598 513.468 97.4865 514.458 92.2398C515.304 87.7438 514.391 83.7331 511.722 80.2038C509.047 76.6745 505.839 74.5572 502.094 73.8532C496.251 72.7518 491.251 73.7518 487.1 76.8478C485.722 77.8758 484.364 79.0545 483.032 80.3825C477.871 85.5252 469.776 86.2452 463.867 81.9812C456.532 76.6865 455.631 66.1211 461.947 59.6451C462.23 59.3558 462.518 59.0651 462.808 58.7731C467.776 53.8145 474.348 49.8158 482.523 46.7771C490.696 43.7411 500.028 43.2078 510.519 45.1838C524.154 47.7518 534.556 53.2825 541.726 61.7665C548.891 70.2545 551.151 81.5425 548.499 95.6252C546.664 105.368 543.686 112.72 539.574 117.684C535.456 122.65 531.268 126.557 527.011 129.398C522.75 132.244 519.995 134.092 518.751 134.942C513.05 138.836 508.462 143.012 504.986 147.477C501.506 151.942 499.034 158.073 497.567 165.863L496.679 170.582L465.211 164.656L467.455 152.744Z" fill="#6FBB64"/>
<path d="M526.694 135.816C526.447 139.201 523.555 138.347 523.275 138.264C523.391 138.444 524.311 139.973 523.078 141.551C521.862 143.112 520.432 142.044 520.251 141.896C520.4 142.143 521.452 143.983 519.035 145.775C516.456 147.696 514.927 145.921 514.927 145.921C514.927 145.921 513.827 147.993 510.491 148.337C507.171 148.683 506.227 145.952 506.227 145.952L509.19 142.749L504.066 138.215C504.066 138.215 502.603 136.819 504.164 135.421C504.591 135.027 505.962 135.444 505.962 135.444L511.099 138.495L506.35 133.893V133.876C505.791 132.973 505.248 131.675 505.971 130.737C507.122 129.225 509.012 130.557 509.324 130.787C509.044 130.557 507.696 129.325 509.307 127.731C511.016 126.021 513.843 128.783 514.123 129.061C513.974 128.864 512.791 127.253 514.582 125.956C516.488 124.575 523.44 131.756 523.44 131.756L526.266 129.867C526.266 129.867 526.972 132.267 526.694 135.816Z" fill="#F9CACC"/>
<path d="M394.115 160.761L375.918 178.911L372.282 182.528C370.442 184.36 367.3 183.179 367.123 180.589L360.56 147.529C358.606 137.683 361.578 127.503 368.524 120.256C374.698 113.815 385.568 117.007 387.279 125.764L394.115 160.761Z" fill="#A855F7"/>
<path d="M396.243 191.565L394.466 194.417C391.095 197.277 386.016 196.722 383.343 193.204L373.754 180.583L391.952 162.434L397.351 186.696C397.782 188.409 397.366 190.213 396.243 191.565Z" fill="#F5B0B5"/>
<path d="M399.946 97.5105C398.699 95.9612 392.937 103.053 387.733 106.704C385.095 108.556 382.787 110.867 381.184 113.664C378.921 117.62 378.364 121.565 380.391 129.14L380.388 129.139L382.989 189.692C383.068 191.511 383.776 193.247 384.991 194.601C388.372 198.368 394.383 198 397.279 193.848H397.28C400.034 189.899 401.015 184.979 399.984 180.276L392.768 147.325L389.417 128.861C390.068 128.585 394.907 127.621 393.033 121.245C393.033 121.245 398.493 121.005 398.035 117.208C398.035 117.208 399.375 115.677 398.512 114.024C398.512 114.024 399.116 111.747 397.104 110.707L391.02 109.116C391.02 109.116 402.191 101.229 399.946 97.5105Z" fill="#F9CACC"/>
</g>
</g>
<defs>
<clipPath id="clip0_849_2">
<rect width="922" height="501" fill="white"/>
</clipPath>
</defs>
</svg>
