<svg width="68" height="72" viewBox="0 0 68 72" fill="none" xmlns="http://www.w3.org/2000/svg">
<path d="M41.6271 5.741C41.7035 5.64547 41.7987 5.56637 41.9068 5.50853C42.0149 5.45068 42.1337 5.4153 42.256 5.40452C42.3783 5.39375 42.5015 5.40781 42.6181 5.44585C42.7348 5.48389 42.8424 5.54511 42.9345 5.6258L46.2701 8.54904L35.771 21.5992H42.7281L50.3552 12.1239L56.3382 17.3692C56.5151 17.5246 56.6239 17.7425 56.6415 17.9766C56.6591 18.2106 56.584 18.4422 56.4323 18.622L53.9334 21.5992H60.9738C61.8459 20.3301 62.2213 18.7879 62.0292 17.2629C61.8371 15.7379 61.0908 14.3353 59.9308 13.3191L46.5308 1.57214C45.8844 1.00622 45.1287 0.577233 44.3099 0.311373C43.491 0.0455127 42.6263 -0.0516383 41.7684 0.0258534C40.9106 0.103345 40.0776 0.353853 39.3204 0.762077C38.5632 1.1703 37.8977 1.72767 37.3645 2.40015L22.1428 21.5992H29.0601L41.6271 5.741ZM48.4865 46.7996C47.7661 46.7996 47.0752 47.0841 46.5658 47.5904C46.0564 48.0968 45.7703 48.7836 45.7703 49.4997C45.7703 50.2158 46.0564 50.9025 46.5658 51.4089C47.0752 51.9152 47.7661 52.1997 48.4865 52.1997H55.7297C56.4501 52.1997 57.141 51.9152 57.6504 51.4089C58.1598 50.9025 58.4459 50.2158 58.4459 49.4997C58.4459 48.7836 58.1598 48.0968 57.6504 47.5904C57.141 47.0841 56.4501 46.7996 55.7297 46.7996H48.4865ZM5.93243 22.4993C5.93243 21.7832 6.2186 21.0964 6.72799 20.59C7.23738 20.0837 7.92826 19.7992 8.64865 19.7992H19.9771L24.2941 14.3991H8.64865C6.48749 14.3991 4.41485 15.2525 2.88668 16.7716C1.35852 18.2907 0.5 20.351 0.5 22.4993V60.2998C0.5 63.4029 1.74008 66.3789 3.94743 68.5731C6.15479 70.7673 9.1486 72 12.2703 72H55.7297C58.8514 72 61.8452 70.7673 64.0526 68.5731C66.2599 66.3789 67.5 63.4029 67.5 60.2998V36.8995C67.5 33.7964 66.2599 30.8204 64.0526 28.6262C61.8452 26.432 58.8514 25.1993 55.7297 25.1993H8.64865C7.92826 25.1993 7.23738 24.9148 6.72799 24.4085C6.2186 23.9021 5.93243 23.2153 5.93243 22.4993ZM5.93243 60.2998V30.1386C6.78351 30.4374 7.69616 30.5994 8.64865 30.5994H55.7297C59.2282 30.5994 62.0676 33.4218 62.0676 36.8995V60.2998C62.0676 61.9707 61.3998 63.5732 60.2113 64.7547C59.0227 65.9362 57.4106 66.5999 55.7297 66.5999H12.2703C10.5894 66.5999 8.97732 65.9362 7.78874 64.7547C6.60017 63.5732 5.93243 61.9707 5.93243 60.2998Z" fill="#A855F7"/>
</svg>
