<svg width="78" height="78" viewBox="0 0 78 78" fill="none" xmlns="http://www.w3.org/2000/svg">
<path d="M39 75C58.8828 75 75 58.8828 75 39C75 19.1172 58.8828 3 39 3C19.1172 3 3 19.1172 3 39C3 44.76 4.3536 50.2032 6.7548 55.0308C7.3956 56.3124 7.608 57.7776 7.2372 59.1636L5.0952 67.1772C4.88384 67.97 4.88464 68.8045 5.0975 69.5969C5.31037 70.3893 5.72782 71.1118 6.30801 71.692C6.88819 72.2722 7.61071 72.6896 8.40312 72.9025C9.19554 73.1154 10.03 73.1162 10.8228 72.9048L18.8364 70.7628C20.2275 70.4127 21.6985 70.583 22.9728 71.2416C27.9513 73.7207 33.4384 75.0074 39 75Z" stroke="#A855F7" stroke-width="5"/>
<path d="M39 53.9985C43.9725 53.9985 48 50.6415 48 46.5015C48 42.3615 43.9725 39 39 39C34.0275 39 30 35.643 30 31.4985C30 27.3585 34.0275 24.0015 39 24.0015M39 53.9985C34.0275 53.9985 30 50.6415 30 46.5015M39 53.9985V57M39 24.0015V21M39 24.0015C43.9725 24.0015 48 27.3585 48 31.4985" stroke="#A855F7" stroke-width="5" stroke-linecap="round"/>
</svg>
