<svg width="78" height="78" viewBox="0 0 78 78" fill="none" xmlns="http://www.w3.org/2000/svg">
<path d="M5.8224 36.4266L72.0624 7.48271M72.0624 7.48271L59.6784 3M72.0624 7.48271L67.4544 19.3812M75 75H60.6V36.2606C60.6 35.5267 60.9034 34.8229 61.4435 34.3039C61.9836 33.785 62.7162 33.4935 63.48 33.4935H72.12C72.8838 33.4935 73.6164 33.785 74.1565 34.3039C74.6966 34.8229 75 35.5267 75 36.2606V75ZM46.2 75H31.8V44.5619C31.8 43.828 32.1034 43.1242 32.6435 42.6052C33.1836 42.0863 33.9162 41.7948 34.68 41.7948H43.32C44.0838 41.7948 44.8164 42.0863 45.3565 42.6052C45.8966 43.1242 46.2 43.828 46.2 44.5619V75ZM17.4 75H3V52.8632C3 52.1293 3.30343 51.4255 3.84353 50.9065C4.38364 50.3876 5.11618 50.0961 5.88 50.0961H14.52C15.2838 50.0961 16.0164 50.3876 16.5565 50.9065C17.0966 51.4255 17.4 52.1293 17.4 52.8632V75Z" stroke="#A855F7" stroke-width="5" stroke-linecap="round" stroke-linejoin="round"/>
</svg>
