<svg width="30" height="30" viewBox="0 0 30 30" fill="none" xmlns="http://www.w3.org/2000/svg">
<g clip-path="url(#clip0_17_26)">
<path d="M30 15C30 23.2838 23.2838 30 15 30C6.71625 30 0 23.2838 0 15C0 12.7175 0.50875 10.5562 1.42125 8.61875C0.848227 10.0463 0.549673 11.5692 0.54125 13.1075C0.54125 19.9 6.025 20.8825 8.35875 20.8612C11.905 20.8287 16.0513 19.0912 19.5438 15.8725L18.955 19.185C18.8225 19.9412 19.3175 20.6075 20.075 20.6125H20.3875C21.1712 20.6125 21.7288 19.9738 21.87 19.1838L23.1275 12.1063C23.2775 11.3213 22.7612 10.6812 21.9762 10.6812H14.885C14.0975 10.6812 13.3763 11.0987 13.235 11.8912L13.18 12.21C13.0675 12.9637 13.5925 13.5312 14.3438 13.5312H18.0438C17.984 13.5885 17.9248 13.6465 17.8663 13.705C15.3162 16.1175 12.1713 17.44 9.56625 17.44C6.96625 17.44 4.05375 15.7987 4.05375 12.1037C4.05375 4.44375 11.2375 0 15 0C23.2675 0 30 6.71625 30 15Z" fill="white"/>
</g>
<defs>
<clipPath id="clip0_17_26">
<rect width="30" height="30" fill="white"/>
</clipPath>
</defs>
</svg>
