<svg width="365" height="361" viewBox="0 0 365 361" fill="none" xmlns="http://www.w3.org/2000/svg">
<path d="M272.291 223.358H331.651V177.553H272.291V223.358Z" fill="#EBEBEB"/>
<path d="M276.534 219.361H283.687V211.272H276.534V219.361Z" fill="white"/>
<path d="M313.542 177.671H306.799V187.445H313.542V177.671Z" fill="#FAFAFA"/>
<path d="M313.542 213.449H306.8V223.223H313.542V213.449Z" fill="#FAFAFA"/>
<path d="M287.107 223.674C287.003 223.674 286.918 213.599 286.918 201.175C286.918 188.746 287.003 178.674 287.107 178.674C287.212 178.674 287.296 188.746 287.296 201.175C287.296 213.599 287.212 223.674 287.107 223.674Z" fill="#E0E0E0"/>
<path d="M248.08 302.24H350.499V223.208H248.08V302.24Z" fill="#EBEBEB"/>
<path d="M255.402 295.343H267.743V281.385H255.402V295.343Z" fill="white"/>
<path d="M319.255 223.411H307.621V240.275H319.255V223.411Z" fill="#FAFAFA"/>
<path d="M319.255 285.142H307.621V302.006H319.255V285.142Z" fill="#FAFAFA"/>
<path d="M273.644 302.784C273.463 302.784 273.317 285.401 273.317 263.964C273.317 242.519 273.463 225.14 273.644 225.14C273.825 225.14 273.971 242.519 273.971 263.964C273.971 285.401 273.824 302.784 273.644 302.784Z" fill="#E0E0E0"/>
<path d="M347.246 58.8252L352.732 69.947L365 71.7312L356.123 80.3883L358.218 92.613L347.246 86.8413L336.273 92.613L338.368 80.3883L329.491 71.7312L341.759 69.947L347.246 58.8252Z" fill="#EBEBEB"/>
<path d="M20.5554 202.445L24.0136 209.454L31.7449 210.578L26.1501 216.034L27.471 223.738L20.5554 220.101L13.6406 223.738L14.9606 216.034L9.3667 210.578L17.098 209.454L20.5554 202.445Z" fill="#EBEBEB"/>
<path d="M24.8457 141.378L32.5236 156.943L49.6923 159.439L37.269 171.554L40.2015 188.662L24.8457 180.585L9.48996 188.662L12.4233 171.554L0 159.439L17.1678 156.943L24.8457 141.378Z" fill="#EBEBEB"/>
<path d="M342.36 109.05L345.669 115.758L353.069 116.834L347.715 122.056L348.979 129.429L342.36 125.948L335.742 129.429L337.006 122.056L331.651 116.834L339.05 115.758L342.36 109.05Z" fill="#EBEBEB"/>
<path d="M233.749 0.358017L237.058 7.0666L244.458 8.14237L239.103 13.3651L240.367 20.7385L233.749 17.2573L227.13 20.7385L228.394 13.3651L223.04 8.14237L230.439 7.0666L233.749 0.358017Z" fill="#EBEBEB"/>
<path d="M309.464 72.1372L311.63 76.5282L316.473 77.2325L312.968 80.6505L313.795 85.4763L309.464 83.1973L305.132 85.4763L305.959 80.6505L302.455 77.2325L307.298 76.5282L309.464 72.1372Z" fill="#EBEBEB"/>
<path d="M109.611 293.783L113.829 302.335L123.263 303.707L116.437 310.364L118.048 319.764L109.611 315.326L101.173 319.764L102.785 310.364L95.9585 303.707L105.392 302.335L109.611 293.783Z" fill="#EBEBEB"/>
<path d="M120.747 285.282L122.49 288.816L126.387 289.382L123.567 292.133L124.233 296.017L120.747 294.183L117.26 296.017L117.927 292.133L115.107 289.382L119.004 288.816L120.747 285.282Z" fill="#EBEBEB"/>
<path d="M276.534 252.537L280.243 260.057L288.537 261.263L282.536 267.116L283.953 275.381L276.534 271.478L269.115 275.381L270.532 267.116L264.531 261.263L272.825 260.057L276.534 252.537Z" fill="#A855F7"/>
<path d="M294.23 245.873L295.978 249.416L299.886 249.985L297.058 252.743L297.726 256.637L294.23 254.798L290.734 256.637L291.401 252.743L288.573 249.985L292.482 249.416L294.23 245.873Z" fill="#A855F7"/>
<path d="M271.036 50.1542L273.937 41.0656C271.679 36.5348 270.606 31.345 271.095 25.9357C272.502 10.3777 286.265 -1.09173 301.836 0.317701C317.409 1.72631 328.892 15.4804 327.486 31.0384C326.079 46.5956 312.315 58.0651 296.744 56.6565C290.241 56.068 284.886 53.7127 280.451 49.5871L271.036 50.1542Z" fill="#FAFAFA"/>
<path d="M271.036 50.1541C271.036 50.1541 271.255 50.1319 271.663 50.1015C272.085 50.0711 272.687 50.0275 273.473 49.9717C275.069 49.8624 277.406 49.7021 280.445 49.4942L280.484 49.4917L280.514 49.5188C283.189 51.9901 287.274 54.7325 292.799 55.9011C294.169 56.1954 295.614 56.4246 297.121 56.5183C297.875 56.5471 298.641 56.5759 299.421 56.6046C300.199 56.5989 300.99 56.5175 301.793 56.4764C304.992 56.1789 308.349 55.3176 311.57 53.743C314.788 52.1758 317.864 49.8993 320.436 46.9621C323.001 44.0298 325.086 40.4434 326.248 36.4255C327.403 32.4141 327.696 28.0165 326.946 23.6789C326.816 22.5826 326.47 21.5265 326.195 20.4483C326.075 19.9034 325.844 19.3923 325.656 18.8655C325.456 18.3436 325.272 17.8127 325.056 17.295C324.09 15.27 323.028 13.2425 321.583 11.4583C320.93 10.5165 320.12 9.71113 319.359 8.87204C318.994 8.43648 318.539 8.09377 318.129 7.70669C317.705 7.33687 317.305 6.93828 316.862 6.59476L315.512 5.59788L314.838 5.10232L314.123 4.67415L312.697 3.82109C312.218 3.54824 311.705 3.34032 311.213 3.09706C307.24 1.23233 302.929 0.326678 298.761 0.417079C294.591 0.499262 290.585 1.51669 287.08 3.21129C283.569 4.90262 280.559 7.25715 278.192 9.93713C275.818 12.6179 274.089 15.6184 272.954 18.6222C272.819 19.0011 272.684 19.3758 272.551 19.7489C272.409 20.1196 272.285 20.491 272.204 20.874C272.016 21.6301 271.831 22.3747 271.649 23.1069C271.448 24.601 271.173 26.0367 271.145 27.4421C270.918 33.0749 272.402 37.7461 274.02 41.0236L274.037 41.0581L274.025 41.0934C273.065 44.0216 272.326 46.2734 271.821 47.8102C271.57 48.5671 271.378 49.1465 271.243 49.5525C271.112 49.9462 271.036 50.1541 271.036 50.1541C271.036 50.1541 271.086 49.9667 271.203 49.5805C271.326 49.1769 271.503 48.6017 271.734 47.8505C272.217 46.2915 272.926 44.0068 273.848 41.0367L273.854 41.1066C272.194 37.8242 270.662 33.1217 270.861 27.4314C270.883 26.0121 271.152 24.5599 271.35 23.0486C271.531 22.3081 271.714 21.5545 271.901 20.7885C271.981 20.4015 272.105 20.0242 272.247 19.6495C272.381 19.2723 272.516 18.8918 272.651 18.508C273.787 15.4647 275.526 12.4207 277.923 9.69798C280.313 6.97691 283.357 4.58292 286.913 2.86037C290.462 1.13536 294.524 0.0949223 298.755 0.00698673C302.983 -0.0899889 307.359 0.823064 311.394 2.71409C311.893 2.95982 312.413 3.17102 312.9 3.44798L314.348 4.31254L315.075 4.74729L315.76 5.24943L317.131 6.2611C317.581 6.60955 317.987 7.01389 318.419 7.38947C318.834 7.7823 319.296 8.12993 319.667 8.57208C320.439 9.42349 321.261 10.242 321.924 11.1978C323.39 13.0099 324.47 15.067 325.448 17.124C325.668 17.65 325.854 18.1891 326.058 18.7192C326.249 19.2534 326.483 19.7728 326.604 20.3259C326.883 21.4197 327.233 22.493 327.365 23.6058C328.123 28.0099 327.821 32.4717 326.643 36.5405C325.458 40.616 323.337 44.2509 320.73 47.2185C318.116 50.1911 314.992 52.4897 311.729 54.0676C308.462 55.6521 305.061 56.5134 301.823 56.801C301.011 56.8397 300.211 56.9186 299.424 56.9202C298.636 56.8873 297.862 56.8545 297.099 56.8224C295.579 56.7205 294.122 56.4822 292.74 56.1781C287.166 54.9692 283.057 52.1676 280.39 49.6544L280.458 49.6791C277.388 49.8393 275.027 49.9626 273.415 50.0473C272.64 50.0851 272.045 50.1138 271.628 50.1344C271.228 50.1516 271.036 50.1541 271.036 50.1541Z" fill="#263238"/>
<path d="M283.246 27.4191L287.905 23.3831L295.752 31.4403L313.345 16.7821L317.068 21.4205L294.529 39.7826L283.246 27.4191Z" fill="#A855F7"/>
<path d="M222.3 252.187L64.7811 287.309C60.9574 288.161 57.1673 285.752 56.3155 281.926L5.19472 52.4323C4.3429 48.6066 6.75133 44.8147 10.5751 43.9625L168.095 8.84086C171.918 7.98863 175.708 10.3982 176.56 14.2238L227.68 243.718C228.533 247.543 226.124 251.335 222.3 252.187Z" fill="#E0E0E0"/>
<path d="M222.3 252.187C222.3 252.187 222.475 252.133 222.822 252.034C223.168 251.931 223.674 251.734 224.298 251.39C224.909 251.027 225.629 250.483 226.289 249.656C226.936 248.83 227.521 247.704 227.729 246.328C227.847 245.644 227.833 244.899 227.711 244.134C227.582 243.37 227.372 242.572 227.193 241.731C226.816 240.051 226.404 238.214 225.958 236.223C225.066 232.242 224.038 227.648 222.88 222.478C218.258 201.79 211.572 171.856 203.309 134.87C199.183 116.375 194.663 96.1156 189.811 74.3676C187.387 63.4932 184.878 52.2465 182.295 40.662C181.003 34.8697 179.693 28.9929 178.364 23.0354C177.696 20.0596 177.025 17.0632 176.348 14.0471C175.99 12.5736 175.099 11.2488 173.911 10.302C172.706 9.37665 171.198 8.8252 169.664 8.83095C168.895 8.82767 168.148 8.97888 167.377 9.16051C166.611 9.33145 165.844 9.50239 165.075 9.67415C163.538 10.0169 161.996 10.3612 160.45 10.7064C157.357 11.3967 154.246 12.0903 151.116 12.7889C144.858 14.1852 138.529 15.5971 132.132 17.0246C119.337 19.8788 106.273 22.793 92.9741 25.7598C66.3755 31.6917 38.8354 37.8333 10.6292 44.1235C8.9026 44.5024 7.34682 45.5642 6.37261 47.032C5.38607 48.4907 4.99343 50.33 5.30146 52.0575C6.04486 55.5552 6.85068 59.0586 7.61871 62.5415C9.17121 69.5114 10.713 76.4353 12.2442 83.3083C15.3056 97.055 18.3219 110.6 21.2856 123.909C27.2114 150.528 32.9277 176.204 38.373 200.664C43.8158 225.124 48.9875 248.367 53.8282 270.12C54.4327 272.839 55.0324 275.535 55.6271 278.206C55.9302 279.539 56.207 280.882 56.5282 282.187C56.8609 283.477 57.5903 284.646 58.5629 285.532C59.5379 286.421 60.7635 287.012 62.0482 287.242C62.693 287.349 63.3477 287.365 63.9942 287.302C64.634 287.218 65.2789 287.061 65.9229 286.918C68.4964 286.345 71.0445 285.778 73.5679 285.216C83.66 282.97 93.3454 280.813 102.59 278.756C139.568 270.535 169.492 263.881 190.175 259.283C200.515 256.992 208.543 255.212 213.99 254.005C216.712 253.406 218.787 252.949 220.185 252.641C221.583 252.335 222.3 252.187 222.3 252.187C222.3 252.187 221.588 252.358 220.194 252.675C218.798 252.99 216.725 253.458 214.007 254.072C208.563 255.293 200.539 257.093 190.204 259.411C169.528 264.035 139.612 270.724 102.643 278.99C93.4005 281.054 83.7166 283.217 73.6262 285.471C71.1036 286.034 68.5555 286.603 65.9828 287.177C65.3405 287.32 64.6998 287.478 64.0262 287.568C63.3543 287.634 62.6741 287.618 62.0038 287.506C60.6682 287.269 59.395 286.656 58.3813 285.733C57.3693 284.813 56.6112 283.597 56.2645 282.257C55.9368 280.929 55.6632 279.603 55.3585 278.266C54.7621 275.594 54.1617 272.898 53.5546 270.18C48.7049 248.429 43.5225 225.189 38.0691 200.731C32.6181 176.273 26.8952 150.598 20.9628 123.981C17.9975 110.672 14.9795 97.1265 11.9164 83.3806C10.3853 76.5077 8.84264 69.5838 7.29014 62.6138C6.52046 59.1235 5.71957 55.6439 4.96961 52.1142C4.64679 50.302 5.05914 48.3707 6.09332 46.8421C7.11436 45.3029 8.74982 44.1876 10.5586 43.7915C38.7656 37.5037 66.3057 31.3638 92.9051 25.4343C106.205 22.47 119.27 19.5591 132.065 16.7074C138.462 15.2823 144.793 13.8712 151.052 12.4766C154.181 11.7797 157.292 11.0861 160.385 10.3965C161.932 10.0522 163.474 9.70867 165.011 9.36596C165.78 9.19502 166.547 9.02408 167.313 8.85314C168.069 8.67481 168.869 8.51209 169.669 8.51702C171.274 8.51126 172.85 9.08819 174.107 10.0555C175.349 11.0441 176.279 12.4306 176.653 13.969C177.329 16.9884 178 19.9881 178.667 22.9672C179.993 28.9255 181.301 34.8024 182.59 40.5954C185.168 52.1816 187.671 63.4299 190.091 74.3052C194.928 96.0565 199.435 116.319 203.548 134.816C211.766 171.813 218.416 201.753 223.013 222.448C224.159 227.621 225.177 232.217 226.06 236.2C226.501 238.192 226.908 240.03 227.279 241.711C227.456 242.555 227.662 243.347 227.79 244.121C227.91 244.894 227.921 245.647 227.799 246.338C227.584 247.727 226.988 248.86 226.332 249.688C225.663 250.517 224.936 251.06 224.318 251.42C223.688 251.761 223.178 251.952 222.83 252.05C222.478 252.145 222.3 252.187 222.3 252.187Z" fill="#263238"/>
<g opacity="0.3">
<path d="M72.7687 279.184L216.289 246.36L211.749 218.215L203.615 202.445L66.3213 256.398L72.7687 279.184Z" fill="black"/>
</g>
<g opacity="0.3">
<path d="M132.686 17.2572L138.115 26.2258L139.174 30.9776L135.488 31.7994L132.686 17.2572Z" fill="black"/>
</g>
<path d="M13.3721 53.762L63.1646 277.301L219.245 242.5L210.342 202.528L169.452 18.9617L13.3721 53.762Z" fill="white"/>
<path d="M13.3721 53.7619C14.4843 53.5129 74.5603 40.0629 169.422 18.826L169.558 18.7956L169.588 18.9312C183.435 81.0524 200.715 158.575 219.409 242.445L219.413 242.463L219.451 242.63L219.284 242.668C163.483 255.104 110.499 266.913 63.2007 277.454L63.0471 277.488L63.0134 277.335C33.7024 145.329 13.6744 55.1237 13.3721 53.7619C13.676 55.1221 33.8281 145.301 63.3182 277.266L63.1309 277.147C110.428 266.596 163.409 254.779 219.207 242.331L219.077 242.537L219.072 242.519C200.402 158.644 183.145 81.1165 169.316 18.9912L169.482 19.0964C74.5833 40.1697 14.4835 53.5154 13.3721 53.7619Z" fill="#263238"/>
<path d="M136.33 33.6148L57.3579 51.2233L53.3839 33.3806C52.7596 30.5782 54.524 27.8004 57.3251 27.1758L126.154 11.829C128.955 11.2044 131.732 12.9697 132.356 15.7721L136.33 33.6148Z" fill="#263238"/>
<path d="M99.8701 8.64362L79.7698 13.125L85.9592 29.8386L101.099 26.4625L99.8701 8.64362Z" fill="#263238"/>
<path d="M126.153 11.8298C126.173 11.921 110.781 15.4311 91.7782 19.6684C72.7687 23.9066 57.3472 27.2678 57.3267 27.1758C57.3061 27.0846 72.6948 23.5754 91.7043 19.3364C110.707 15.0999 126.132 11.7386 126.153 11.8298Z" fill="#455A64"/>
<path d="M58.3027 47.1322C58.2115 47.1528 57.4147 43.9279 56.5243 39.9297C55.633 35.9307 54.9857 32.673 55.0769 32.6525C55.1681 32.6319 55.9649 35.8568 56.8553 39.8558C57.7457 43.854 58.3938 47.1117 58.3027 47.1322Z" fill="#455A64"/>
<path d="M132.569 28.7734C132.477 28.794 131.747 25.8674 130.939 22.2374C130.13 18.6066 129.549 15.6472 129.64 15.6275C129.731 15.6069 130.462 18.5326 131.27 22.1643C132.078 25.7935 132.66 28.7529 132.569 28.7734Z" fill="#455A64"/>
<path d="M129.439 32.6705C129.46 32.7626 113.66 36.363 94.1531 40.7121C74.6401 45.0629 58.8104 48.5146 58.7898 48.4225C58.7693 48.3313 74.5662 44.7309 94.0792 40.3801C113.586 36.0318 129.419 32.5793 129.439 32.6705Z" fill="#455A64"/>
<path d="M87.864 97.7001C87.8846 97.793 77.2282 100.248 64.0656 103.183C50.8981 106.118 40.2105 108.423 40.19 108.33C40.1694 108.237 50.8234 105.783 63.9909 102.846C77.1534 99.9117 87.8435 97.6073 87.864 97.7001Z" fill="#263238"/>
<path d="M167.307 88.7488C167.327 88.8416 139.483 95.1286 105.122 102.791C70.7497 110.455 42.877 116.59 42.8565 116.498C42.8359 116.405 70.6749 110.119 105.048 102.455C139.409 94.7933 167.286 88.6567 167.307 88.7488Z" fill="#263238"/>
<path d="M169.019 96.4312C169.039 96.5241 141.194 102.812 106.834 110.473C72.4614 118.137 44.5887 124.272 44.5681 124.179C44.5476 124.087 72.3866 117.8 106.759 110.137C141.12 102.476 168.997 96.3384 169.019 96.4312Z" fill="#263238"/>
<path d="M170.73 104.114C170.75 104.207 142.906 110.494 108.545 118.155C74.1725 125.82 46.2998 131.955 46.2793 131.862C46.2588 131.769 74.0978 125.483 108.47 117.819C142.831 110.158 170.709 104.021 170.73 104.114Z" fill="#263238"/>
<path d="M172.441 111.796C172.461 111.889 144.616 118.177 110.256 125.838C75.8835 133.502 48.0108 139.637 47.9902 139.544C47.9697 139.451 75.8087 133.165 110.181 125.502C144.542 117.84 172.42 111.703 172.441 111.796Z" fill="#263238"/>
<path d="M174.152 119.479C174.172 119.571 146.328 125.859 111.967 133.52C77.5947 141.185 49.7228 147.32 49.7014 147.227C49.6809 147.134 77.5199 140.848 111.893 133.184C146.254 125.522 174.131 119.386 174.152 119.479Z" fill="#263238"/>
<path d="M73.8358 173.555C73.8292 173.551 73.8038 173.462 73.761 173.295C73.7142 173.104 73.6543 172.863 73.5803 172.563C73.4226 171.896 73.2033 170.974 72.9289 169.816C72.3802 167.44 71.6097 164.101 70.6881 160.107L70.8655 160.22C66.9432 161.102 62.3251 162.139 57.3982 163.247C57.3678 163.291 57.6438 162.86 57.528 163.044L57.5288 163.047L57.5305 163.054L57.5337 163.069L57.5403 163.098L57.5535 163.155L57.5789 163.27L57.6307 163.501L57.7333 163.962C57.8015 164.267 57.8689 164.572 57.9362 164.876C58.0709 165.482 58.2048 166.084 58.3363 166.678C58.5999 167.867 58.8571 169.031 59.1084 170.163C59.6062 172.426 60.0761 174.563 60.5081 176.526L60.3307 176.413C64.3368 175.552 67.6858 174.832 70.0687 174.32C71.2335 174.077 72.1609 173.884 72.8304 173.744C73.1327 173.684 73.3766 173.635 73.5697 173.597C73.738 173.565 73.8292 173.55 73.8358 173.555C73.8424 173.559 73.7652 173.582 73.6083 173.623C73.4243 173.668 73.1926 173.726 72.9051 173.797C72.2472 173.953 71.3362 174.17 70.1928 174.442C67.795 174.996 64.4263 175.773 60.3956 176.704L60.251 176.738L60.2182 176.591C59.7762 174.631 59.2949 172.497 58.7848 170.236C58.531 169.105 58.2706 167.941 58.0044 166.753C57.8713 166.158 57.7374 165.557 57.6019 164.95C57.5346 164.647 57.4664 164.342 57.3982 164.036L57.2955 163.576L57.2438 163.345L57.2183 163.229L57.2052 163.172L57.1986 163.143L57.1953 163.128L57.1937 163.121L57.1928 163.118C57.0762 163.3 57.3506 162.864 57.3243 162.91C62.2553 161.819 66.8767 160.797 70.8014 159.928L70.9477 159.896L70.9789 160.042C71.8479 164.087 72.5749 167.469 73.0916 169.876C73.3314 171.028 73.522 171.945 73.66 172.607C73.7175 172.898 73.7643 173.132 73.8005 173.319C73.8301 173.478 73.8424 173.559 73.8358 173.555Z" fill="#263238"/>
<path d="M173.981 140.345L79.9927 161.282L81.7411 169.126L175.73 148.189L173.981 140.345Z" fill="#E0E0E0"/>
<path d="M79.0444 196.937C79.0378 196.933 79.0124 196.844 78.9696 196.677C78.9228 196.485 78.8629 196.245 78.7889 195.945C78.6312 195.278 78.4119 194.356 78.1375 193.198C77.5888 190.821 76.8191 187.483 75.8967 183.489L76.0741 183.602C72.1518 184.484 67.5337 185.521 62.6068 186.628C62.5764 186.673 62.8524 186.241 62.7366 186.425L62.7374 186.429L62.739 186.436L62.7423 186.451L62.7489 186.48L62.762 186.537L62.7875 186.653L62.8393 186.884L62.9419 187.344C63.0101 187.65 63.0775 187.955 63.1456 188.258C63.2804 188.865 63.4134 189.466 63.5457 190.06C63.8094 191.25 64.0665 192.413 64.3178 193.546C64.8156 195.809 65.2855 197.946 65.7175 199.908L65.5401 199.796C69.5462 198.935 72.8952 198.215 75.2781 197.703C76.4429 197.459 77.3703 197.266 78.0398 197.127C78.3421 197.067 78.586 197.018 78.7791 196.979C78.9466 196.947 79.037 196.933 79.0444 196.937C79.051 196.941 78.9737 196.964 78.8168 197.005C78.6328 197.05 78.4012 197.108 78.1137 197.179C77.4557 197.335 76.5448 197.552 75.4014 197.824C73.0036 198.378 69.6341 199.156 65.6034 200.087L65.4588 200.12L65.4259 199.974C64.984 198.014 64.5026 195.88 63.9925 193.619C63.7387 192.487 63.4783 191.324 63.2122 190.135C63.0791 189.541 62.9452 188.939 62.8097 188.333C62.7423 188.03 62.6741 187.725 62.606 187.419L62.5033 186.959L62.4515 186.728L62.4261 186.612L62.4129 186.555L62.4064 186.526L62.4031 186.511L62.4014 186.504L62.4006 186.5C62.284 186.683 62.5583 186.247 62.532 186.292C67.4631 185.202 72.0844 184.179 76.0092 183.312L76.1554 183.279L76.1866 183.424C77.0557 187.47 77.7827 190.852 78.3002 193.259C78.54 194.41 78.7306 195.328 78.8686 195.99C78.9261 196.281 78.9721 196.515 79.0091 196.702C79.0386 196.861 79.051 196.942 79.0444 196.937Z" fill="#263238"/>
<path d="M179.189 163.728L85.2009 184.665L86.9494 192.51L180.938 171.573L179.189 163.728Z" fill="#E0E0E0"/>
<path d="M84.2523 220.319C84.2457 220.315 84.2203 220.226 84.1776 220.06C84.1307 219.868 84.0708 219.627 83.9968 219.327C83.8391 218.662 83.6198 217.739 83.3455 216.581C82.7967 214.204 82.0271 210.866 81.1046 206.872L81.282 206.984C77.3597 207.866 72.7416 208.903 67.8147 210.011C67.7843 210.055 68.0611 209.624 67.9445 209.808L67.9453 209.812L67.947 209.82L67.9502 209.834L67.9568 209.863L67.97 209.921L67.9954 210.037L68.0472 210.267L68.1498 210.728C68.218 211.033 68.2854 211.338 68.3527 211.642C68.4875 212.248 68.6213 212.85 68.7528 213.444C69.0165 214.633 69.2736 215.797 69.5241 216.929C70.0219 219.193 70.4917 221.329 70.9238 223.292L70.7464 223.179C74.7525 222.318 78.1015 221.598 80.4844 221.085C81.6492 220.842 82.5766 220.649 83.2469 220.509C83.5492 220.449 83.7931 220.401 83.9862 220.362C84.1554 220.33 84.2457 220.315 84.2523 220.319C84.2589 220.323 84.1817 220.346 84.0248 220.387C83.8408 220.434 83.6091 220.491 83.3216 220.563C82.6637 220.719 81.7527 220.936 80.6093 221.207C78.2115 221.761 74.8428 222.538 70.8121 223.469L70.6675 223.503L70.6347 223.357C70.1927 221.396 69.7114 219.262 69.2013 217.002C68.9475 215.87 68.6871 214.706 68.4209 213.518C68.2878 212.923 68.154 212.322 68.0184 211.716C67.9511 211.412 67.8829 211.107 67.8147 210.802L67.712 210.341L67.6603 210.111L67.6348 209.995L67.6217 209.937L67.6151 209.908L67.6118 209.894L67.6102 209.886L67.6093 209.883C67.4927 210.065 67.7671 209.63 67.7408 209.675C72.6718 208.584 77.2932 207.562 81.2179 206.693L81.3642 206.661L81.3954 206.807C82.2644 210.853 82.9914 214.234 83.5081 216.642C83.7479 217.793 83.9385 218.71 84.0765 219.373C84.134 219.663 84.1808 219.899 84.217 220.084C84.2474 220.244 84.2589 220.324 84.2523 220.319Z" fill="#263238"/>
<path d="M184.398 187.112L90.4092 208.049L92.1576 215.893L186.146 194.957L184.398 187.112Z" fill="#E0E0E0"/>
<path d="M60.8923 168.723L62.3035 166.502L66.5002 168.835L71.9003 160.684L73.9908 162.125L67.021 172.397L60.8923 168.723Z" fill="#A855F7"/>
<path d="M65.927 191.324L67.3382 189.102L71.5341 191.435L76.935 183.284L79.0255 184.725L72.0557 194.997L65.927 191.324Z" fill="#A855F7"/>
<path d="M71.0889 214.496L72.5001 212.274L76.6959 214.608L82.096 206.457L84.1874 207.897L77.2167 218.169L71.0889 214.496Z" fill="#A855F7"/>
<path d="M114.105 243.575C114.126 243.667 106.191 245.516 96.3847 247.702C86.5744 249.889 78.6082 251.587 78.5877 251.494C78.5672 251.401 86.4997 249.553 96.31 247.366C106.116 245.18 114.084 243.483 114.105 243.575Z" fill="#263238"/>
<path d="M131.803 239.342C131.824 239.435 128.904 240.165 125.283 240.972C121.661 241.78 118.709 242.359 118.688 242.266C118.668 242.173 121.586 241.444 125.209 240.636C128.829 239.829 131.782 239.249 131.803 239.342Z" fill="#263238"/>
<path d="M190.404 220.888C190.424 220.981 183.284 222.652 174.459 224.619C165.63 226.587 158.458 228.108 158.438 228.015C158.417 227.922 165.555 226.251 174.384 224.283C183.21 222.316 190.383 220.795 190.404 220.888Z" fill="#263238"/>
<path d="M182.774 242.522C182.754 242.515 182.843 242.297 182.93 241.868C183.026 241.439 183.031 240.778 182.831 239.969C182.625 239.16 182.202 238.224 181.695 237.14C181.21 236.061 180.581 234.782 180.57 233.222C180.593 231.691 181.268 229.991 182.653 228.798C184.02 227.583 186.165 227.154 188.111 227.78C189.08 228.095 190.014 228.644 190.709 229.487C191.041 229.917 191.307 230.433 191.326 231.025C191.378 231.629 190.916 232.229 190.363 232.414C189.816 232.624 189.283 232.686 188.746 232.815C188.206 232.926 187.663 233.039 187.115 233.151C186.017 233.368 184.896 233.57 183.753 233.719C181.472 234.025 179.18 234.067 177.033 233.758C175.983 233.647 174.874 233.63 174.083 234.239C173.294 234.841 172.894 235.82 172.305 236.641C172.015 237.055 171.645 237.451 171.159 237.665C170.68 237.887 170.123 237.881 169.653 237.728C168.705 237.408 168.008 236.773 167.256 236.346C166.884 236.128 166.496 235.948 166.1 235.909C165.708 235.871 165.312 235.967 164.999 236.187C164.365 236.638 164.029 237.386 163.608 238.012C162.777 239.341 161.347 239.97 160.14 240.014C158.902 240.074 157.897 239.548 157.264 238.994C156.618 238.428 156.295 237.827 156.126 237.417C155.961 237.001 155.94 236.764 155.94 236.764C155.958 236.759 156.007 236.989 156.19 237.389C156.375 237.782 156.71 238.358 157.35 238.891C157.98 239.414 158.952 239.897 160.129 239.82C161.283 239.76 162.63 239.147 163.404 237.879C163.813 237.268 164.131 236.496 164.848 235.969C165.206 235.713 165.672 235.592 166.128 235.635C166.587 235.678 167.01 235.876 167.398 236.099C168.178 236.541 168.885 237.161 169.742 237.44C170.165 237.573 170.628 237.571 171.034 237.383C171.441 237.201 171.772 236.855 172.047 236.458C172.612 235.678 173 234.67 173.887 233.977C174.327 233.636 174.88 233.46 175.426 233.398C175.975 233.336 176.525 233.37 177.067 233.424C179.212 233.727 181.44 233.681 183.709 233.38C184.842 233.231 185.955 233.032 187.049 232.817C187.596 232.705 188.138 232.593 188.677 232.483C189.209 232.358 189.77 232.284 190.236 232.104C190.708 231.93 191.021 231.516 190.994 231.032C190.984 230.554 190.752 230.078 190.452 229.691C189.821 228.917 188.93 228.382 188.017 228.083C186.169 227.482 184.14 227.875 182.839 229.017C181.515 230.139 180.851 231.764 180.815 233.227C180.808 234.708 181.402 235.978 181.872 237.062C182.36 238.151 182.773 239.108 182.962 239.939C183.146 240.771 183.118 241.451 182.999 241.882C182.888 242.314 182.774 242.522 182.774 242.522Z" fill="#263238"/>
<path d="M199.757 232.001C199.759 232.012 199.611 232.056 199.328 232.128C199.009 232.205 198.597 232.305 198.084 232.428C196.962 232.689 195.407 233.049 193.503 233.491C189.635 234.388 184.298 235.655 178.426 237.144C172.553 238.635 167.258 240.067 163.43 241.123C161.546 241.642 160.008 242.067 158.897 242.373C158.388 242.509 157.978 242.618 157.661 242.702C157.377 242.773 157.226 242.805 157.223 242.794C157.22 242.782 157.363 242.728 157.641 242.635C157.953 242.535 158.357 242.405 158.859 242.244C159.919 241.91 161.457 241.446 163.364 240.888C167.176 239.772 172.465 238.302 178.342 236.809C184.218 235.319 189.566 234.089 193.45 233.252C195.391 232.833 196.965 232.508 198.055 232.296C198.574 232.198 198.99 232.12 199.312 232.059C199.602 232.01 199.754 231.989 199.757 232.001Z" fill="#263238"/>
<path d="M132.394 51.6834L68.5918 65.8959L71.2648 77.8882L135.067 63.6757L132.394 51.6834Z" fill="#E0E0E0"/>
<path d="M192.735 246.28L213.346 355.223L232.181 320.405L267.882 341.368L229.986 235.283L192.735 246.28Z" fill="#A855F7"/>
<g opacity="0.3">
<path d="M199.667 282.92C203.477 283.705 207.924 282.357 210.627 279.559C212.505 277.615 213.758 274.975 216.126 273.673C218.252 272.505 220.873 272.671 223.211 273.317C225.548 273.963 227.75 275.047 230.097 275.656C234.699 276.851 239.774 276.097 243.831 273.616L237.885 257.098L210.283 253.649L197.122 269.465L199.667 282.92Z" fill="black"/>
</g>
<path d="M230.839 316.078C230.724 316.107 227.655 304.793 223.984 290.809C220.311 276.82 217.428 265.459 217.542 265.429C217.656 265.4 220.725 276.711 224.398 290.701C228.069 304.684 230.953 316.047 230.839 316.078Z" fill="#263238"/>
<path d="M195.752 251.947L175.14 360.89L156.305 326.071L120.604 347.035L158.5 240.95L195.752 251.947Z" fill="#A855F7"/>
<g opacity="0.3">
<path d="M147.166 272.68C147.166 272.68 153.027 277.508 160.022 275.283C167.015 273.058 171.357 272.591 175.141 275.283C178.924 277.975 189.168 286.753 189.168 286.753L191.546 274.183L177.79 255.282L163.424 258.184L153.193 259.207L149.39 266.409L147.166 272.68Z" fill="black"/>
</g>
<path d="M316.594 153.603C316.594 161.42 306.608 168.153 305.148 175.54C303.643 183.152 310.266 193.186 307.363 200.189C304.41 207.316 292.606 209.711 288.367 216.045C284.097 222.427 286.375 234.249 280.965 239.66C275.557 245.071 263.741 242.792 257.362 247.065C251.031 251.306 248.637 263.114 241.514 266.07C234.514 268.974 224.485 262.348 216.877 263.853C209.493 265.314 202.763 275.305 194.95 275.305C187.138 275.305 180.408 265.314 173.024 263.853C165.416 262.348 155.387 268.973 148.387 266.07C141.264 263.115 138.87 251.306 132.539 247.065C126.16 242.792 114.344 245.071 108.935 239.659C103.527 234.248 105.805 222.427 101.534 216.044C97.2966 209.71 85.4927 207.315 82.5388 200.189C79.6359 193.185 86.2591 183.151 84.7542 175.54C83.2937 168.152 73.3076 161.419 73.3076 153.603C73.3076 145.786 83.2937 139.053 84.7542 131.665C86.2591 124.054 79.6359 114.02 82.5388 107.016C85.4919 99.8904 97.2958 97.4947 101.534 91.1609C105.805 84.7786 103.527 72.9566 108.936 67.5457C114.345 62.1348 126.161 64.4137 132.54 60.141C138.871 55.9004 141.265 44.0915 148.388 41.1362C155.388 38.2319 165.417 44.8583 173.025 43.3527C180.409 41.8915 187.139 31.9005 194.951 31.9005C202.764 31.9005 209.494 41.8915 216.878 43.3527C224.486 44.8583 234.515 38.2327 241.515 41.1362C248.637 44.0907 251.032 55.9004 257.363 60.141C263.742 64.4137 275.558 62.1348 280.966 67.5457C286.375 72.9566 284.097 84.7786 288.367 91.1609C292.605 97.4947 304.409 99.8904 307.363 107.016C310.266 114.02 303.643 124.054 305.148 131.665C306.608 139.054 316.594 145.787 316.594 153.603Z" fill="#A855F7"/>
<path d="M166.49 85.3867C166.477 85.3933 166.401 85.2774 166.269 85.0505C166.117 84.7777 165.932 84.4473 165.708 84.0487C165.227 83.176 164.563 81.8956 163.771 80.2996C162.184 77.1084 160.132 72.627 158.153 67.5588C156.178 62.4873 154.654 57.7987 153.662 54.3758C153.165 52.6648 152.787 51.2726 152.551 50.3045C152.445 49.8599 152.357 49.4917 152.285 49.1885C152.229 48.932 152.206 48.7956 152.22 48.7915C152.234 48.7874 152.285 48.9164 152.368 49.1654C152.461 49.4629 152.575 49.8237 152.711 50.2601C153.024 51.2751 153.443 52.636 153.951 54.2887C155.016 57.6837 156.582 62.3451 158.551 67.4043C160.525 72.4601 162.528 76.9498 164.043 80.1697C164.787 81.7304 165.4 83.0157 165.856 83.9739C166.05 84.3873 166.212 84.73 166.344 85.0119C166.452 85.2503 166.503 85.3793 166.49 85.3867Z" fill="#263238"/>
<path d="M177.314 81.2677C177.286 81.2751 177.176 80.9521 177.001 80.3612C176.824 79.7711 176.592 78.9107 176.32 77.8439C175.778 75.7097 175.106 72.7412 174.499 69.4366C173.892 66.1304 173.466 63.116 173.215 60.9283C173.09 59.8344 173.002 58.9477 172.958 58.3337C172.912 57.7198 172.9 57.3788 172.929 57.3755C172.958 57.3722 173.026 57.7067 173.123 58.314C173.229 59.0118 173.36 59.8722 173.515 60.888C173.842 63.0617 174.314 66.0606 174.919 69.3586C175.525 72.6557 176.149 75.6267 176.615 77.7741C176.831 78.7792 177.014 79.6298 177.162 80.3201C177.287 80.9233 177.343 81.2603 177.314 81.2677Z" fill="#263238"/>
<path d="M196.413 79.3693C196.295 79.3717 195.991 70.1533 195.733 58.7816C195.476 47.4059 195.364 38.185 195.482 38.1825C195.6 38.1801 195.904 47.3969 196.162 58.7726C196.418 70.1434 196.531 79.3668 196.413 79.3693Z" fill="#263238"/>
<path d="M215.629 60.4278C215.742 60.4631 214.416 65.0727 212.668 70.722C210.919 76.3737 209.41 80.9258 209.297 80.8913C209.185 80.8568 210.511 76.248 212.259 70.5954C214.007 64.9454 215.516 60.3924 215.629 60.4278Z" fill="#263238"/>
<path d="M223.474 84.2493C223.46 84.2443 223.496 84.1104 223.577 83.8605C223.679 83.5655 223.803 83.208 223.952 82.7765C224.282 81.8364 224.793 80.4894 225.431 78.8268C226.715 75.505 228.562 70.9455 230.663 65.9365C232.764 60.925 234.717 56.4107 236.156 53.1546C236.866 51.5775 237.45 50.2782 237.886 49.3093C238.082 48.8967 238.245 48.5548 238.378 48.2738C238.495 48.0387 238.563 47.9187 238.577 47.9245C238.591 47.9302 238.549 48.0625 238.457 48.3083C238.344 48.5984 238.206 48.9509 238.039 49.3758C237.635 50.3587 237.093 51.6753 236.435 53.2746C235.035 56.6145 233.146 61.1214 231.058 66.1025C228.982 71.0861 227.104 75.5962 225.713 78.9394C225.055 80.5379 224.513 81.8545 224.108 82.8365C223.929 83.2565 223.781 83.605 223.658 83.8918C223.55 84.1309 223.487 84.2542 223.474 84.2493Z" fill="#263238"/>
<path d="M233.742 89.6068C233.718 89.5903 233.886 89.2936 234.211 88.7701C234.534 88.2458 235.022 87.5004 235.639 86.589C236.873 84.7654 238.644 82.2908 240.709 79.6405C242.776 76.9901 244.745 74.6692 246.212 73.028C246.945 72.207 247.549 71.5528 247.979 71.1107C248.407 70.6677 248.654 70.4327 248.676 70.4524C248.698 70.4721 248.493 70.745 248.103 71.2208C247.653 71.7641 247.098 72.4338 246.442 73.2253C245.035 74.9141 243.109 77.2596 241.047 79.9034C238.986 82.5473 237.182 84.9873 235.886 86.7632C235.279 87.5925 234.765 88.2951 234.348 88.8638C233.981 89.3577 233.767 89.6232 233.742 89.6068Z" fill="#263238"/>
<path d="M248.676 101.856C248.596 101.77 255.095 95.5889 263.191 88.0535C271.289 80.5157 277.918 74.4769 277.999 74.5632C278.079 74.6495 271.581 80.8288 263.482 88.3666C255.386 95.9028 248.757 101.942 248.676 101.856Z" fill="#263238"/>
<path d="M274.767 104.409C274.793 104.468 273.83 104.95 272.291 105.758C270.75 106.564 268.65 107.726 266.334 109.027C264.017 110.328 261.883 111.454 260.302 112.192C259.511 112.561 258.866 112.848 258.411 113.027C257.959 113.21 257.703 113.298 257.69 113.27C257.664 113.212 258.627 112.729 260.166 111.921C261.707 111.116 263.807 109.954 266.125 108.652C268.441 107.351 270.575 106.225 272.156 105.486C272.946 105.117 273.591 104.83 274.046 104.651C274.499 104.47 274.755 104.382 274.767 104.409Z" fill="#263238"/>
<path d="M298.92 114.433C298.96 114.544 291.223 117.371 281.642 120.745C272.059 124.12 264.26 126.766 264.221 126.655C264.181 126.543 271.917 123.718 281.5 120.341C291.081 116.967 298.881 114.321 298.92 114.433Z" fill="#263238"/>
<path d="M306.608 158.372C306.597 158.49 298.189 157.786 287.831 156.799C277.469 155.812 269.082 154.917 269.093 154.8C269.104 154.682 277.51 155.387 287.871 156.374C298.229 157.36 306.619 158.255 306.608 158.372Z" fill="#263238"/>
<path d="M300.425 197.785C300.375 197.892 292.514 194.282 282.869 189.723C273.222 185.163 265.444 181.382 265.495 181.275C265.545 181.168 273.405 184.777 283.053 189.337C292.696 193.895 300.475 197.678 300.425 197.785Z" fill="#263238"/>
<path d="M274.566 235.283C274.476 235.36 268.807 228.78 261.904 220.59C255 212.397 249.478 205.696 249.568 205.619C249.658 205.543 255.327 212.121 262.231 220.314C269.134 228.505 274.657 235.208 274.566 235.283Z" fill="#263238"/>
<path d="M252.984 240.237C252.959 240.253 252.716 239.923 252.299 239.313C251.88 238.704 251.291 237.81 250.578 236.697C249.15 234.473 247.235 231.361 245.219 227.866C243.204 224.37 241.47 221.154 240.259 218.804C239.653 217.629 239.175 216.672 238.857 216.004C238.538 215.337 238.374 214.962 238.4 214.948C238.426 214.935 238.64 215.284 239.004 215.927C239.403 216.644 239.914 217.562 240.525 218.661C241.803 220.973 243.577 224.161 245.59 227.652C247.603 231.142 249.474 234.274 250.835 236.538C251.48 237.618 252.018 238.519 252.439 239.224C252.813 239.862 253.008 240.221 252.984 240.237Z" fill="#263238"/>
<path d="M239.575 259.096C239.561 259.103 239.488 258.987 239.361 258.759C239.215 258.486 239.037 258.155 238.824 257.755C238.362 256.881 237.726 255.598 236.971 253.999C235.457 250.803 233.512 246.314 231.661 241.241C229.815 236.165 228.417 231.476 227.521 228.054C227.072 226.343 226.733 224.953 226.525 223.986C226.432 223.543 226.354 223.175 226.29 222.872C226.241 222.616 226.223 222.48 226.237 222.477C226.252 222.473 226.298 222.602 226.374 222.851C226.46 223.15 226.562 223.51 226.686 223.946C226.971 224.962 227.351 226.323 227.812 227.974C228.782 231.369 230.221 236.032 232.063 241.094C233.908 246.154 235.804 250.65 237.245 253.873C237.954 255.434 238.537 256.721 238.973 257.682C239.158 258.095 239.312 258.438 239.438 258.721C239.54 258.961 239.588 259.09 239.575 259.096Z" fill="#263238"/>
<path d="M212.416 245.875C212.353 245.878 212.252 244.781 212.062 243.013C211.872 241.245 211.574 238.809 211.128 236.135C210.679 233.461 210.168 231.06 209.773 229.327C209.378 227.593 209.117 226.522 209.177 226.505C209.206 226.497 209.306 226.755 209.464 227.228C209.624 227.702 209.831 228.393 210.066 229.253C210.539 230.973 211.099 233.378 211.55 236.065C211.997 238.751 212.25 241.207 212.363 242.987C212.42 243.877 212.45 244.599 212.453 245.097C212.457 245.597 212.446 245.873 212.416 245.875Z" fill="#263238"/>
<path d="M194.651 269.532C194.636 269.532 194.623 269.387 194.614 269.11C194.609 268.785 194.603 268.386 194.596 267.902C194.585 266.853 194.591 265.335 194.626 263.459C194.688 259.708 194.86 254.527 195.161 248.811C195.457 243.093 195.825 237.923 196.127 234.184C196.28 232.314 196.417 230.803 196.523 229.759C196.578 229.278 196.622 228.881 196.658 228.558C196.693 228.284 196.721 228.141 196.735 228.142C196.75 228.143 196.753 228.289 196.744 228.566C196.73 228.89 196.712 229.289 196.689 229.773C196.624 230.884 196.536 232.383 196.429 234.207C196.21 238.009 195.915 243.151 195.588 248.835C195.288 254.548 195.069 259.723 194.928 263.469C194.86 265.295 194.803 266.794 194.762 267.907C194.738 268.39 194.718 268.789 194.701 269.114C194.683 269.387 194.665 269.532 194.651 269.532Z" fill="#263238"/>
<path d="M180.209 228.141C180.266 228.151 180.177 228.953 179.963 230.238C179.749 231.522 179.403 233.289 178.951 235.224C178.497 237.159 178.022 238.896 177.643 240.142C177.264 241.389 176.987 242.145 176.932 242.13C176.874 242.113 177.048 241.326 177.351 240.063C177.69 238.652 178.091 236.978 178.534 235.127C178.959 233.272 179.342 231.595 179.666 230.18C179.955 228.912 180.149 228.13 180.209 228.141Z" fill="#263238"/>
<path d="M154.098 215.589C154.192 215.66 152.583 217.942 150.504 220.684C148.425 223.427 146.663 225.592 146.569 225.521C146.475 225.449 148.084 223.169 150.164 220.425C152.241 217.683 154.003 215.517 154.098 215.589Z" fill="#263238"/>
<path d="M140.399 206.381C140.488 206.459 135.391 212.448 129.015 219.755C122.638 227.066 117.396 232.928 117.307 232.85C117.219 232.772 122.315 226.785 128.693 219.474C135.068 212.166 140.31 206.303 140.399 206.381Z" fill="#263238"/>
<path d="M133.545 196.189C133.619 196.28 130.784 198.742 127.21 201.688C123.636 204.636 120.679 206.95 120.604 206.859C120.529 206.767 123.364 204.305 126.938 201.358C130.511 198.412 133.469 196.098 133.545 196.189Z" fill="#263238"/>
<path d="M125.525 180.809C125.577 180.916 118.476 184.445 109.669 188.691C100.858 192.939 93.6767 196.296 93.6258 196.189C93.5748 196.082 100.673 192.554 109.483 188.306C118.291 184.059 125.474 180.703 125.525 180.809Z" fill="#263238"/>
<path d="M122.303 173.138C122.308 173.167 122.045 173.243 121.565 173.357C121.085 173.472 120.386 173.616 119.519 173.776C117.785 174.098 115.373 174.464 112.694 174.734C110.014 175.001 107.578 175.12 105.814 175.149C104.932 175.164 104.219 175.161 103.725 175.143C103.232 175.128 102.96 175.105 102.959 175.075C102.958 175.012 104.046 174.952 105.802 174.846C107.558 174.74 109.981 174.574 112.651 174.308C115.32 174.04 117.727 173.722 119.469 173.478C121.213 173.234 122.291 173.077 122.303 173.138Z" fill="#263238"/>
<path d="M119.702 155.432C119.699 155.462 119.188 155.449 118.264 155.401C117.271 155.35 115.954 155.282 114.358 155.2C111.06 155.04 106.5 154.89 101.463 154.914C96.4242 154.943 91.8661 155.143 88.5697 155.338C86.9753 155.438 85.6585 155.519 84.6654 155.581C83.7438 155.639 83.2321 155.657 83.2288 155.628C83.2263 155.598 83.7323 155.524 84.6507 155.415C85.569 155.303 86.9006 155.172 88.5483 155.036C91.8439 154.763 96.4102 154.515 101.46 154.485C106.507 154.46 111.076 154.659 114.374 154.897C116.023 155.015 117.357 155.132 118.276 155.234C119.197 155.334 119.704 155.403 119.702 155.432Z" fill="#263238"/>
<path d="M121.315 139.88C121.283 139.995 115.964 138.609 109.437 136.786C102.906 134.963 97.6401 133.394 97.6713 133.28C97.7033 133.165 103.021 134.551 109.552 136.374C116.079 138.197 121.347 139.767 121.315 139.88Z" fill="#263238"/>
<path d="M124.753 126.842C124.748 126.856 124.615 126.826 124.365 126.755C124.068 126.665 123.71 126.556 123.278 126.425C122.336 126.135 120.986 125.674 119.329 125.071C116.015 123.867 111.498 122.024 106.667 119.647C101.838 117.264 97.6233 114.805 94.6489 112.911C93.1613 111.965 91.9735 111.174 91.1685 110.604C90.8013 110.341 90.4974 110.124 90.2452 109.944C90.0366 109.789 89.9314 109.701 89.9397 109.689C89.9479 109.677 90.0694 109.74 90.2929 109.872C90.5565 110.034 90.8753 110.23 91.2597 110.466C92.0918 110.992 93.3026 111.743 94.8074 112.653C97.8163 114.478 102.041 116.887 106.855 119.262C111.671 121.632 116.156 123.514 119.435 124.788C121.074 125.426 122.407 125.929 123.332 126.268C123.753 126.429 124.102 126.563 124.391 126.673C124.633 126.771 124.758 126.828 124.753 126.842Z" fill="#263238"/>
<path d="M132.485 113.735C132.417 113.832 128.259 111.019 123.198 107.454C118.135 103.887 114.088 100.918 114.156 100.821C114.225 100.724 118.382 103.537 123.444 107.103C128.505 110.669 132.553 113.639 132.485 113.735Z" fill="#263238"/>
<path d="M116.143 73.7874C116.152 73.7767 116.259 73.8556 116.454 74.0151C116.683 74.2115 116.958 74.4473 117.289 74.7309C118.056 75.4105 119.077 76.3162 120.315 77.4133C122.91 79.73 126.403 82.8481 130.265 86.2948C134.143 89.7251 137.65 92.8292 140.256 95.1336C141.491 96.234 142.51 97.1413 143.275 97.8226C143.596 98.1176 143.862 98.3634 144.083 98.568C144.265 98.7422 144.356 98.8392 144.346 98.8499C144.336 98.8614 144.227 98.7866 144.027 98.6337C143.791 98.4455 143.507 98.2204 143.166 97.9492C142.423 97.3476 141.361 96.4649 140.057 95.3629C137.448 93.1595 133.876 90.0769 129.98 86.6153C126.085 83.1538 122.604 79.97 120.109 77.6377C118.862 76.4715 117.859 75.5198 117.175 74.8541C116.865 74.5476 116.608 74.292 116.394 74.0792C116.22 73.8984 116.133 73.7981 116.143 73.7874Z" fill="#263238"/>
<path d="M141.767 74.5345C141.79 74.5156 141.988 74.7194 142.326 75.1032C142.664 75.4861 143.137 76.0548 143.709 76.7682C144.852 78.1941 146.374 80.2125 147.948 82.5152C149.523 84.8196 150.851 86.9703 151.765 88.554C152.222 89.3454 152.58 89.993 152.814 90.4475C153.049 90.902 153.167 91.16 153.141 91.174C153.087 91.2052 152.484 90.2494 151.507 88.711C150.529 87.1709 149.165 85.0538 147.596 82.7568C146.026 80.4615 144.549 78.4217 143.469 76.9523C142.39 75.482 141.719 74.5739 141.767 74.5345Z" fill="#263238"/>
<g opacity="0.2">
<path d="M108.937 67.5464L144.672 98.8507L153.555 91.7394L132.818 59.9486C132.818 59.9486 131.229 61.1181 127.1 62.2982C123.1 63.4422 111.322 63.748 108.937 67.5464Z" fill="black"/>
</g>
<g opacity="0.2">
<path d="M148.714 41.0655L166.165 84.7637L177.314 81.2685L173.599 43.3683C173.599 43.3683 171.679 43.8178 167.419 43.2762C163.292 42.7511 153.274 38.8326 148.714 41.0655Z" fill="black"/>
</g>
<g opacity="0.3">
<path d="M195.242 31.9153L196.412 79.3693L206.865 79.8715L217.448 43.4505C217.246 43.4324 214.515 42.9599 211.294 40.9004C207.674 38.5869 200.304 31.5381 195.242 31.9153Z" fill="black"/>
</g>
<g opacity="0.2">
<path d="M240.814 40.8806L223.473 84.6281L232.914 89.1441L256.778 59.6725C256.599 59.578 254.337 57.6935 252.246 54.3413C249.972 50.6949 246.097 42.341 240.814 40.8806Z" fill="black"/>
</g>
<g opacity="0.2">
<path d="M281.54 68.1801L249.24 101.856L256.438 111.562L287.998 90.4878C287.998 90.4878 286.672 88.3855 285.922 84.3397C285.162 80.247 285.052 72.7897 281.54 68.1801Z" fill="black"/>
</g>
<g opacity="0.2">
<path d="M307.036 106.196L263.541 124.106L267.15 135.224L304.991 131.116C304.991 131.116 304.755 129.945 305.252 125.678C305.734 121.543 310.074 112.309 307.036 106.196Z" fill="black"/>
</g>
<g opacity="0.2">
<path d="M316.661 153.603L269.245 155.264L268.851 165.726L305.023 176.314C305.038 176.112 305.361 174.068 306.457 171.994C309.12 166.956 316.661 159.852 316.661 153.603Z" fill="black"/>
</g>
<g opacity="0.2">
<path d="M307.927 198.462L264.268 181.437L259.852 190.929L289.554 214.498C289.647 214.318 291.382 212.71 294.71 210.583C298.332 208.27 306.923 204.534 307.927 198.462Z" fill="black"/>
</g>
<g opacity="0.2">
<path d="M243.711 197.785L232.905 206.859C233.723 207.715 248.126 232.204 256.999 247.343C257.122 247.254 257.236 247.149 257.361 247.065C263.206 243.15 273.604 244.719 279.466 240.848L243.711 197.785Z" fill="black"/>
<path d="M223.854 214.948L207.719 220.452L215.359 264.275C215.862 264.099 216.368 263.954 216.878 263.853C224.486 262.348 234.514 268.974 241.515 266.07C242.477 265.67 243.347 265.099 244.159 264.417L223.854 214.948Z" fill="black"/>
<path d="M194.392 275.283L196.97 218.034L183.021 214.498L172.641 263.79C172.77 263.81 172.898 263.828 173.026 263.852C180.232 265.279 186.817 274.826 194.392 275.283Z" fill="black"/>
<path d="M159.316 208.315C159.316 208.315 140.882 233.017 131.245 246.32C131.696 246.545 132.13 246.79 132.54 247.065C138.871 251.305 141.265 263.115 148.388 266.07C148.715 266.205 149.05 266.314 149.389 266.41L175.14 217.643L159.316 208.315Z" fill="black"/>
<path d="M140.399 188.425L101.086 215.459C101.236 215.654 101.401 215.841 101.536 216.044C105.807 222.426 103.529 234.248 108.937 239.659C109.435 240.157 110.002 240.572 110.599 240.95C124.491 225.284 149.429 197.166 150.333 196.189L140.399 188.425Z" fill="black"/>
<path d="M131.392 169.124L84.9111 176.635C85.6512 184.094 79.7747 193.516 82.5405 200.189C82.7097 200.597 82.9151 200.985 83.1393 201.364C99.4052 193.261 133.391 176.407 134.805 176.314L131.392 169.124Z" fill="black"/>
<path d="M128.854 143.221L84.9145 130.535C84.8776 130.917 84.8291 131.296 84.7552 131.667C83.2947 139.055 73.3086 145.788 73.3086 153.604C73.3086 154.128 73.3571 154.648 73.4408 155.163H127.074L128.854 143.221Z" fill="black"/>
<path d="M82.7178 106.668C99.1365 115.472 131.246 133.28 131.246 133.28L139.148 118.266L102.03 90.307C101.872 90.5971 101.717 90.8913 101.535 91.1625C97.3696 97.3878 85.9123 99.8196 82.7178 106.668Z" fill="black"/>
</g>
<path d="M316.594 153.603C316.594 153.603 316.574 153.428 316.542 153.083C316.498 152.74 316.514 152.216 316.325 151.555C316.067 150.213 315.317 148.286 313.864 146.045C312.453 143.774 310.315 141.241 308.086 138.025C306.999 136.408 305.869 134.583 305.265 132.392C304.663 130.198 304.778 127.727 305.25 125.236C305.704 122.731 306.45 120.15 307.103 117.412C307.707 114.69 308.358 111.716 307.751 108.689C307.428 107.194 306.718 105.768 305.709 104.53C304.69 103.295 303.409 102.258 302.056 101.286C299.33 99.3504 296.198 97.8004 293.197 95.7812C291.706 94.767 290.224 93.6378 289.006 92.1963C287.774 90.759 286.977 88.9666 286.439 87.1125C285.382 83.3757 285.15 79.3758 284.347 75.3809C283.938 73.3929 283.385 71.372 282.324 69.5805C281.286 67.7741 279.606 66.377 277.645 65.5305C275.689 64.6618 273.538 64.2115 271.364 63.8507C269.184 63.4924 266.955 63.2384 264.714 62.8407C262.483 62.4396 260.196 61.9103 258.13 60.7664C256.051 59.6306 254.428 57.8045 253.066 55.86C251.703 53.9 250.531 51.7961 249.282 49.7193C248.032 47.6492 246.718 45.5675 245.012 43.7981C243.309 42.0451 241.038 40.7836 238.534 40.6192C236.04 40.4335 233.513 40.911 231.023 41.5019C228.525 42.1018 226.026 42.8316 223.436 43.3181C220.868 43.8195 218.106 43.9961 215.503 43.1694C212.939 42.2785 210.677 40.7228 208.494 39.1202C206.307 37.5103 204.171 35.7951 201.828 34.3717C199.498 32.9943 196.837 31.8462 194.07 32.1569L193.556 32.1963C193.387 32.2251 193.22 32.2695 193.051 32.3048C192.716 32.3845 192.375 32.4462 192.043 32.5399C191.393 32.7798 190.725 32.9746 190.104 33.2992C188.828 33.8663 187.64 34.6347 186.463 35.4138C184.123 37.0098 181.918 38.8425 179.521 40.4705C178.336 41.3014 177.067 42.0303 175.741 42.6574C174.4 43.2622 172.943 43.6271 171.463 43.7389C168.49 43.8844 165.566 43.2129 162.701 42.4897C159.829 41.7698 156.955 40.9447 153.992 40.6603C152.513 40.5362 151.015 40.5987 149.581 40.957C148.136 41.3047 146.855 42.1257 145.718 43.0806C143.453 45.0588 141.869 47.7198 140.294 50.3365C138.724 52.968 137.232 55.7121 135.145 58.0741C134.093 59.2337 132.876 60.2913 131.45 61.0072C130.025 61.7074 128.505 62.1758 126.967 62.539C123.88 63.2171 120.725 63.5072 117.617 64.0701C114.543 64.629 111.345 65.5034 109.065 67.7133C107.969 68.84 107.2 70.2503 106.637 71.732C106.061 73.2162 105.731 74.795 105.439 76.377C104.864 79.5476 104.598 82.8037 103.83 86.0047C103.465 87.6048 102.915 89.1893 102.082 90.6349C101.248 92.0797 100.091 93.3329 98.7899 94.3619C96.1942 96.4493 93.242 97.9943 90.422 99.7218C89.0157 100.592 87.6267 101.498 86.3485 102.544C85.0901 103.605 83.9467 104.823 83.163 106.261C82.3687 107.691 82.0056 109.341 82.0188 110.997C82.013 112.654 82.2611 114.313 82.5954 115.956C83.2904 119.241 84.3328 122.477 84.8889 125.854C85.1788 127.537 85.2831 129.277 85.0581 130.996C84.8371 132.722 84.1709 134.361 83.3421 135.869C81.6311 138.873 79.3968 141.506 77.4163 144.303C76.4158 145.694 75.4925 147.145 74.7672 148.688C74.0468 150.226 73.5367 151.885 73.5244 153.584C73.5351 155.284 74.0337 156.945 74.7516 158.486C75.472 160.032 76.3978 161.482 77.3966 162.875C79.3754 165.674 81.613 168.306 83.3265 171.31C84.1578 172.817 84.8281 174.454 85.0556 176.18C85.2864 177.899 85.1838 179.641 84.8938 181.324C84.3418 184.704 83.2969 187.941 82.602 191.227C82.2677 192.869 82.0163 194.529 82.0188 196.186C82.0007 197.843 82.3663 199.493 83.154 200.927C83.9335 202.367 85.0761 203.588 86.3338 204.65C87.6127 205.696 88.9993 206.605 90.4064 207.475C93.228 209.203 96.1802 210.749 98.7784 212.834C100.079 213.864 101.239 215.114 102.076 216.558C102.912 218.003 103.461 219.588 103.828 221.187C104.598 224.388 104.863 227.646 105.438 230.816C105.728 232.399 106.06 233.978 106.635 235.463C107.198 236.945 107.962 238.358 109.06 239.485C111.337 241.699 114.537 242.574 117.61 243.134C120.72 243.698 123.875 243.988 126.963 244.665C128.502 245.028 130.021 245.496 131.447 246.195C132.873 246.912 134.091 247.969 135.144 249.128C137.231 251.49 138.723 254.235 140.294 256.867C141.87 259.483 143.453 262.145 145.719 264.124C146.856 265.079 148.137 265.9 149.583 266.249C151.017 266.607 152.515 266.67 153.994 266.545C156.958 266.26 159.832 265.435 162.704 264.715C165.57 263.992 168.494 263.321 171.468 263.467C172.948 263.579 174.405 263.945 175.746 264.55C177.072 265.178 178.341 265.907 179.526 266.738C181.923 268.367 184.128 270.199 186.468 271.795C187.646 272.574 188.834 273.343 190.111 273.909C190.732 274.234 191.4 274.428 192.051 274.668C192.383 274.761 192.723 274.824 193.059 274.903C193.227 274.939 193.395 274.984 193.564 275.012L194.077 275.051C196.845 275.361 199.505 274.21 201.836 272.833C204.178 271.408 206.315 269.694 208.501 268.083C210.686 266.481 212.946 264.924 215.512 264.036C218.116 263.21 220.877 263.389 223.446 263.891C226.036 264.377 228.535 265.108 231.032 265.708C233.524 266.298 236.051 266.775 238.544 266.588C241.048 266.42 243.319 265.158 245.021 263.403C246.725 261.633 248.039 259.55 249.289 257.48C250.537 255.403 251.709 253.3 253.073 251.339C254.436 249.396 256.061 247.57 258.14 246.436C260.207 245.294 262.496 244.767 264.726 244.366C266.967 243.968 269.195 243.714 271.375 243.356C273.55 242.994 275.7 242.544 277.656 241.674C279.616 240.826 281.295 239.426 282.331 237.619C283.391 235.826 283.943 233.806 284.351 231.818C285.153 227.823 285.385 223.822 286.443 220.087C286.981 218.233 287.781 216.441 289.014 215.005C290.233 213.564 291.715 212.436 293.207 211.422C296.209 209.404 299.34 207.853 302.065 205.918C303.418 204.945 304.697 203.907 305.717 202.673C306.725 201.434 307.433 200.007 307.754 198.512C308.104 197.016 308.013 195.49 307.88 194.034C307.735 192.569 307.407 191.162 307.104 189.789C306.45 187.053 305.704 184.472 305.251 181.967C304.779 179.476 304.666 177.006 305.268 174.812C305.873 172.622 307.003 170.797 308.09 169.18C310.319 165.965 312.457 163.432 313.867 161.162C315.32 158.921 316.071 156.994 316.328 155.653C316.516 154.991 316.5 154.468 316.544 154.125C316.573 153.778 316.594 153.603 316.594 153.603C316.594 153.603 316.587 153.778 316.564 154.124C316.527 154.469 316.551 154.995 316.369 155.66C316.125 157.01 315.383 158.952 313.938 161.206C312.536 163.49 310.405 166.037 308.193 169.25C307.116 170.865 305.998 172.685 305.409 174.848C304.821 177.013 304.937 179.456 305.414 181.936C305.871 184.428 306.622 187.003 307.283 189.745C307.59 191.121 307.921 192.532 308.072 194.011C308.21 195.48 308.306 197.024 307.953 198.552C307.628 200.079 306.904 201.544 305.88 202.806C304.845 204.064 303.553 205.115 302.192 206.097C299.451 208.049 296.318 209.607 293.339 211.619C291.858 212.628 290.394 213.748 289.202 215.162C287.998 216.568 287.218 218.32 286.688 220.156C285.645 223.853 285.417 227.848 284.617 231.87C284.208 233.873 283.654 235.921 282.57 237.76C281.512 239.616 279.769 241.07 277.772 241.935C275.776 242.825 273.605 243.28 271.422 243.646C269.233 244.009 267.005 244.266 264.778 244.663C262.56 245.064 260.301 245.591 258.289 246.707C256.27 247.81 254.681 249.592 253.332 251.521C251.982 253.464 250.814 255.563 249.565 257.646C248.313 259.723 246.992 261.825 245.255 263.634C243.528 265.429 241.15 266.752 238.573 266.923C236.012 267.117 233.456 266.632 230.952 266.042C228.444 265.441 225.947 264.714 223.382 264.234C220.833 263.738 218.138 263.574 215.622 264.373C213.128 265.239 210.889 266.775 208.715 268.374C206.536 269.981 204.395 271.702 202.024 273.147C201.413 273.478 200.829 273.861 200.185 274.136C199.867 274.281 199.554 274.441 199.231 274.574L198.237 274.926C196.898 275.333 195.465 275.607 194.043 275.421L193.509 275.379C193.333 275.351 193.16 275.305 192.986 275.268C192.64 275.187 192.287 275.122 191.944 275.026C191.276 274.781 190.587 274.58 189.954 274.249C188.648 273.67 187.447 272.892 186.256 272.107C183.897 270.499 181.688 268.666 179.312 267.053C178.136 266.229 176.886 265.514 175.589 264.9C174.278 264.311 172.879 263.962 171.443 263.852C168.551 263.711 165.657 264.37 162.799 265.094C159.934 265.812 157.046 266.647 154.027 266.938C152.519 267.065 150.974 267.005 149.479 266.632C147.97 266.268 146.629 265.411 145.458 264.426C143.122 262.385 141.53 259.695 139.948 257.072C138.375 254.437 136.884 251.708 134.842 249.4C133.81 248.266 132.638 247.251 131.261 246.559C129.878 245.881 128.389 245.421 126.872 245.064C123.82 244.395 120.67 244.105 117.535 243.538C115.973 243.236 114.395 242.913 112.891 242.317C111.389 241.736 109.94 240.931 108.764 239.776C107.613 238.595 106.822 237.127 106.244 235.609C105.655 234.085 105.32 232.486 105.026 230.89C104.446 227.694 104.18 224.442 103.419 221.285C103.056 219.706 102.518 218.16 101.711 216.768C100.904 215.378 99.7896 214.171 98.5106 213.159C95.9617 211.112 93.0202 209.569 90.1838 207.834C88.7676 206.958 87.3655 206.041 86.061 204.975C84.7771 203.89 83.5943 202.633 82.7786 201.126C81.9531 199.627 81.5736 197.89 81.5925 196.19C81.5892 194.484 81.8463 192.797 82.1839 191.138C82.8862 187.823 83.9278 184.59 84.4716 181.256C84.7574 179.595 84.8535 177.896 84.6318 176.237C84.4133 174.577 83.7692 172.998 82.9527 171.517C81.2705 168.566 79.0411 165.939 77.0475 163.121C76.0421 161.719 75.1024 160.249 74.3639 158.665C73.6287 157.087 73.1071 155.364 73.0964 153.583C73.1096 151.8 73.6419 150.081 74.3795 148.506C75.1221 146.926 76.0601 145.456 77.0672 144.055C79.0625 141.241 81.2885 138.613 82.9684 135.661C83.7824 134.179 84.4223 132.599 84.635 130.939C84.8519 129.281 84.7541 127.582 84.4675 125.922C83.9204 122.59 82.8796 119.357 82.179 116.043C81.8422 114.384 81.5875 112.697 81.5941 110.992C81.5793 109.293 81.9572 107.555 82.7893 106.059C83.6091 104.556 84.7936 103.3 86.0783 102.218C87.3819 101.151 88.7857 100.236 90.201 99.361C93.0358 97.6262 95.9773 96.0836 98.5237 94.0356C99.8027 93.0239 100.915 91.815 101.719 90.4237C102.522 89.0298 103.062 87.4848 103.423 85.9061C104.182 82.7503 104.449 79.4991 105.029 76.3038C105.324 74.7087 105.658 73.1094 106.248 71.5865C106.826 70.0678 107.62 68.6025 108.771 67.4215C109.948 66.2685 111.398 65.4656 112.9 64.8854C114.404 64.2912 115.981 63.9674 117.543 63.6658C120.678 63.0995 123.826 62.8102 126.878 62.1405C128.395 61.783 129.883 61.3227 131.265 60.6447C132.643 59.9528 133.812 58.937 134.844 57.8037C136.886 55.496 138.376 52.7667 139.948 50.1319C141.53 47.5095 143.123 44.8204 145.458 42.7798C146.629 41.7953 147.97 40.9389 149.479 40.5749C150.974 40.2018 152.518 40.1418 154.026 40.2683C157.045 40.5601 159.932 41.3942 162.796 42.1125C165.655 42.8365 168.548 43.4956 171.439 43.3551C172.875 43.245 174.274 42.8974 175.585 42.3081C176.881 41.695 178.131 40.98 179.308 40.1557C181.683 38.5433 183.892 36.7106 186.251 35.1031C187.441 34.3167 188.643 33.54 189.948 32.9606C190.581 32.6303 191.27 32.4281 191.937 32.1832C192.28 32.0862 192.632 32.0221 192.979 31.9399C193.153 31.9029 193.326 31.8577 193.501 31.8282L194.035 31.7862C195.458 31.5997 196.891 31.8734 198.23 32.2785L199.223 32.6311C199.548 32.7634 199.859 32.9237 200.178 33.0683C200.823 33.3436 201.407 33.7258 202.017 34.0561C204.389 35.5001 206.529 37.2218 208.708 38.8285C210.882 40.4286 213.12 41.9638 215.614 42.8308C218.129 43.6312 220.824 43.4693 223.373 42.973C225.938 42.493 228.435 41.7673 230.943 41.1658C233.446 40.5757 236.002 40.0892 238.563 40.2815C241.14 40.4483 243.518 41.7723 245.247 43.5639C246.985 45.3719 248.307 47.4733 249.559 49.5509C250.808 51.6342 251.976 53.7332 253.325 55.676C254.673 57.6056 256.262 59.3882 258.279 60.4927C260.29 61.6096 262.55 62.1396 264.767 62.5399C266.994 62.9376 269.222 63.194 271.411 63.5565C273.594 63.9222 275.765 64.3766 277.761 65.265C279.759 66.128 281.503 67.581 282.564 69.435C283.649 71.2734 284.203 73.3214 284.613 75.3234C285.414 79.3454 285.642 83.3395 286.683 87.0386C287.214 88.8745 287.993 90.6275 289.194 92.0344C290.386 93.4488 291.849 94.5698 293.33 95.5798C296.308 97.5925 299.442 99.149 302.183 101.102C303.544 102.083 304.837 103.133 305.872 104.391C306.897 105.653 307.622 107.117 307.948 108.644C308.303 110.172 308.206 111.716 308.069 113.186C307.92 114.664 307.589 116.076 307.281 117.452C306.62 120.194 305.869 122.769 305.412 125.262C304.935 127.741 304.818 130.185 305.405 132.35C305.994 134.514 307.111 136.334 308.189 137.95C310.401 141.164 312.533 143.711 313.935 145.996C315.38 148.25 316.123 150.193 316.367 151.542C316.548 152.208 316.525 152.734 316.562 153.078C316.588 153.428 316.594 153.603 316.594 153.603Z" fill="#263238"/>
<path d="M172.136 266.54C172.25 266.568 169.218 278.868 165.364 294.007C161.509 309.151 158.292 321.4 158.177 321.37C158.063 321.341 161.094 309.045 164.949 293.901C168.803 278.763 172.022 266.511 172.136 266.54Z" fill="#263238"/>
<path d="M194.951 228.206C236.133 228.206 269.517 194.805 269.517 153.603C269.517 112.402 236.133 79.0011 194.951 79.0011C153.77 79.0011 120.385 112.402 120.385 153.603C120.385 194.805 153.77 228.206 194.951 228.206Z" fill="white"/>
<path d="M149.038 127.754C148.009 128.782 142.354 139.068 141.84 147.555C141.326 156.041 142.545 203.7 142.545 203.7L142.765 206.859C156.19 222.565 204.979 245.936 248.928 206.78L251.391 177.467L244.139 115.411L218.95 109.239L213.043 99.6602L173.676 108.881L170.165 117.186L149.038 127.754Z" fill="#455A64"/>
<path d="M210.313 74.707C212.046 68.2598 213.751 61.7665 214.351 55.1171C214.95 48.4677 214.395 41.5972 211.752 35.4672C211.351 34.5377 208.023 28.337 207.023 28.4874C206.307 28.5959 208.461 34.4292 208.13 35.0727C204.969 41.2093 204.396 48.4233 205.304 55.2659C206.211 62.11 207.959 68.2187 210.313 74.707Z" fill="#263238"/>
<path d="M209.66 49.2353C209.342 32.4947 199.339 18.7266 182.623 19.5081L181.082 19.67C165.577 21.3055 153.921 34.5739 154.304 50.1681C154.66 64.6758 155.239 80.7014 156.148 88.4094C158.028 104.365 174.263 105.166 174.263 105.166C174.299 105.164 175.007 115.66 175.007 115.66L181.868 123.116L213.666 103.411L209.66 49.2353Z" fill="#FFD1BA"/>
<path d="M174.263 105.289C174.263 105.289 184.391 104.818 194.408 96.9457C194.408 96.9457 191.053 111.418 174.966 111.66L174.263 105.289Z" fill="#F1B18F"/>
<path d="M163.49 63.1825C163.574 64.3914 164.668 65.3176 165.931 65.2527C167.193 65.1878 168.15 64.1572 168.065 62.9475C167.981 61.7386 166.888 60.8107 165.626 60.8757C164.362 60.9406 163.405 61.9736 163.49 63.1825Z" fill="#263238"/>
<path d="M158.416 56.4394C158.73 56.7073 160.323 55.2453 162.778 54.993C165.226 54.7054 167.16 55.7787 167.395 55.4499C167.512 55.3037 167.167 54.7966 166.323 54.3076C165.491 53.8203 164.116 53.4061 162.588 53.5737C161.061 53.7438 159.834 54.4416 159.155 55.0966C158.461 55.7557 158.262 56.3211 158.416 56.4394Z" fill="#263238"/>
<path d="M185.17 61.34C185.255 62.5489 186.348 63.4751 187.612 63.4102C188.874 63.3453 189.831 62.3147 189.746 61.1049C189.661 59.896 188.568 58.969 187.306 59.0331C186.042 59.0989 185.086 60.1311 185.17 61.34Z" fill="#263238"/>
<path d="M182.558 54.8977C182.873 55.1648 184.468 53.7036 186.922 53.4513C189.37 53.1645 191.304 54.2369 191.539 53.9082C191.655 53.7611 191.314 53.2549 190.466 52.7667C189.635 52.2785 188.259 51.8643 186.731 52.032C185.203 52.2021 183.977 52.9006 183.298 53.5548C182.607 54.2139 182.406 54.7793 182.558 54.8977Z" fill="#263238"/>
<path d="M175.743 74.693C175.74 74.5525 174.186 74.449 171.681 74.3939C171.048 74.3955 170.442 74.3331 170.29 73.9164C170.095 73.4792 170.286 72.7757 170.513 72.0139C170.943 70.4352 171.392 68.7792 171.863 67.0443C173.721 59.9758 174.995 54.1901 174.71 54.1178C174.424 54.0455 172.687 59.7161 170.83 66.7846C170.387 68.5261 169.963 70.1861 169.561 71.7747C169.399 72.5119 169.076 73.3633 169.495 74.2698C169.713 74.721 170.209 75.0119 170.622 75.0785C171.037 75.1582 171.39 75.1286 171.702 75.1138C174.204 74.9848 175.749 74.8336 175.743 74.693Z" fill="#263238"/>
<path d="M183.145 75.6291C182.743 75.648 183.018 78.314 180.938 80.4458C178.862 82.5834 175.991 82.5834 176.009 82.9582C175.99 83.1291 176.696 83.4094 177.898 83.3157C179.078 83.2318 180.755 82.6722 182.029 81.3688C183.297 80.0612 183.732 78.4513 183.708 77.3484C183.692 76.2233 183.325 75.5946 183.145 75.6291Z" fill="#263238"/>
<path d="M181.644 44.9206C181.956 45.5634 184.374 44.988 187.289 45.0316C190.206 45.0168 192.617 45.6152 192.936 44.9765C193.075 44.6723 192.605 44.0862 191.597 43.5387C190.599 42.9912 189.05 42.5341 187.301 42.5242C185.553 42.5177 183.998 42.9591 182.995 43.4968C181.983 44.0336 181.507 44.6148 181.644 44.9206Z" fill="#263238"/>
<path d="M158.569 48.171C159.06 48.683 160.69 47.9261 162.719 47.6845C164.74 47.3722 166.513 47.6631 166.848 47.0377C166.992 46.7369 166.661 46.2068 165.854 45.7581C165.057 45.3102 163.772 45.0111 162.379 45.2009C160.987 45.3924 159.83 46.0252 159.183 46.672C158.526 47.3196 158.351 47.9187 158.569 48.171Z" fill="#263238"/>
<path d="M209.602 61.2036C209.862 61.0573 220.233 56.7994 221.035 67.7593C221.837 78.7192 210.673 77.2637 210.632 76.9514C210.59 76.6383 209.602 61.2036 209.602 61.2036Z" fill="#FFD1BA"/>
<path d="M213.674 72.5547C213.719 72.516 213.876 72.6738 214.208 72.7979C214.533 72.9196 215.081 72.9787 215.637 72.7231C216.763 72.2136 217.603 70.3045 217.511 68.3247C217.466 67.3254 217.187 66.391 216.777 65.6308C216.383 64.8533 215.824 64.3315 215.234 64.2698C214.644 64.1786 214.257 64.5575 214.147 64.8755C214.023 65.1927 214.108 65.4064 214.05 65.4294C214.022 65.459 213.802 65.2634 213.857 64.804C213.886 64.5829 213.995 64.315 214.238 64.0857C214.485 63.8532 214.864 63.7151 215.273 63.7299C216.122 63.7266 216.939 64.4482 217.39 65.2831C217.889 66.1189 218.225 67.1668 218.276 68.2902C218.367 70.5034 217.388 72.6533 215.838 73.2269C215.082 73.485 214.423 73.2992 214.072 73.065C213.713 72.8176 213.637 72.5769 213.674 72.5547Z" fill="#F1B18F"/>
<path d="M160.226 31.5438C158.39 30.6792 163.344 24.5887 167.576 22.3287C173.972 18.9131 183.915 16.4238 190.101 17.7568C197.548 19.3602 203.859 22.6105 207.96 29.0339C212.06 35.4573 213.94 43.1291 214.216 50.7458C214.299 53.0699 214.215 55.5042 213.103 57.5456C211.727 60.0686 208.888 61.7854 209.232 65.1212C209.358 66.3408 209.088 67.5966 208.309 68.5425C206.441 70.8066 203.858 68.9583 202.601 67.0205C199.915 62.8801 199.317 57.7692 198.788 52.862C198.412 49.3742 198.041 45.8107 198.811 42.3878C199.229 40.5256 199.979 38.743 200.294 36.8602C200.609 34.9774 200.417 32.876 199.165 31.4353C198.962 31.2011 198.631 30.9102 198.217 30.5913C194.937 28.0691 190.54 27.5341 186.737 29.1621C180.705 31.7443 170.374 35.6866 167.486 33.7677C163.331 31.008 162.258 29.103 162.258 29.103L160.226 31.5438Z" fill="#263238"/>
<path d="M149.037 127.754C148.402 128.633 139.423 131.614 136.018 137.292C132.612 142.969 129.242 168.463 129.242 168.463L127.074 185.245C131.345 192.006 137.074 200.955 143.153 207.268L149.037 127.754Z" fill="#455A64"/>
<g opacity="0.3">
<path d="M216.497 152.367C216.875 155.788 217.261 159.246 218.438 162.48C219.614 165.714 221.676 168.751 224.685 170.416C225.946 171.114 227.368 171.574 228.423 172.555C229.556 173.61 230.127 175.139 231.153 176.299C232.347 177.648 234.065 178.399 235.762 178.999C240.784 180.779 245.732 181.628 251.057 181.437C251.218 179.678 251.23 173.217 251.391 171.458L216.497 152.367Z" fill="black"/>
</g>
<path d="M244.14 115.41C244.14 115.41 255.462 118.759 258.777 123.584C262.093 128.41 267.971 147.11 269.177 150.578C270.383 154.046 269.328 162.089 267.067 167.87C264.806 173.651 260.882 178.628 254.102 179.382C247.321 180.135 236.612 176.214 234.204 173.651C231.796 171.087 230.788 165.333 230.788 165.333C233.798 164.804 236.771 164.058 239.675 163.103" fill="#455A64"/>
<path d="M239.675 163.103C239.677 163.108 239.629 163.128 239.534 163.164C239.422 163.205 239.283 163.255 239.107 163.318C238.728 163.448 238.162 163.636 237.415 163.861C235.922 164.309 233.703 164.916 230.808 165.443L230.899 165.314C231.153 166.595 231.519 168.001 232.055 169.47C232.324 170.203 232.635 170.956 233.035 171.692C233.436 172.422 233.904 173.165 234.552 173.758C235.201 174.348 236.003 174.828 236.842 175.268C237.678 175.722 238.578 176.112 239.506 176.493C241.369 177.244 243.384 177.891 245.521 178.398C247.657 178.893 249.927 179.259 252.276 179.267C252.864 179.293 253.451 179.214 254.045 179.184C254.63 179.087 255.23 179.034 255.81 178.869C256.985 178.602 258.138 178.164 259.211 177.549C261.378 176.345 263.214 174.477 264.607 172.279C266.019 170.085 267.052 167.596 267.814 164.995C268.405 162.997 268.839 160.977 269.122 158.968C269.409 156.961 269.549 154.956 269.417 153.008C269.341 152.027 269.16 151.107 268.829 150.195C268.523 149.275 268.221 148.363 267.921 147.461C267.319 145.66 266.73 143.896 266.155 142.175C264.989 138.74 263.839 135.489 262.687 132.479C261.513 129.483 260.418 126.665 259.046 124.313C258.377 123.131 257.46 122.203 256.49 121.452C255.538 120.679 254.55 120.064 253.611 119.52C251.723 118.446 250.006 117.685 248.594 117.093C247.178 116.506 246.06 116.097 245.299 115.827C244.934 115.699 244.648 115.598 244.432 115.522C244.238 115.453 244.137 115.416 244.14 115.409C244.142 115.402 244.246 115.424 244.445 115.48C244.664 115.546 244.956 115.634 245.326 115.745C246.097 115.988 247.227 116.373 248.655 116.938C250.081 117.508 251.815 118.25 253.728 119.312C254.68 119.849 255.683 120.461 256.659 121.238C257.646 121.986 258.612 122.95 259.305 124.156C260.718 126.541 261.825 129.35 263.018 132.35C264.188 135.362 265.352 138.612 266.528 142.047C267.108 143.767 267.702 145.53 268.309 147.331C268.609 148.232 268.913 149.142 269.221 150.06C269.556 150.972 269.761 151.984 269.834 152.975C269.972 154.971 269.831 156.998 269.543 159.027C269.258 161.058 268.821 163.096 268.224 165.116C267.454 167.746 266.406 170.272 264.964 172.509C263.541 174.75 261.652 176.672 259.414 177.91C258.305 178.542 257.113 178.992 255.904 179.263C255.305 179.431 254.689 179.486 254.087 179.583C253.479 179.613 252.875 179.691 252.276 179.663C249.88 179.648 247.589 179.267 245.434 178.76C243.28 178.24 241.253 177.578 239.376 176.811C238.441 176.421 237.534 176.022 236.688 175.557C235.838 175.102 235.027 174.614 234.341 173.984C233.658 173.349 233.185 172.579 232.78 171.829C232.376 171.073 232.069 170.307 231.802 169.562C231.272 168.07 230.92 166.656 230.678 165.354L230.657 165.243L230.769 165.224C233.659 164.73 235.88 164.16 237.381 163.749C238.112 163.54 238.68 163.378 239.088 163.262C239.267 163.21 239.409 163.17 239.524 163.137C239.624 163.109 239.674 163.098 239.675 163.103Z" fill="#263238"/>
<path d="M260.444 157.048C260.36 157.067 260.103 155.653 259.152 153.567C258.224 151.484 256.555 148.731 254.044 146.311C252.793 145.096 251.404 144.172 250.074 143.483C249.732 143.33 249.398 143.181 249.073 143.035C248.75 142.886 248.408 142.823 248.092 142.717C247.461 142.486 246.84 142.431 246.279 142.342C246.139 142.32 246.002 142.299 245.867 142.279C245.733 142.279 245.602 142.279 245.473 142.279C245.221 142.279 244.979 142.279 244.749 142.28C244.293 142.252 243.91 142.335 243.594 142.38C242.962 142.472 242.604 142.511 242.597 142.482C242.59 142.454 242.932 142.361 243.566 142.216C243.883 142.145 244.271 142.036 244.736 142.041C244.972 142.03 245.219 142.019 245.478 142.007C245.61 142.002 245.746 141.997 245.884 141.991C246.022 142.007 246.164 142.023 246.308 142.04C246.888 142.111 247.532 142.153 248.188 142.375C248.515 142.477 248.872 142.537 249.207 142.684C249.545 142.828 249.891 142.976 250.246 143.128C251.626 143.816 253.062 144.759 254.339 146.001C256.905 148.473 258.559 151.302 259.43 153.446C259.653 153.981 259.846 154.47 259.969 154.915C260.104 155.356 260.233 155.731 260.285 156.053C260.415 156.69 260.473 157.042 260.444 157.048Z" fill="#263238"/>
<path d="M266.621 146.886C266.529 146.922 266.221 145.43 264.915 143.436C263.636 141.476 261.189 139.016 257.7 137.973C254.224 136.914 250.851 137.242 248.495 137.468C247.374 137.601 246.431 137.715 245.68 137.804C245.015 137.886 244.644 137.92 244.639 137.89C244.634 137.861 244.996 137.772 245.654 137.64C246.312 137.509 247.268 137.334 248.458 137.168C250.816 136.866 254.238 136.476 257.826 137.565C259.606 138.106 261.169 139.018 262.391 140.06C263.628 141.092 264.528 142.248 265.169 143.275C265.808 144.307 266.174 145.225 266.377 145.868C266.584 146.51 266.643 146.881 266.621 146.886Z" fill="#263238"/>
<path d="M258.085 134.727C258.056 134.867 255.104 133.916 251.356 134.083C247.605 134.21 244.739 135.39 244.698 135.253C244.679 135.207 245.365 134.854 246.552 134.476C247.735 134.096 249.434 133.732 251.339 133.654C253.244 133.582 254.965 133.811 256.175 134.097C257.389 134.381 258.101 134.68 258.085 134.727Z" fill="#263238"/>
<path d="M239.768 118.237C239.836 118.247 239.672 119.392 239.54 121.248C239.408 123.103 239.346 125.678 239.601 128.501C239.833 131.218 240.324 133.652 240.758 135.423L240.462 135.518C240.126 134.568 239.861 133.797 239.688 133.261C239.514 132.724 239.432 132.422 239.461 132.411C239.49 132.4 239.627 132.681 239.85 133.2C240.072 133.718 240.381 134.473 240.753 135.409L240.457 135.504C239.949 133.739 239.408 131.285 239.174 128.54C238.917 125.686 239.028 123.083 239.238 121.222C239.342 120.291 239.463 119.541 239.565 119.027C239.668 118.513 239.739 118.232 239.768 118.237Z" fill="#263238"/>
<path d="M223.763 97.1511C223.763 97.1511 217.886 97.1511 217.149 104.216C216.583 109.64 217.149 114.905 217.149 117.28C217.149 119.655 216.104 128.101 216.104 128.101C216.104 128.101 212.094 131.66 212.162 135.934C212.231 140.229 215.284 141.542 215.284 141.542C215.284 141.542 213.418 145.614 216.979 149.346C216.979 149.346 215.272 153.286 216.675 155.939C217.762 157.993 220.201 158.678 220.201 158.678C220.201 158.678 218.464 162.56 222.633 164.193C225.098 165.157 228.741 164.943 228.741 164.943L233.125 164.858L236.99 166.992C236.99 166.992 243.603 164.107 243.774 160.205C243.943 156.303 243.943 156.303 243.943 156.303C243.943 156.303 242.077 149.856 241.908 147.82C241.739 145.784 243.434 140.864 242.417 138.658C241.399 136.453 237.838 135.157 238.177 132.072C238.516 128.988 237.838 127.291 236.312 125.595C234.785 123.898 228.04 120.505 228.04 120.505C228.04 120.505 226.306 115.585 226.306 112.191C226.307 108.797 229.698 98.448 223.763 97.1511Z" fill="#FFD1BA"/>
<path d="M227.722 121.79C227.751 121.841 227.127 122.242 226.095 122.846C225.063 123.451 223.622 124.261 222.018 125.133C220.413 126.005 218.948 126.773 217.879 127.31C216.809 127.846 216.132 128.153 216.104 128.101C216.076 128.049 216.701 127.649 217.733 127.044C218.766 126.439 220.206 125.63 221.81 124.759C223.413 123.888 224.876 123.12 225.947 122.583C227.015 122.046 227.692 121.739 227.722 121.79Z" fill="#F1B18F"/>
<path d="M231.579 135.074C231.597 135.098 231.414 135.26 231.067 135.534C230.722 135.81 230.2 136.18 229.537 136.61C228.213 137.471 226.286 138.524 224.031 139.391C221.772 140.253 219.634 140.756 218.074 141.001C217.294 141.124 216.659 141.197 216.218 141.222C215.778 141.25 215.533 141.252 215.53 141.222C215.522 141.154 216.487 141.023 218.019 140.703C219.552 140.386 221.648 139.843 223.878 138.991C226.105 138.136 228.028 137.14 229.381 136.351C230.733 135.565 231.539 135.019 231.579 135.074Z" fill="#F1B18F"/>
<path d="M236.624 130.849C236.731 130.886 236.511 131.641 235.814 132.271C235.122 132.906 234.351 133.055 234.324 132.946C234.283 132.829 234.911 132.523 235.526 131.954C236.148 131.396 236.511 130.798 236.624 130.849Z" fill="#F1B18F"/>
<path d="M234.205 146.711C234.222 146.762 233.294 147.139 231.746 147.611C230.199 148.085 228.026 148.63 225.586 149.024C223.145 149.415 220.91 149.58 219.293 149.616C217.676 149.653 216.676 149.586 216.676 149.533C216.676 149.468 217.673 149.428 219.279 149.313C220.884 149.201 223.096 148.99 225.518 148.602C227.939 148.21 230.106 147.717 231.665 147.32C233.225 146.924 234.184 146.65 234.205 146.711Z" fill="#F1B18F"/>
<path d="M239.571 145.733C239.513 145.698 239.771 145.249 240.022 144.475C240.276 143.706 240.489 142.583 240.343 141.361C240.197 140.137 239.726 139.096 239.298 138.409C238.87 137.715 238.515 137.34 238.563 137.292C238.596 137.254 239.035 137.556 239.548 138.238C240.061 138.912 240.612 140.002 240.768 141.31C240.924 142.618 240.645 143.808 240.306 144.582C239.967 145.365 239.612 145.762 239.571 145.733Z" fill="#F1B18F"/>
<path d="M234.509 158.607C234.519 158.66 233.729 158.883 232.421 159.101C231.114 159.319 229.284 159.508 227.257 159.504C225.23 159.497 223.401 159.298 222.095 159.072C220.788 158.847 219.999 158.619 220.01 158.567C220.022 158.504 220.83 158.626 222.137 158.772C223.444 158.92 225.254 159.069 227.258 159.076C229.261 159.08 231.072 158.941 232.38 158.801C233.687 158.661 234.496 158.543 234.509 158.607Z" fill="#F1B18F"/>
<path d="M224.08 112.288C224.104 112.333 223.814 112.554 223.265 112.751C222.72 112.948 221.904 113.086 221.014 112.982C220.125 112.874 219.364 112.548 218.88 112.229C218.392 111.909 218.162 111.626 218.197 111.587C218.271 111.481 219.389 112.374 221.065 112.557C222.736 112.774 224.033 112.167 224.08 112.288Z" fill="#F1B18F"/>
<path d="M240.792 146.231C240.817 146.228 240.866 146.452 240.886 146.865C240.899 147.279 240.845 147.879 240.683 148.598C240.524 149.317 240.253 150.148 239.994 151.065C239.748 151.978 239.508 153.012 239.687 154.057C239.828 155.097 240.606 155.941 240.729 156.997C240.867 158.035 240.457 158.915 240.083 159.539C239.692 160.172 239.299 160.621 239.022 160.922C238.742 161.221 238.571 161.37 238.55 161.352C238.484 161.301 239.114 160.631 239.82 159.389C240.149 158.77 240.483 157.949 240.338 157.053C240.239 156.161 239.452 155.319 239.265 154.131C239.068 152.966 239.345 151.878 239.615 150.955C239.9 150.027 240.197 149.217 240.388 148.524C240.799 147.139 240.719 146.236 240.792 146.231Z" fill="#F1B18F"/>
<path d="M243 151.393C243.028 151.387 243.129 151.661 243.276 152.165C243.423 152.671 243.62 153.406 243.805 154.331C243.985 155.257 244.168 156.372 244.198 157.63C244.224 158.879 244.1 160.312 243.456 161.656C242.794 162.981 241.842 164.019 240.93 164.874C240.006 165.723 239.099 166.391 238.322 166.923C237.542 167.452 236.89 167.846 236.431 168.103C235.972 168.361 235.709 168.486 235.694 168.461C235.658 168.403 236.643 167.784 238.147 166.676C238.895 166.118 239.771 165.433 240.661 164.586C241.539 163.736 242.448 162.717 243.071 161.469C243.673 160.216 243.809 158.852 243.805 157.634C243.797 156.41 243.649 155.306 243.509 154.384C243.206 152.542 242.932 151.41 243 151.393Z" fill="#263238"/>
<path d="M181.019 124.039C181 124.061 180.662 123.807 180.068 123.327C179.418 122.789 178.582 122.097 177.579 121.266C177.051 120.821 176.481 120.34 175.874 119.827C175.569 119.569 175.259 119.305 174.905 119.131C174.554 118.957 174.158 118.911 173.805 119.093C173.096 119.464 172.623 120.374 172.018 121.13C171.433 121.919 170.827 122.734 170.208 123.57C169.215 124.899 168.26 126.176 167.379 127.355L166.848 128.066L167.016 127.196C167.594 124.223 168.398 121.742 169.061 120.027C169.392 119.168 169.683 118.497 169.895 118.044C170.109 117.591 170.238 117.352 170.259 117.361C170.281 117.371 170.193 117.627 170.02 118.095C169.848 118.564 169.595 119.246 169.298 120.112C168.706 121.842 167.959 124.319 167.415 127.271L167.053 127.113C167.928 125.93 168.877 124.649 169.865 123.314C170.487 122.481 171.094 121.666 171.682 120.879C171.977 120.486 172.267 120.1 172.551 119.722C172.844 119.345 173.173 118.96 173.637 118.737C174.103 118.499 174.672 118.578 175.073 118.794C175.485 119.005 175.806 119.295 176.107 119.559C176.702 120.086 177.261 120.58 177.778 121.038C178.744 121.91 179.551 122.636 180.178 123.201C180.737 123.719 181.038 124.017 181.019 124.039Z" fill="#263238"/>
<path d="M215.704 117.089C215.712 117.1 215.602 117.199 215.383 117.376C215.123 117.578 214.803 117.828 214.413 118.132C213.51 118.812 212.286 119.733 210.793 120.857C207.665 123.161 203.419 126.287 198.708 129.756L198.525 129.891L198.401 129.698C198.307 129.549 198.204 129.389 198.102 129.229C195.876 125.713 193.796 122.429 192.037 119.65L192.259 119.721C189.358 120.875 187.079 122.14 185.526 123.08C184.749 123.551 184.151 123.94 183.742 124.204C183.335 124.47 183.114 124.608 183.102 124.592C183.092 124.577 183.29 124.409 183.678 124.113C184.068 123.819 184.649 123.4 185.414 122.9C186.941 121.902 189.21 120.581 192.122 119.382L192.262 119.324L192.344 119.453C194.119 122.222 196.217 125.495 198.463 128.998C198.566 129.159 198.667 129.319 198.762 129.468L198.456 129.41C203.197 125.981 207.468 122.892 210.617 120.614C212.141 119.536 213.392 118.651 214.315 117.998C214.724 117.72 215.059 117.491 215.331 117.306C215.568 117.153 215.696 117.077 215.704 117.089Z" fill="#263238"/>
<path d="M141.983 149.772C141.998 149.772 142.013 149.972 142.028 150.352C142.04 150.775 142.055 151.328 142.074 152.016C142.101 153.51 142.14 155.586 142.188 158.132C142.285 163.297 142.492 170.429 142.759 178.307C143.026 186.187 143.186 193.327 143.206 198.495C143.214 201.079 143.21 203.169 143.185 204.614C143.17 205.302 143.159 205.854 143.15 206.278C143.136 206.658 143.123 206.858 143.109 206.858C143.094 206.858 143.079 206.658 143.063 206.278C143.052 205.854 143.037 205.302 143.018 204.614C142.99 203.12 142.952 201.043 142.904 198.498C142.806 193.334 142.6 186.201 142.332 178.321C142.065 170.443 141.907 163.304 141.886 158.136C141.878 155.552 141.883 153.46 141.908 152.016C141.922 151.328 141.934 150.775 141.943 150.351C141.955 149.972 141.968 149.772 141.983 149.772Z" fill="#263238"/>
<path d="M181.289 224.007C181.282 224.008 181.268 223.927 181.247 223.77C181.227 223.589 181.201 223.359 181.169 223.072C181.105 222.427 181.017 221.528 180.906 220.385C180.677 218.051 180.414 214.667 180.153 210.481C179.884 206.296 179.665 201.306 179.523 195.762C179.403 190.218 179.373 184.12 179.503 177.721C179.651 171.321 179.946 165.229 180.307 159.694C180.69 154.16 181.124 149.184 181.575 145.015C182.019 140.845 182.428 137.476 182.757 135.154C182.919 134.017 183.045 133.123 183.137 132.481C183.182 132.196 183.218 131.967 183.246 131.787C183.273 131.631 183.29 131.552 183.298 131.553C183.305 131.554 183.302 131.635 183.289 131.793C183.272 131.974 183.25 132.205 183.222 132.492C183.15 133.136 183.05 134.034 182.922 135.175C182.644 137.502 182.281 140.875 181.876 145.046C181.464 149.216 181.061 154.19 180.699 159.719C180.361 165.25 180.078 171.337 179.931 177.731C179.8 184.123 179.819 190.214 179.917 195.753C180.037 201.292 180.224 206.279 180.454 210.463C180.676 214.648 180.893 218.033 181.071 220.371C181.149 221.517 181.21 222.418 181.254 223.065C181.269 223.353 181.281 223.584 181.291 223.767C181.297 223.925 181.297 224.006 181.289 224.007Z" fill="#263238"/>
<path d="M156.814 89.4835C156.814 89.4835 156.524 89.6865 155.946 90.0653C155.362 90.4459 154.502 91.0047 153.379 91.7353C152.251 92.47 150.946 93.5104 149.354 94.6651C148.569 95.2585 147.781 95.9702 146.907 96.6909C146.474 97.0558 146.027 97.4322 145.565 97.8201C145.111 98.2162 144.675 98.66 144.209 99.0972C140.476 102.574 136.235 107.242 132.328 113.367C131.849 114.138 131.362 114.921 130.867 115.718C130.352 116.504 129.952 117.374 129.478 118.219C129.031 119.078 128.532 119.928 128.106 120.831C127.691 121.74 127.27 122.663 126.843 123.598C126.635 124.068 126.402 124.532 126.211 125.017C126.025 125.504 125.839 125.996 125.651 126.49C125.28 127.48 124.883 128.476 124.519 129.499C123.912 131.584 123.144 133.684 122.686 135.923C121.548 140.347 120.92 145.115 120.666 150.087C120.379 155.063 120.676 160.271 121.53 165.567C123.259 176.143 127.43 187.155 134.519 196.944C141.516 206.762 151.405 215.303 163.281 220.916C175.131 226.564 188.998 229.004 202.847 227.569C216.716 226.131 229.707 220.669 240.112 212.685C242.736 210.711 245.145 208.515 247.459 206.274C248.016 205.692 248.572 205.112 249.126 204.533C249.687 203.96 250.228 203.372 250.741 202.76C251.263 202.158 251.784 201.556 252.304 200.956C252.795 200.332 253.285 199.71 253.773 199.091C257.678 194.122 260.758 188.703 263.192 183.188C265.622 177.662 267.23 171.957 268.221 166.331C268.73 163.517 269.01 160.71 269.197 157.943C269.285 156.559 269.283 155.181 269.33 153.818C269.304 152.454 269.23 151.102 269.183 149.76C269.157 149.09 269.13 148.423 269.104 147.758C269.064 147.094 268.955 146.439 268.885 145.784C268.727 144.474 268.571 143.177 268.416 141.891C268.212 140.614 267.917 139.363 267.676 138.115C267.42 136.871 267.206 135.628 266.82 134.442C266.475 133.244 266.134 132.059 265.797 130.886C265.646 130.293 265.438 129.723 265.217 129.161C265.005 128.595 264.794 128.033 264.584 127.473C264.146 126.362 263.788 125.231 263.298 124.171C262.804 123.113 262.314 122.067 261.831 121.033C257.865 112.797 252.772 106.141 247.659 101.004C242.527 95.8551 237.365 92.2448 233.015 89.587C231.908 88.9509 230.862 88.3494 229.88 87.7848C229.397 87.4873 228.898 87.258 228.42 87.0328C227.942 86.8052 227.481 86.5857 227.037 86.3737C226.149 85.9505 225.33 85.5593 224.58 85.2018C223.838 84.8254 223.112 84.6117 222.492 84.352C221.243 83.8671 220.287 83.4973 219.637 83.245C218.994 82.9935 218.668 82.8538 218.668 82.8538C218.668 82.8538 219.003 82.9656 219.652 83.2039C220.306 83.4472 221.267 83.8047 222.524 84.2723C223.148 84.5254 223.878 84.7333 224.623 85.104C225.377 85.4565 226.2 85.842 227.092 86.2595C227.538 86.4682 228.001 86.686 228.482 86.9103C228.963 87.1331 229.463 87.3599 229.95 87.6549C230.937 88.2154 231.989 88.8121 233.102 89.444C237.474 92.0862 242.665 95.6858 247.829 100.835C252.975 105.973 258.104 112.639 262.104 120.9C262.592 121.937 263.085 122.987 263.583 124.049C264.077 125.113 264.439 126.247 264.88 127.362C265.092 127.924 265.305 128.488 265.519 129.055C265.742 129.62 265.951 130.193 266.105 130.787C266.446 131.965 266.791 133.155 267.139 134.357C267.528 135.549 267.746 136.796 268.006 138.046C268.25 139.299 268.548 140.555 268.754 141.838C268.912 143.129 269.072 144.433 269.233 145.747C269.304 146.406 269.414 147.064 269.456 147.731C269.483 148.399 269.511 149.069 269.538 149.742C269.588 151.089 269.663 152.449 269.691 153.819C269.646 155.189 269.649 156.573 269.563 157.963C269.38 160.743 269.101 163.566 268.593 166.394C267.604 172.051 265.992 177.787 263.555 183.345C261.113 188.892 258.02 194.342 254.097 199.341C253.607 199.965 253.115 200.591 252.621 201.218C252.099 201.822 251.576 202.426 251.051 203.033C250.536 203.649 249.992 204.24 249.427 204.816C248.871 205.399 248.312 205.983 247.753 206.568C245.427 208.823 243.006 211.032 240.368 213.019C229.908 221.052 216.841 226.55 202.893 227.995C188.966 229.44 175.018 226.981 163.104 221.296C151.162 215.646 141.225 207.052 134.2 197.175C127.082 187.328 122.904 176.254 121.181 165.625C120.33 160.301 120.04 155.069 120.337 150.072C120.6 145.079 121.24 140.292 122.392 135.853C122.858 133.605 123.632 131.498 124.248 129.407C124.614 128.381 125.016 127.381 125.39 126.388C125.58 125.893 125.769 125.401 125.956 124.912C126.149 124.425 126.385 123.961 126.594 123.489C127.026 122.551 127.45 121.626 127.868 120.715C128.298 119.81 128.801 118.958 129.253 118.097C129.731 117.251 130.134 116.379 130.652 115.592C131.152 114.794 131.643 114.009 132.126 113.238C136.065 107.107 140.336 102.443 144.095 98.9764C144.564 98.5409 145.003 98.0987 145.46 97.7042C145.924 97.318 146.375 96.9432 146.811 96.58C147.691 95.8633 148.485 95.1549 149.274 94.5657C150.877 93.4192 152.192 92.3887 153.329 91.6646C154.464 90.9488 155.33 90.4015 155.921 90.0284C156.508 89.6618 156.814 89.4835 156.814 89.4835Z" fill="#263238"/>
</svg>
