<svg width="565" height="375" viewBox="0 0 565 375" fill="none" xmlns="http://www.w3.org/2000/svg">
<path d="M245.781 75.0833C238.116 81.7595 234.073 92.3733 235.353 102.461C235.975 107.362 237.605 112.91 234.591 116.823C231.607 120.696 225.385 120.892 222.538 124.867C219.187 129.545 222.506 136.102 221.502 141.77C220.559 147.092 215.202 151.241 209.818 150.821C216.342 155.64 224.214 158.61 232.294 159.3C234.217 156.562 236.141 153.825 238.065 151.087C235.866 153.971 236.702 158.355 239.102 161.074C241.502 163.793 245.066 165.164 248.571 166.091C265.313 170.517 284.06 166.517 297.542 155.642" fill="#263238"/>
<path d="M340.328 114.022C338.913 110.311 336.675 106.917 335.656 103.078C333.467 94.8262 337.068 85.2395 332.658 77.9306C329.519 72.7286 323.26 70.4128 317.377 68.9101C311.493 67.4075 305.196 66.1974 300.667 62.1519C297.344 59.1845 295.33 54.9725 292.016 51.9939C287.295 47.7499 280.573 46.5623 274.227 46.4828C267.71 46.4017 261.022 47.3563 255.319 50.5128C249.615 53.6683 245.026 59.295 244.299 65.7762C243.944 68.936 244.489 72.2038 243.65 75.2705C242.727 78.6427 240.248 81.3529 238.793 84.5335C235.72 91.2529 237.991 99.9868 243.947 104.355L291.376 159.83C300.92 162.913 323.416 157.517 330.32 150.237C337.224 142.956 343.904 123.399 340.328 114.022Z" fill="#263238"/>
<path d="M244.768 96.9703C245.967 83.7887 255.158 67.8305 268.267 69.5887L309.033 81.1148C313.016 81.6482 315.928 85.143 315.737 89.159L308.591 188.107C308.688 188.131 308.777 188.153 308.873 188.176C308.873 188.176 298.807 215.88 271.892 206.649C266.554 204.818 264.249 198.866 263.337 192.781L263.269 177.125C263.398 169.124 263.49 165.845 263.482 165.919C263.482 165.919 246.703 162.649 243.822 140.541C242.388 129.547 243.437 111.615 244.768 96.9703Z" fill="#FFD1BA"/>
<path d="M280.754 117.216C280.66 118.704 281.842 120.012 283.395 120.139C284.944 120.265 286.279 119.165 286.373 117.675C286.467 116.186 285.284 114.877 283.735 114.75C282.183 114.623 280.848 115.727 280.754 117.216Z" fill="#263238"/>
<path d="M251.55 116.256C251.456 117.745 252.638 119.052 254.191 119.179C255.74 119.306 257.075 118.205 257.169 116.715C257.262 115.226 256.08 113.917 254.531 113.79C252.979 113.663 251.644 114.766 251.55 116.256Z" fill="#263238"/>
<path d="M247.239 106.759C247.569 107.26 250.103 105.476 253.4 105.793C256.698 106.055 258.907 108.253 259.315 107.817C259.513 107.625 259.215 106.75 258.257 105.759C257.316 104.775 255.639 103.746 253.584 103.565C251.528 103.387 249.707 104.106 248.618 104.914C247.507 105.724 247.073 106.534 247.239 106.759Z" fill="#263238"/>
<path d="M277.786 108.779C278.195 109.233 280.677 107.239 284.204 107.217C287.729 107.14 290.326 109.063 290.708 108.597C290.895 108.39 290.482 107.567 289.347 106.697C288.235 105.829 286.339 104.995 284.141 105.023C281.942 105.057 280.096 105.942 279.035 106.839C277.954 107.742 277.587 108.575 277.786 108.779Z" fill="#263238"/>
<path d="M266.579 130.032C266.598 129.859 264.72 129.481 261.673 129.005C260.9 128.903 260.17 128.729 260.055 128.196C259.887 127.63 260.235 126.804 260.636 125.912C261.418 124.055 262.234 122.109 263.092 120.069C266.509 111.749 269.006 104.898 268.67 104.763C268.334 104.629 265.292 111.264 261.875 119.584C261.052 121.636 260.264 123.592 259.514 125.464C259.196 126.338 258.664 127.324 259.028 128.497C259.22 129.083 259.777 129.519 260.27 129.667C260.763 129.833 261.199 129.853 261.582 129.886C264.654 130.137 266.561 130.205 266.579 130.032Z" fill="#263238"/>
<path d="M263.482 165.919C263.482 165.919 278.252 167.285 293.157 158.875C293.157 158.875 285.324 174.117 263.368 171.445L263.482 165.919Z" fill="#F1B18F"/>
<path d="M267.658 137.388C268.79 135.975 270.725 135.235 272.619 135.492C273.931 135.671 275.245 136.343 276.015 137.439C276.785 138.535 276.911 140.063 276.155 141.066C275.304 142.196 273.585 142.414 272.148 141.962C270.71 141.51 269.49 140.521 268.333 139.538C268.013 139.266 267.685 138.982 267.491 138.615C267.296 138.249 267.265 137.776 267.526 137.484" fill="#A855F7"/>
<path d="M275.453 132.382C274.96 132.339 274.862 135.636 271.977 137.898C269.097 140.168 265.595 139.699 265.557 140.159C265.505 140.364 266.321 140.822 267.802 140.903C269.254 140.994 271.39 140.585 273.156 139.202C274.916 137.815 275.71 135.92 275.859 134.57C276.023 133.196 275.678 132.369 275.453 132.382Z" fill="#263238"/>
<path d="M277.571 100.585C277.847 101.419 280.889 101.112 284.437 101.641C287.998 102.098 290.84 103.221 291.334 102.493C291.555 102.145 291.075 101.354 289.936 100.522C288.807 99.6916 286.993 98.882 284.862 98.5842C282.73 98.2908 280.764 98.5756 279.452 99.0676C278.129 99.5587 277.454 100.19 277.571 100.585Z" fill="#263238"/>
<path d="M249.77 94.4232C250.361 95.1301 252.771 94.4802 255.646 94.5268C258.521 94.4854 260.94 95.1379 261.52 94.4327C261.775 94.0892 261.411 93.3875 260.366 92.7048C259.336 92.0255 257.599 91.4437 255.622 91.442C253.647 91.442 251.919 92.0195 250.899 92.6987C249.864 93.378 249.511 94.0788 249.77 94.4232Z" fill="#263238"/>
<path d="M318.057 83.8336C315.882 80.8161 312.166 79.3911 308.637 78.2224C293.414 73.1809 277.589 69.9632 261.606 68.6591C259.788 72.0183 261.834 76.3684 264.935 78.5979C268.034 80.8265 271.916 81.5765 275.552 82.7383C279.189 83.9009 282.95 85.7799 284.593 89.2281C286.341 92.8954 285.238 97.394 286.799 101.144C289.485 107.598 298.749 109.267 301.399 115.734C303.403 120.627 300.781 126.067 300.316 131.334C299.79 137.302 302.29 143.46 306.826 147.37C310.403 150.453 315.173 152.048 319.885 151.908C320.049 133.005 320.215 114.103 320.38 95.2008C320.414 91.2633 320.358 87.0262 318.057 83.8336Z" fill="#263238"/>
<path d="M358.331 129.592C355.226 127.07 351.384 124.945 350.01 121.186C348.011 115.71 352.154 108.958 349.033 104.035C346.186 99.5449 338.476 100.157 335.81 95.5581C333.727 91.9667 335.752 88.5988 334.87 85.3984C333.989 82.1979 329.261 79.5844 325.989 80.1325L302.092 118.7C300.316 131.332 298.238 138.112 301.282 145.301C302.951 149.245 305.063 153.065 305.847 157.275C306.631 161.486 305.784 166.341 302.443 169.018C317.882 169.471 331.901 160.71 344.839 152.269C349.403 149.291 353.968 146.313 358.533 143.335C359.958 142.406 361.44 141.415 362.247 139.916C364.146 136.395 361.436 132.114 358.331 129.592Z" fill="#263238"/>
<path d="M345.04 148.479C345.04 148.479 344.503 148.711 343.412 148.876C342.328 149.039 340.676 149.17 338.605 148.77C336.555 148.376 334.045 147.459 331.746 145.498C329.45 143.569 327.524 140.476 326.908 136.717C326.607 134.844 326.634 132.816 327.123 130.789C327.617 128.753 328.639 126.836 329.699 124.929C330.743 123.019 331.89 121.056 332.355 118.849C332.816 116.683 332.695 114.138 331.213 112.364C329.721 110.557 327.1 110.225 324.642 109.371C323.404 108.945 322.114 108.253 321.243 107.101C320.374 105.953 320.028 104.503 319.988 103.117C319.883 100.297 320.957 97.6624 321.345 95.0143C321.543 93.6886 321.573 92.3249 321.177 91.082C320.79 89.8399 319.943 88.7757 318.805 88.0697C316.507 86.592 313.662 86.4772 310.923 86.3702C308.17 86.3072 305.273 85.829 302.882 84.4247C300.469 83.0912 298.489 81.1086 297.169 78.8058C295.86 76.4745 295.302 73.93 294.807 71.5271C294.316 69.1173 293.869 66.7722 292.96 64.6826C292.053 62.6025 290.666 60.8262 289.077 59.4037C285.83 56.6021 281.836 55.2219 278.201 55.1037C274.54 54.9742 271.279 56.1032 268.772 57.5558C266.241 59.0119 264.382 60.7804 263.069 62.3608C260.447 65.5707 259.783 67.8597 259.664 67.7915C259.649 67.7864 259.692 67.6483 259.791 67.385C259.898 67.1252 260.024 66.7221 260.268 66.2302C260.719 65.2289 261.505 63.7927 262.797 62.1407C264.09 60.5008 265.948 58.6571 268.518 57.1225C271.065 55.5922 274.408 54.3769 278.219 54.4693C281.994 54.553 286.149 55.94 289.565 58.8427C291.239 60.3161 292.712 62.1752 293.683 64.3675C294.649 66.5599 295.115 68.9637 295.616 71.3597C296.119 73.7514 296.679 76.2061 297.914 78.382C299.16 80.5398 301.032 82.4067 303.308 83.6565C305.579 84.9728 308.217 85.4121 310.965 85.4794C313.675 85.5899 316.718 85.6711 319.29 87.3162C320.567 88.1016 321.591 89.3713 322.031 90.8118C322.486 92.2532 322.437 93.7524 322.229 95.1455C321.8 97.9507 320.764 100.5 320.867 103.093C320.901 104.367 321.212 105.616 321.937 106.579C322.664 107.542 323.756 108.156 324.933 108.565C326.106 108.994 327.357 109.266 328.572 109.714C329.78 110.143 331.001 110.799 331.846 111.833C333.562 113.932 333.622 116.717 333.127 119.016C332.606 121.392 331.402 123.392 330.349 125.293C329.275 127.19 328.279 129.036 327.795 130.958C327.313 132.88 327.267 134.819 327.536 136.618C328.088 140.231 329.896 143.227 332.077 145.12C334.261 147.048 336.682 147.992 338.676 148.428C342.745 149.254 345.043 148.318 345.04 148.479Z" fill="#455A64"/>
<path d="M364.258 120.951C364.258 120.951 364.585 121.313 364.826 122.185C365.07 123.04 365.115 124.469 364.353 126.033C363.958 126.795 363.367 127.596 362.486 128.2C361.611 128.8 360.48 129.196 359.243 129.236C356.796 129.382 353.839 128.047 352.298 125.286C351.52 123.939 351.056 122.337 350.972 120.647C350.892 118.948 351.245 117.204 351.805 115.508C352.864 112.118 354.92 108.765 354.777 104.87C354.727 102.982 354.185 100.954 352.733 99.6659C351.295 98.3427 349.162 98.1079 347.057 98.1925C344.947 98.2245 342.663 98.6068 340.364 97.8283C339.237 97.433 338.198 96.6639 337.514 95.655C336.819 94.6529 336.424 93.4885 336.223 92.3147C335.822 89.9282 336.271 87.6297 336.444 85.4443C336.676 83.2554 336.437 81.1218 335.778 79.1202C334.45 75.1265 331.573 71.8596 328.16 70.0704C324.728 68.2216 320.86 68.194 317.376 68.156C313.869 68.1422 310.478 68.0886 307.566 67.0969C304.655 66.1682 302.281 64.6698 300.462 63.0955C298.623 61.5298 297.348 59.8597 296.45 58.4303C294.674 55.5294 294.381 53.6357 294.381 53.6357C294.488 53.59 294.908 55.45 296.744 58.2413C297.671 59.6171 298.96 61.2199 300.787 62.7131C302.593 64.215 304.927 65.6322 307.755 66.4919C310.573 67.4102 313.86 67.4318 317.38 67.4128C320.863 67.4241 324.872 67.3982 328.544 69.3384C332.161 71.2114 335.196 74.6268 336.613 78.844C337.318 80.9414 337.573 83.2675 337.335 85.5202C337.154 87.7609 336.737 89.9998 337.109 92.1662C337.435 94.324 338.658 96.3368 340.667 96.9902C342.647 97.6816 344.871 97.3579 347.036 97.3165C349.17 97.2353 351.611 97.4649 353.309 99.0332C355.006 100.567 355.561 102.836 355.605 104.852C355.666 106.907 355.152 108.892 354.478 110.655C353.818 112.436 353.066 114.096 352.513 115.746C351.953 117.388 351.609 119.039 351.666 120.622C351.726 122.205 352.143 123.712 352.851 124.973C354.247 127.554 356.942 128.819 359.23 128.737C360.378 128.724 361.431 128.378 362.25 127.847C363.074 127.313 363.649 126.581 364.046 125.874C364.812 124.421 364.833 123.062 364.652 122.227C364.474 121.373 364.212 120.974 364.258 120.951Z" fill="#263238"/>
<path d="M202.617 138.086C202.759 138.069 201.857 139.603 202.864 142.108C203.367 143.285 204.44 144.697 206.22 145.195C207.952 145.695 210.303 145.128 211.789 143.375C212.534 142.514 212.935 141.344 212.954 140.087C212.975 138.83 212.662 137.517 212.174 136.22C211.229 133.654 209.425 130.9 209.514 127.491C209.538 124.187 211.043 120.735 213.757 118.366C215.099 117.177 216.693 116.237 218.427 115.605C220.165 114.95 222.041 114.732 223.867 114.549C225.698 114.365 227.501 114.227 229.157 113.732C230.804 113.25 232.276 112.322 233.17 110.955C234.068 109.592 234.41 107.934 234.444 106.327C234.48 104.706 234.207 103.129 233.814 101.6C233.033 98.555 231.966 95.6109 231.994 92.6624C232.004 89.7322 232.987 87.0815 234.375 85.0497C235.765 82.98 237.629 81.6637 239.18 80.5675C240.753 79.4714 242.093 78.5263 243.052 77.601C245.023 75.7634 245.3 74.1718 245.413 74.2374C245.428 74.2417 245.41 74.3341 245.361 74.5102C245.302 74.6828 245.252 74.9581 245.09 75.2792C244.819 75.9438 244.259 76.876 243.297 77.8487C242.35 78.8379 241.013 79.8425 239.473 80.9741C237.946 82.1125 236.186 83.4167 234.901 85.4045C233.611 87.362 232.714 89.8987 232.737 92.6607C232.737 95.4374 233.789 98.2926 234.613 101.395C235.025 102.947 235.33 104.62 235.3 106.344C235.272 108.055 234.921 109.88 233.902 111.44C232.889 113.01 231.19 114.07 229.414 114.588C227.627 115.123 225.777 115.257 223.955 115.444C222.132 115.627 220.36 115.835 218.731 116.446C217.099 117.037 215.599 117.917 214.34 119.026C211.799 121.227 210.388 124.432 210.341 127.503C210.221 130.622 211.897 133.267 212.872 135.963C213.365 137.321 213.688 138.723 213.646 140.106C213.612 141.482 213.131 142.832 212.272 143.788C210.569 145.718 207.995 146.273 206.08 145.677C204.115 145.067 203.024 143.501 202.542 142.238C202.04 140.935 202.104 139.812 202.241 139.113C202.398 138.405 202.617 138.086 202.617 138.086Z" fill="#263238"/>
<path d="M323.053 75.374C324.528 80.261 328.848 83.6625 331.68 87.9091C335.673 93.8966 336.592 101.406 336.679 108.604C336.475 105.212 337.833 101.948 338.497 98.6161C339.662 92.7624 338.608 86.4944 335.593 81.3451C332.578 76.1957 327.629 72.2115 321.956 70.3679" fill="#263238"/>
<path d="M313.627 182.035C310.735 181.224 327.932 187.801 328.284 187.914L312.927 212.946L253.382 225.624L230.979 189.201L276.255 175.686L313.627 182.035Z" fill="#FFD1BA"/>
<path d="M227.768 266.666L191.484 251.053C191.484 251.053 205.272 203.124 208.901 198.041C212.529 192.958 249.977 181.326 249.977 181.326C249.977 181.326 262.923 202.934 285.056 204.386C307.188 205.839 315.58 203.54 319.934 184.296C319.934 184.296 356.997 192.857 359.9 196.125C362.803 199.392 382.333 253.231 382.333 253.231C382.333 253.231 343.873 264.125 342.421 264.85C340.97 265.576 338.43 322.583 338.43 322.583C338.43 322.583 355.609 367.012 356.303 375L215.398 374.638L229.944 290.63L227.768 266.666Z" fill="#455A64"/>
<path d="M353.245 223.436C353.209 223.428 353.006 224.037 352.668 225.148C352.317 226.343 351.849 227.934 351.283 229.862C350.136 233.848 348.586 239.363 346.906 245.463C346.073 248.512 345.281 251.416 344.556 254.069C344.209 255.394 343.843 256.647 343.547 257.838C343.255 259.028 343.024 260.143 342.825 261.162C342.431 263.202 342.158 264.858 341.971 266.004C341.788 267.149 341.697 267.784 341.733 267.792C341.751 267.795 341.799 267.642 341.874 267.345C341.956 266.987 342.054 266.557 342.172 266.042C342.43 264.824 342.772 263.203 343.188 261.237C343.41 260.226 343.662 259.12 343.968 257.945C344.298 256.769 344.65 255.518 345.019 254.205C345.757 251.553 346.563 248.651 347.41 245.605C349.091 239.501 350.585 233.967 351.641 229.955C352.143 228.01 352.555 226.405 352.865 225.198C353.143 224.072 353.28 223.446 353.245 223.436Z" fill="#263238"/>
<path d="M267.126 298.278C267.115 298.292 267.257 298.43 267.54 298.68C267.871 298.964 268.285 299.32 268.794 299.757C269.885 300.688 271.504 301.987 273.541 303.546C277.612 306.666 283.433 310.736 290.192 314.695C296.958 318.646 303.359 321.725 308.073 323.743C310.429 324.754 312.355 325.529 313.702 326.023C314.33 326.252 314.843 326.439 315.253 326.588C315.61 326.711 315.8 326.768 315.807 326.751C315.814 326.733 315.636 326.644 315.292 326.488C314.893 326.316 314.391 326.098 313.778 325.832C312.457 325.281 310.556 324.455 308.223 323.402C303.556 321.3 297.203 318.179 290.457 314.24C283.718 310.293 277.883 306.285 273.763 303.247C271.702 301.73 270.049 300.478 268.92 299.596C268.387 299.191 267.953 298.861 267.606 298.597C267.303 298.376 267.138 298.264 267.126 298.278Z" fill="#263238"/>
<g opacity="0.2">
<path d="M238.621 279.222C245.476 271.061 255.053 265.639 264.906 261.585C274.904 257.471 285.877 254.561 296.485 256.643C306.27 258.564 314.721 264.504 322.786 270.371C325.429 272.294 328.107 274.264 330.067 276.88C332.186 279.707 333.346 283.122 334.408 286.491C337.163 295.224 336.911 305.386 338.818 314.342L338.741 315.935C336.895 316.497 336.071 315.64 334.374 314.719C324.263 309.227 320.165 294.875 309.003 292.084C306.976 291.578 304.868 291.517 302.795 291.254C297.41 290.571 292.233 288.501 287.723 285.479C285.896 284.255 284.038 282.824 281.845 282.669C279.528 282.504 277.394 283.797 275.373 284.94C269.517 288.251 263.155 290.662 256.578 292.066C255.699 292.253 254.782 292.438 254.071 292.988C253.175 293.682 252.773 294.821 252.401 295.893C249.938 302.988 246.806 309.955 242.1 315.806C237.393 321.658 230.973 326.354 223.632 327.924C225.099 310.715 227.516 292.442 238.621 279.222Z" fill="black"/>
</g>
<g opacity="0.2">
<path d="M307.229 331.606C299.44 334.312 286.477 330.768 279.276 326.752C272.075 322.735 265.821 314.061 264.026 306.009C276.16 313.901 294.003 325.724 307.229 331.606Z" fill="black"/>
</g>
<g opacity="0.2">
<path d="M347.413 244.271C349.089 239.035 350.34 233.439 352.017 228.203H352.209C353.411 234.594 353.38 241.205 352.159 247.592C350.938 253.979 347.263 259.851 342.419 264.187C343.443 258.083 345.304 250.858 347.413 244.271Z" fill="black"/>
</g>
<path d="M353.929 209.251C354.055 209.306 355.295 206.685 356.328 203.268C357.37 199.852 357.797 196.984 357.662 196.96C357.512 196.93 356.859 199.73 355.825 203.115C354.802 206.502 353.787 209.192 353.929 209.251Z" fill="#263238"/>
<path d="M218.014 208.827C217.871 208.849 219.653 221.25 221.996 236.522C224.339 251.799 226.354 264.162 226.497 264.139C226.64 264.118 224.858 251.719 222.514 236.442C220.173 221.17 218.157 208.805 218.014 208.827Z" fill="#263238"/>
<path d="M254.136 185.62C271.127 175.695 302.633 180.712 302.633 180.712C309.478 172.2 318.621 172.659 322.74 173.412C324 173.642 324.901 174.763 324.879 176.045L324.665 188.982C337.573 194.296 340.611 210.922 340.611 210.922L346.424 212.553C348.529 213.144 349.971 215.08 349.935 217.267L349.728 229.789C349.69 232.025 348.118 233.941 345.933 234.413L340.202 235.651C333.402 246.249 326.733 251.975 317.747 254.977L317.528 266.131L299.187 265.828L294.939 258.091L274.247 257.547L270.857 265.965L251.803 265.042L251.606 251.925C238.531 241.253 234.981 234.417 234.686 220.131C234.39 205.846 237.695 195.223 254.136 185.62Z" fill="#A855F7"/>
<path d="M329.841 207.411C331.571 208.177 331.979 210.888 330.551 212.13C329.123 213.372 326.497 212.591 325.98 210.769C325.462 208.947 327.285 206.9 329.152 207.205" fill="#263238"/>
<path d="M319.575 189.772C319.646 189.773 319.687 188.897 319.843 187.496C319.998 186.095 320.301 184.171 320.864 182.1C321.431 180.028 322.146 178.217 322.724 176.931C323.3 175.645 323.709 174.87 323.649 174.835C323.603 174.807 323.095 175.529 322.438 176.794C321.78 178.057 321.006 179.88 320.431 181.981C319.86 184.084 319.601 186.048 319.527 187.469C319.451 188.892 319.522 189.772 319.575 189.772Z" fill="#263238"/>
<g opacity="0.3">
<path d="M296.968 187.184L295.772 189.377C288.245 187.927 280.408 187.839 272.29 188.988L274.565 186.497C282.191 185.211 289.456 185.467 296.968 187.184Z" fill="black"/>
</g>
<path d="M344.75 223.375C344.729 224.676 345.204 225.739 345.811 225.749C346.418 225.759 346.929 224.712 346.95 223.411C346.972 222.111 346.497 221.047 345.889 221.038C345.282 221.027 344.773 222.074 344.75 223.375Z" fill="#263238"/>
<path d="M347.213 232.572C347.198 232.532 346.851 232.721 346.172 232.742C345.525 232.742 344.439 232.657 343.626 231.759C343.209 231.33 342.805 230.794 342.48 230.168C342.144 229.555 341.989 228.8 341.776 228.013C341.383 226.441 341.122 224.673 341.144 222.807C341.198 220.946 341.338 219.14 341.821 217.619C342.296 216.091 343.193 214.888 344.221 214.266C345.24 213.623 346.253 213.477 346.919 213.525C347.595 213.57 347.948 213.742 347.964 213.699C347.97 213.684 347.886 213.637 347.718 213.56C347.548 213.487 347.287 213.402 346.937 213.351C346.243 213.245 345.161 213.346 344.056 213.995C342.937 214.62 341.943 215.9 341.429 217.489C340.902 219.086 340.753 220.904 340.696 222.803C340.672 224.711 340.954 226.525 341.376 228.114C341.599 228.896 341.773 229.681 342.152 230.343C342.512 230.999 342.948 231.545 343.405 231.985C343.845 232.44 344.411 232.725 344.9 232.828C345.394 232.95 345.834 232.95 346.185 232.916C346.537 232.877 346.803 232.795 346.972 232.718C347.141 232.644 347.219 232.584 347.213 232.572Z" fill="#263238"/>
<path d="M256.851 253.815C256.847 253.831 257.046 253.887 257.429 253.981C257.856 254.08 258.413 254.21 259.105 254.37C260.562 254.709 262.685 255.126 265.321 255.574C267.956 256.031 271.113 256.463 274.629 256.836C278.148 257.184 282.029 257.458 286.11 257.567C290.192 257.66 294.082 257.579 297.615 257.404C301.147 257.207 304.321 256.93 306.975 256.604C309.63 256.287 311.771 255.975 313.243 255.709C313.942 255.583 314.504 255.481 314.937 255.404C315.323 255.328 315.525 255.282 315.522 255.266C315.52 255.251 315.313 255.268 314.922 255.314C314.487 255.371 313.921 255.444 313.217 255.537C311.739 255.749 309.594 256.012 306.94 256.288C304.287 256.572 301.118 256.816 297.595 256.991C294.071 257.141 290.192 257.21 286.122 257.118C282.053 257.008 278.183 256.748 274.671 256.424C271.162 256.075 268.009 255.675 265.373 255.26C262.736 254.853 260.607 254.484 259.141 254.199C258.442 254.072 257.88 253.97 257.448 253.892C257.059 253.828 256.854 253.801 256.851 253.815Z" fill="#263238"/>
<path d="M302.842 180.617C302.815 180.622 302.846 180.952 302.967 181.537C303.086 182.122 303.319 182.96 303.716 183.955C304.497 185.94 306.087 188.561 308.652 190.641C311.217 192.721 314.109 193.735 316.211 194.088C317.267 194.272 318.134 194.326 318.732 194.321C319.329 194.318 319.657 194.28 319.657 194.253C319.66 194.168 318.334 194.216 316.273 193.777C314.224 193.351 311.429 192.315 308.935 190.292C306.441 188.27 304.85 185.749 304.009 183.832C303.152 181.904 302.925 180.596 302.842 180.617Z" fill="#263238"/>
<path d="M325.581 190.563C325.537 190.628 326.599 191.351 328.165 192.696C329.731 194.037 331.759 196.059 333.618 198.598C335.47 201.144 336.776 203.692 337.577 205.594C338.381 207.495 338.746 208.728 338.821 208.705C338.852 208.697 338.784 208.383 338.638 207.819C338.498 207.254 338.239 206.45 337.871 205.475C337.139 203.525 335.859 200.914 333.981 198.332C332.097 195.758 330.002 193.742 328.368 192.451C327.552 191.803 326.866 191.312 326.371 191.006C325.878 190.696 325.599 190.537 325.581 190.563Z" fill="white"/>
<path d="M346.178 212.886C346.195 212.76 345.149 212.523 343.876 212.204C342.6 211.89 341.566 211.611 341.522 211.731C341.479 211.845 342.465 212.319 343.768 212.641C345.069 212.966 346.163 213.006 346.178 212.886Z" fill="white"/>
<path d="M348.934 228.731C348.992 228.738 349.16 227.993 349.319 226.769C349.478 225.546 349.613 223.842 349.612 221.957C349.609 220.071 349.471 218.368 349.308 217.145C349.146 215.921 348.977 215.176 348.919 215.184C348.785 215.202 349.167 218.22 349.163 221.957C349.175 225.694 348.799 228.712 348.934 228.731Z" fill="white"/>
<path d="M324.087 175.327C323.952 175.342 324.255 178.292 324.187 181.935C324.134 185.579 323.735 188.517 323.868 188.537C323.926 188.545 324.1 187.821 324.274 186.63C324.447 185.44 324.605 183.781 324.636 181.943C324.665 180.105 324.563 178.442 324.428 177.246C324.295 176.05 324.144 175.32 324.087 175.327Z" fill="white"/>
<path d="M308.136 176.97C308.2 177.108 311.122 175.297 315.207 174.544C319.286 173.745 322.667 174.358 322.676 174.206C322.686 174.156 321.861 173.936 320.488 173.815C319.118 173.69 317.196 173.712 315.123 174.103C313.052 174.5 311.256 175.185 310.027 175.803C308.797 176.419 308.108 176.927 308.136 176.97Z" fill="white"/>
<path d="M272.231 190.234C272.245 190.304 273.549 190.066 275.671 189.801C277.791 189.535 280.735 189.282 283.994 189.295C287.253 189.315 290.195 189.598 292.313 189.886C294.431 190.172 295.733 190.424 295.748 190.354C295.755 190.323 295.436 190.229 294.853 190.083C294.271 189.933 293.419 189.756 292.36 189.572C290.244 189.201 287.282 188.865 283.996 188.846C280.711 188.832 277.746 189.138 275.626 189.486C274.565 189.66 273.712 189.828 273.128 189.972C272.544 190.112 272.224 190.203 272.231 190.234Z" fill="white"/>
<path d="M266.869 182.503C266.877 182.533 267.343 182.451 268.176 182.278C269.008 182.099 270.217 181.863 271.715 181.602C274.708 181.074 278.882 180.538 283.518 180.404C288.155 180.279 292.352 180.584 295.371 180.943C296.88 181.121 298.101 181.289 298.942 181.422C299.784 181.549 300.253 181.604 300.259 181.574C300.265 181.544 299.807 181.43 298.973 181.25C298.14 181.064 296.923 180.848 295.412 180.629C292.392 180.187 288.172 179.83 283.506 179.956C278.842 180.089 274.648 180.68 271.657 181.289C270.161 181.592 268.957 181.876 268.136 182.107C267.313 182.334 266.862 182.472 266.869 182.503Z" fill="white"/>
<path d="M315.777 251.074C315.783 251.104 316.085 251.066 316.628 250.969C317.172 250.879 317.95 250.693 318.896 250.412C320.789 249.857 323.343 248.818 325.896 247.197C328.445 245.568 330.466 243.692 331.771 242.21C332.424 241.47 332.923 240.844 333.234 240.389C333.552 239.937 333.715 239.68 333.69 239.661C333.627 239.614 332.891 240.584 331.538 241.994C330.188 243.405 328.165 245.213 325.655 246.818C323.14 248.415 320.648 249.484 318.799 250.11C316.95 250.741 315.76 250.997 315.777 251.074Z" fill="white"/>
<path d="M241.134 236.875C241.109 236.891 241.371 237.324 241.869 238.095C242.112 238.484 242.425 238.951 242.834 239.458C243.238 239.97 243.668 240.58 244.233 241.176C244.776 241.793 245.378 242.462 246.089 243.117C246.766 243.81 247.569 244.458 248.401 245.16C250.11 246.501 252.104 247.836 254.337 248.985C256.584 250.107 258.839 250.928 260.931 251.515C261.988 251.771 262.986 252.037 263.944 252.173C264.892 252.359 265.788 252.45 266.606 252.523C267.421 252.628 268.166 252.614 268.817 252.636C269.468 252.667 270.029 252.643 270.487 252.609C271.402 252.556 271.905 252.512 271.904 252.481C271.902 252.45 271.395 252.435 270.483 252.434C270.028 252.44 269.471 252.439 268.825 252.384C268.18 252.338 267.444 252.329 266.638 252.206C265.83 252.113 264.947 252.005 264.011 251.805C263.067 251.656 262.082 251.379 261.041 251.116C258.98 250.514 256.759 249.691 254.541 248.583C252.336 247.448 250.361 246.142 248.658 244.835C247.831 244.15 247.025 243.52 246.346 242.846C245.631 242.21 245.022 241.56 244.47 240.963C243.894 240.386 243.453 239.796 243.034 239.303C242.608 238.814 242.277 238.366 242.014 237.994C241.472 237.259 241.16 236.859 241.134 236.875Z" fill="white"/>
<path d="M374.494 255.46C374.517 255.453 381.49 295.975 382.396 302.865C383.302 309.754 381.439 325.441 375.824 330.156C370.208 334.869 365.483 336.058 361.498 335.333C357.512 334.608 345.011 321.554 340.301 316.297C335.591 311.038 311.942 268.46 311.942 268.46L333.779 258.742L346.547 274.239L343.666 264.421L374.494 255.46Z" fill="#FFD1BA"/>
<path d="M346.143 273.748C346.114 273.772 346.422 274.211 346.993 274.992C347.631 275.846 348.455 276.951 349.447 278.278C350.496 279.656 351.757 281.289 353.222 283.054C354.69 284.814 356.35 286.724 358.308 288.529C360.267 290.359 362.479 291.647 364.43 292.828C366.397 294 368.157 295.056 369.544 296.074C372.356 298.079 373.574 299.889 373.658 299.815C373.673 299.804 373.604 299.689 373.459 299.477C373.312 299.267 373.101 298.952 372.778 298.587C372.157 297.838 371.153 296.832 369.767 295.775C368.39 294.706 366.631 293.606 364.681 292.412C362.74 291.207 360.573 289.928 358.662 288.141C356.736 286.364 355.074 284.477 353.593 282.741C352.114 281.001 350.826 279.396 349.741 278.048C348.696 276.762 347.827 275.692 347.156 274.865C346.533 274.122 346.171 273.726 346.143 273.748Z" fill="#F1B18F"/>
<path d="M328.864 253.107C328.864 253.107 322.051 247.377 319.906 249.044C317.761 250.711 317.634 252.251 318.531 253.405C319.428 254.559 324.577 261.105 324.577 261.105L320.771 264.703L313.998 262.49L311.093 261.796C311.093 261.796 304.129 261.96 305.609 266.642C305.609 266.642 298.404 264.345 297.102 264.237C295.111 264.072 290.098 263.572 290.812 266.17C291.535 268.799 294.314 269.693 294.314 269.693C294.314 269.693 291.107 270.718 293.029 273.539C294.952 276.36 297.597 276.974 297.597 276.974L308.947 281.524C310.333 282.08 311.875 282.11 313.282 281.61L316.865 280.335L323.913 283.413C323.913 283.413 338.138 279.309 340.188 266.869L338.337 263.015L337.125 260.738C337.125 260.738 338.802 250.123 338.822 248.687C338.836 247.684 340.86 243.09 342.08 240.413C342.617 239.232 341.627 237.931 340.346 238.13C339.066 238.328 337.347 239.009 335.252 240.784C330.36 244.927 329.754 249.171 329.754 249.171L328.72 253.345" fill="#FFD1BA"/>
<path d="M333.681 257.886C333.705 257.851 333.205 257.5 332.392 256.759C331.567 256.029 330.488 254.861 329.087 253.458C328.387 252.753 327.554 252.045 326.657 251.307C325.755 250.572 324.758 249.792 323.536 249.224C322.927 248.946 322.25 248.731 321.528 248.695C321.168 248.676 320.797 248.699 320.438 248.785C320.268 248.829 320.063 248.86 319.883 248.96C319.71 249.048 319.553 249.148 319.4 249.256C319.096 249.476 318.803 249.72 318.574 250.077C318.449 250.258 318.405 250.522 318.371 250.652L318.217 251.173C318.129 251.526 317.975 251.93 318.112 252.396C318.216 252.764 318.345 253.128 318.496 253.483C319.102 254.915 320.017 256.113 320.895 257.233C321.786 258.354 322.721 259.374 323.664 260.289C325.566 262.086 327.419 263.629 329.312 264.377C331.207 265.151 332.982 264.839 333.958 264.308C334.461 264.049 334.792 263.75 334.987 263.531C335.184 263.311 335.259 263.174 335.249 263.167C335.208 263.121 334.863 263.678 333.873 264.135C332.908 264.59 331.234 264.831 329.442 264.053C327.653 263.305 325.84 261.757 323.981 259.963C323.059 259.053 322.144 258.04 321.272 256.933C320.406 255.82 319.52 254.646 318.948 253.291C318.805 252.953 318.681 252.609 318.583 252.261C318.49 252.003 318.593 251.653 318.686 251.311L318.841 250.779C318.898 250.559 318.905 250.454 318.988 250.331C319.147 250.077 319.409 249.843 319.679 249.649C319.814 249.552 319.957 249.462 320.098 249.389C320.226 249.313 320.376 249.296 320.541 249.25C320.858 249.172 321.184 249.15 321.504 249.164C322.149 249.192 322.773 249.381 323.35 249.637C324.508 250.16 325.497 250.909 326.4 251.624C327.306 252.348 328.137 253.026 328.844 253.708C330.265 255.067 331.395 256.212 332.267 256.903C332.696 257.255 333.047 257.505 333.291 257.666C333.538 257.825 333.671 257.9 333.681 257.886Z" fill="#F1B18F"/>
<path d="M328.718 253.346C328.718 253.482 329.984 253.592 331.547 253.592C333.11 253.592 334.376 253.481 334.376 253.345C334.376 253.209 333.11 253.098 331.547 253.099C329.985 253.099 328.718 253.21 328.718 253.346Z" fill="#F1B18F"/>
<path d="M325.261 266.767C325.267 266.752 325.092 266.666 324.755 266.517C324.366 266.352 323.875 266.145 323.272 265.89C321.914 265.34 320.053 264.586 317.781 263.666C316.619 263.208 315.352 262.669 313.922 262.257C312.501 261.849 310.876 261.576 309.189 261.854C308.351 261.991 307.502 262.266 306.731 262.736C305.988 263.191 305.178 263.886 305.051 264.933C304.946 265.959 305.513 266.913 306.276 267.526C307.048 268.147 307.975 268.482 308.853 268.831C312.406 270.222 315.787 271.544 318.874 272.752C320.412 273.354 321.898 273.923 323.36 274.232C324.817 274.536 326.25 274.597 327.5 274.266C328.757 273.961 329.758 273.16 330.241 272.252C330.744 271.352 330.884 270.47 330.959 269.773C331.026 269.069 331.015 268.523 331.001 268.154C330.986 267.784 330.962 267.592 330.946 267.592C330.896 267.59 330.942 268.372 330.768 269.75C330.667 270.43 330.498 271.281 330.003 272.112C329.525 272.95 328.605 273.657 327.415 273.929C326.233 274.22 324.857 274.146 323.448 273.834C322.031 273.515 320.576 272.944 319.041 272.33C315.959 271.111 312.582 269.776 309.035 268.373C308.149 268.023 307.271 267.698 306.586 267.145C305.913 266.615 305.447 265.783 305.533 264.988C305.616 264.191 306.283 263.564 306.979 263.139C307.687 262.704 308.477 262.44 309.267 262.304C310.858 262.029 312.419 262.271 313.814 262.653C315.217 263.039 316.486 263.555 317.657 263.993C319.953 264.853 321.833 265.557 323.204 266.071C323.822 266.291 324.325 266.47 324.721 266.612C325.068 266.729 325.254 266.783 325.261 266.767Z" fill="#F1B18F"/>
<path d="M305.44 266.714C305.446 266.697 305.279 266.619 304.958 266.483C304.582 266.332 304.113 266.143 303.539 265.913C302.299 265.447 300.5 264.735 298.158 264.242C296.987 264.007 295.676 263.832 294.262 263.876C293.551 263.908 292.838 263.934 292.067 264.115C291.688 264.217 291.282 264.406 291 264.755C290.717 265.097 290.584 265.54 290.578 265.972C290.545 266.853 291.053 267.681 291.693 268.235C292.338 268.811 293.073 269.225 293.803 269.677C295.285 270.549 296.885 271.338 298.57 272.022C301.94 273.404 305.276 274.334 308.284 275.21C309.788 275.643 311.219 276.054 312.564 276.44C313.904 276.815 315.149 277.21 316.338 277.41C317.523 277.61 318.646 277.596 319.579 277.313C320.507 277.028 321.212 276.535 321.67 276.036C322.14 275.539 322.348 275.034 322.444 274.696C322.54 274.353 322.519 274.163 322.519 274.163C322.454 274.13 322.462 274.964 321.532 275.902C321.076 276.358 320.388 276.803 319.503 277.048C318.619 277.29 317.544 277.282 316.398 277.066C315.25 276.852 314.017 276.441 312.678 276.047C311.337 275.647 309.911 275.221 308.411 274.774C305.409 273.874 302.09 272.933 298.756 271.565C297.088 270.888 295.51 270.113 294.048 269.26C293.329 268.819 292.592 268.404 292.007 267.883C291.417 267.371 291.011 266.696 291.031 265.979C291.017 265.25 291.497 264.686 292.182 264.533C292.856 264.365 293.595 264.322 294.273 264.285C295.649 264.226 296.933 264.377 298.089 264.585C300.402 265.026 302.213 265.685 303.471 266.095C304.057 266.29 304.537 266.45 304.92 266.578C305.256 266.682 305.434 266.729 305.44 266.714Z" fill="#F1B18F"/>
<path d="M254.144 272.973C254.144 272.973 229.242 335.863 215.18 337.511C200.2 339.267 185.667 325.982 188.395 303.045C189.441 294.246 195.574 252.812 195.574 252.812L226.753 266.229L218.467 283.413L230.753 264.221L254.144 272.973Z" fill="#FFD1BA"/>
<path d="M197.728 315.421C197.78 315.421 197.749 314.616 197.824 313.171C197.91 311.733 198.043 309.623 198.785 307.157C199.507 304.708 200.952 301.888 203.52 299.659C204.762 298.54 206.372 297.638 207.749 296.341C209.173 295.11 210.507 293.693 211.823 292.205C217.011 286.174 220.848 280.078 223.644 275.713C225.027 273.517 226.121 271.725 226.872 270.483C227.219 269.901 227.502 269.426 227.727 269.048C227.918 268.716 228.011 268.538 227.995 268.528C227.98 268.519 227.857 268.678 227.638 268.991C227.392 269.355 227.081 269.813 226.7 270.374C225.865 271.648 224.725 273.388 223.332 275.513C220.461 279.821 216.578 285.874 211.429 291.859C210.124 293.334 208.805 294.739 207.41 295.955C206.071 297.23 204.501 298.113 203.199 299.298C200.57 301.614 199.117 304.544 198.429 307.054C197.719 309.582 197.644 311.717 197.619 313.166C197.612 313.895 197.635 314.459 197.664 314.841C197.689 315.222 197.71 315.422 197.728 315.421Z" fill="#F1B18F"/>
<path d="M240.055 240.187C238.724 242.406 235.702 249.243 235.702 249.243C235.702 249.243 227.599 260.862 227.995 268.529C228.072 270.017 232.746 273.062 232.746 273.062C232.746 273.062 247.53 284.158 251.078 284.898C254.626 285.638 259.949 282.235 260.539 282.087C261.131 281.939 281.093 269.212 281.193 267.415C281.361 264.43 279.036 263.545 279.036 263.545L256.4 262.261L245.639 253.828L246.116 247.568" fill="#FFD1BA"/>
<path d="M241.195 262.444C241.177 262.473 241.611 262.794 242.413 263.35C243.292 263.946 244.442 264.725 245.83 265.665C247.294 266.634 248.971 267.777 250.966 269.045C251.558 269.362 252.226 269.283 252.799 269.31C253.398 269.321 254.01 269.347 254.634 269.38C255.881 269.447 257.171 269.556 258.496 269.668C261.145 269.897 263.689 270.065 266.007 270.002C267.182 269.966 268.305 269.78 269.273 269.291C270.233 268.813 270.926 267.863 270.942 266.913C270.987 265.978 270.613 265.182 270.164 264.628C269.703 264.074 269.182 263.732 268.746 263.501C268.307 263.272 267.944 263.147 267.696 263.072C267.448 262.998 267.313 262.977 267.309 262.991C267.292 263.035 267.822 263.181 268.651 263.668C269.059 263.916 269.54 264.267 269.948 264.799C270.343 265.323 270.656 266.069 270.594 266.889C270.555 267.714 269.963 268.5 269.084 268.929C268.21 269.353 267.118 269.53 265.997 269.548C263.704 269.586 261.186 269.406 258.536 269.176C257.211 269.065 255.915 268.959 254.657 268.898C254.029 268.867 253.411 268.844 252.805 268.839C252.188 268.821 251.616 268.884 251.166 268.638C249.247 267.421 247.507 266.317 246.018 265.373C244.594 264.485 243.414 263.749 242.513 263.187C241.681 262.681 241.212 262.415 241.195 262.444Z" fill="#F1B18F"/>
<path d="M240.436 273.348C240.433 273.364 240.587 273.408 240.882 273.475C241.234 273.548 241.662 273.637 242.178 273.744C243.383 273.971 244.999 274.276 246.961 274.645C249.008 275.012 251.41 275.443 254.066 275.919C255.406 276.154 256.809 276.4 258.263 276.654C258.994 276.773 259.721 276.931 260.51 277.008C261.286 277.093 262.178 276.975 262.891 276.54C263.606 276.123 264.187 275.628 264.817 275.202C265.439 274.766 266.062 274.352 266.686 273.967C267.934 273.195 269.191 272.539 270.437 272.036C271.674 271.525 272.936 271.219 274.069 270.736C275.216 270.269 276.155 269.565 276.924 268.877C277.693 268.177 278.349 267.531 278.914 266.92C279.469 266.306 279.825 265.606 279.813 264.991C279.814 264.385 279.571 263.942 279.343 263.73C279.112 263.512 278.938 263.49 278.938 263.49C278.925 263.512 279.08 263.575 279.269 263.797C279.458 264.014 279.65 264.433 279.621 264.985C279.606 266.155 278.183 267.261 276.696 268.614C275.923 269.275 275.02 269.926 273.914 270.358C272.816 270.809 271.55 271.1 270.27 271.613C268.991 272.115 267.706 272.776 266.435 273.554C265.8 273.942 265.168 274.36 264.538 274.8C263.903 275.229 263.293 275.737 262.651 276.109C261.361 276.91 259.79 276.379 258.347 276.177C256.891 275.932 255.486 275.695 254.144 275.47C251.483 275.033 249.074 274.637 247.022 274.301C245.049 273.994 243.424 273.742 242.213 273.554C241.69 273.483 241.257 273.425 240.901 273.375C240.598 273.342 240.438 273.331 240.436 273.348Z" fill="#F1B18F"/>
<path d="M246.616 280.412C246.602 280.476 247.377 280.726 248.658 281.024C249.94 281.319 251.728 281.653 253.725 281.873C255.724 282.093 257.533 282.181 258.862 282.151C260.219 282.12 260.971 281.622 260.924 281.571C260.895 281.507 260.154 281.861 258.859 281.802C257.567 281.743 255.757 281.6 253.779 281.382C251.799 281.163 250.016 280.887 248.724 280.682C247.434 280.473 246.632 280.343 246.616 280.412Z" fill="#F1B18F"/>
<path d="M231.506 270.63C231.488 270.634 231.505 270.751 231.551 270.973C231.601 271.194 231.708 271.513 231.897 271.903C232.284 272.675 233.104 273.686 234.423 274.505C235.079 274.911 235.853 275.283 236.704 275.571C237.115 275.716 237.487 275.899 237.599 276.272C237.715 276.645 237.738 277.206 237.918 277.696C238.246 278.694 238.895 279.648 239.823 280.33C240.76 281.015 241.911 281.345 243.04 281.6C244.172 281.857 245.273 282.071 246.212 282.54C247.123 283.039 248.036 283.637 248.889 284.142C249.324 284.4 249.716 284.66 250.181 284.893C250.642 285.095 251.12 285.225 251.585 285.256C252.517 285.337 253.367 285.178 254.109 284.979C255.594 284.562 256.705 284.016 257.472 283.656C258.237 283.285 258.651 283.065 258.637 283.032C258.623 282.998 258.179 283.156 257.391 283.469C256.601 283.771 255.47 284.261 254.018 284.619C253.295 284.789 252.479 284.915 251.63 284.823C251.205 284.787 250.783 284.66 250.379 284.476C249.996 284.278 249.573 283.995 249.15 283.735C248.284 283.207 247.441 282.637 246.442 282.08C245.42 281.564 244.275 281.345 243.158 281.088C242.04 280.837 240.969 280.523 240.127 279.914C239.289 279.306 238.687 278.444 238.378 277.543C238.202 277.088 238.2 276.649 238.034 276.115C237.841 275.537 237.254 275.288 236.848 275.16C236.003 274.894 235.263 274.559 234.616 274.188C233.324 273.439 232.503 272.516 232.077 271.805C231.657 271.083 231.555 270.616 231.506 270.63Z" fill="#F1B18F"/>
<path d="M242.97 251.549C242.879 251.663 245.813 254.153 249.521 257.11C253.231 260.069 256.31 262.374 256.4 262.261C256.491 262.147 253.558 259.658 249.848 256.699C246.14 253.742 243.06 251.436 242.97 251.549Z" fill="#F1B18F"/>
<path d="M9.74775 237.808C4.45688 204.437 27.1998 173.093 60.5454 167.799C93.891 162.504 125.212 185.263 130.503 218.634C135.794 252.004 113.051 283.348 79.7053 288.642C46.3597 293.937 15.0386 271.178 9.74775 237.808Z" fill="#F5F5F5"/>
<path d="M8.96751 228.203C8.96751 228.203 8.99164 227.868 9.01579 227.212C9.05718 226.556 9.03392 225.579 9.1495 224.304C9.30647 221.752 9.73339 217.986 10.8995 213.27C11.5248 210.925 12.2829 208.328 13.411 205.596C14.5159 202.86 15.8769 199.942 17.6666 196.995C21.2019 191.093 26.2707 184.918 33.1758 179.653C36.6137 177.013 40.5216 174.645 44.828 172.689C49.1318 170.735 53.835 169.167 58.8503 168.264C63.8562 167.34 69.1553 166.977 74.5665 167.401C77.2756 167.562 79.9993 168.003 82.7334 168.545C85.4615 169.13 88.1827 169.913 90.8805 170.871C101.631 174.768 111.846 182.044 119.205 192.135C121.068 194.634 122.698 197.333 124.171 200.137C125.646 202.941 126.896 205.894 127.896 208.953C129.953 215.055 130.976 221.587 131.013 228.195C130.978 234.805 129.956 241.339 127.899 247.443C127.415 248.979 126.807 250.464 126.219 251.949C125.564 253.406 124.925 254.864 124.174 256.262C122.702 259.066 121.071 261.767 119.207 264.266C111.848 274.36 101.631 281.638 90.8788 285.535C88.1809 286.494 85.4598 287.277 82.7308 287.862C79.9959 288.404 77.2722 288.845 74.5631 289.007C69.151 289.429 63.8519 289.066 58.8452 288.143C53.8298 287.24 49.1267 285.67 44.8228 283.716C40.5164 281.759 36.6085 279.391 33.1706 276.75C26.2656 271.484 21.1976 265.31 17.6631 259.408C15.8743 256.461 14.5124 253.543 13.4084 250.807C12.2812 248.075 11.5222 245.478 10.8977 243.134C9.73166 238.419 9.30473 234.653 9.14776 232.102C9.03219 230.827 9.05464 229.85 9.0141 229.195C8.99168 228.539 8.96751 228.203 8.96751 228.203C8.96751 228.203 8.93303 229.549 9.05895 232.107C9.1866 234.663 9.58589 238.441 10.7295 243.177C11.3428 245.53 12.0914 248.14 13.2109 250.886C14.3072 253.637 15.663 256.571 17.4492 259.537C20.9776 265.474 26.0517 271.694 32.98 277.003C36.4291 279.664 40.3534 282.055 44.6805 284.031C49.005 286.004 53.7332 287.592 58.7787 288.509C63.8148 289.446 69.1467 289.82 74.5933 289.4C77.3205 289.241 80.0632 288.801 82.8162 288.258C85.5641 287.673 88.3043 286.888 91.022 285.924C101.851 282.011 112.146 274.689 119.563 264.526C121.442 262.009 123.086 259.29 124.569 256.465C125.326 255.058 125.97 253.589 126.631 252.122C127.223 250.625 127.836 249.13 128.325 247.583C130.398 241.434 131.428 234.852 131.463 228.193C131.426 221.537 130.394 214.957 128.321 208.81C127.313 205.729 126.053 202.755 124.566 199.931C123.081 197.107 121.438 194.39 119.56 191.873C112.143 181.713 101.85 174.393 91.022 170.48C88.3051 169.518 85.565 168.732 82.8171 168.147C80.0641 167.604 77.3222 167.163 74.595 167.005C69.1484 166.586 63.8174 166.958 58.7813 167.895C53.7366 168.812 49.0085 170.398 44.684 172.372C40.3569 174.347 36.4325 176.737 32.9826 179.398C26.0534 184.707 20.9794 190.926 17.4501 196.864C15.6639 199.83 14.308 202.765 13.2109 205.515C12.0914 208.262 11.3428 210.871 10.7287 213.226C9.58504 217.962 9.18571 221.74 9.05806 224.297C8.933 226.857 8.96751 228.203 8.96751 228.203Z" fill="#263238"/>
<path d="M34.5946 255.453H98.5256C101.994 255.453 104.805 252.64 104.805 249.169V210.128C104.805 206.657 101.994 203.844 98.5256 203.844H34.5946C31.1266 203.844 28.3157 206.657 28.3157 210.128V249.169C28.3157 252.639 31.1266 255.453 34.5946 255.453Z" fill="#A855F7"/>
<g opacity="0.3">
<path d="M28.3157 214.992H104.805V225.808H28.3157V214.992Z" fill="white"/>
</g>
<path d="M71.0648 243.914C71.0648 244.038 77.2998 244.138 84.9897 244.138C92.6822 244.138 98.9163 244.038 98.9163 243.914C98.9163 243.79 92.6822 243.689 84.9897 243.689C77.2998 243.689 71.0648 243.79 71.0648 243.914Z" fill="#263238"/>
<path d="M65.1991 241.442C65.1991 241.566 72.7476 241.666 82.0564 241.666C91.3687 241.666 98.9154 241.565 98.9154 241.442C98.9154 241.318 91.3687 241.217 82.0564 241.217C72.7476 241.217 65.1991 241.318 65.1991 241.442Z" fill="#263238"/>
<path d="M44.6046 239.574C42.1276 239.574 40.1197 237.561 40.1197 235.078C40.1197 232.595 42.1276 230.582 44.6046 230.582C47.0816 230.582 49.0895 232.595 49.0895 235.078C49.0895 237.561 47.0816 239.574 44.6046 239.574Z" fill="white"/>
<path d="M38.6189 239.701C41.1175 239.701 43.1513 237.664 43.1513 235.158C43.1513 232.654 41.1184 230.616 38.6189 230.616C36.1194 230.616 34.0866 232.653 34.0866 235.158C34.0866 237.664 36.1194 239.701 38.6189 239.701ZM38.6189 231.48C40.6423 231.48 42.2888 233.13 42.2888 235.159C42.2888 237.189 40.6423 238.839 38.6189 238.839C36.5955 238.839 34.9491 237.189 34.9491 235.159C34.9491 233.13 36.5955 231.48 38.6189 231.48Z" fill="white"/>
<path d="M130.426 230.154C130.426 230.278 143.629 230.378 159.913 230.378C176.202 230.378 189.402 230.277 189.402 230.154C189.402 230.03 176.202 229.929 159.913 229.929C143.629 229.929 130.426 230.03 130.426 230.154Z" fill="#263238"/>
<path d="M130.075 122.549C96.311 122.549 68.9397 95.1573 68.9397 61.3682C68.9397 27.5792 96.311 0.187744 130.075 0.187744C163.84 0.187744 191.211 27.5792 191.211 61.3682C191.211 95.1573 163.84 122.549 130.075 122.549Z" fill="#F5F5F5"/>
<path d="M68.9397 61.3683C68.9397 61.3683 68.9639 61.0325 68.988 60.3766C69.0294 59.7215 69.0061 58.7435 69.1217 57.4687C69.2778 54.9173 69.7056 51.1507 70.8717 46.4346C71.497 44.0904 72.2559 41.4932 73.3832 38.7615C74.4881 36.0254 75.8491 33.1072 77.6387 30.1596C81.1741 24.2576 86.2429 18.0828 93.148 12.8178C96.5858 10.1784 100.494 7.81 104.8 5.85417C109.104 3.90007 113.807 2.33092 118.822 1.42896C123.828 0.505418 129.127 0.142045 134.539 0.565836C137.248 0.72724 139.972 1.16829 142.706 1.71033C145.434 2.29466 148.155 3.07838 150.853 4.03644C161.603 7.93342 171.818 15.2095 179.177 25.3003C181.04 27.799 182.671 30.498 184.143 33.3022C185.619 36.1065 186.868 39.0592 187.868 42.1181C189.925 48.2204 190.948 54.7516 190.985 61.3597C190.951 67.9703 189.929 74.5041 187.872 80.6081C187.387 82.1444 186.779 83.629 186.191 85.1144C185.536 86.5714 184.897 88.0292 184.146 89.4266C182.674 92.2309 181.043 94.9315 179.18 97.4311C171.821 107.525 161.604 114.803 150.852 118.701C148.154 119.66 145.433 120.443 142.704 121.028C139.969 121.57 137.245 122.011 134.536 122.172C129.124 122.595 123.825 122.232 118.818 121.308C113.803 120.406 109.1 118.836 104.796 116.882C100.489 114.925 96.5815 112.556 93.1437 109.917C86.2386 104.651 81.1706 98.4764 77.6362 92.5752C75.8474 89.6277 74.4855 86.7095 73.3815 83.9734C72.2542 81.2416 71.4952 78.6445 70.8708 76.3011C69.7047 71.5859 69.2778 67.8192 69.1208 65.2687C69.0053 63.9939 69.0277 63.0168 68.9871 62.3617C68.963 61.7049 68.9397 61.3683 68.9397 61.3683C68.9397 61.3683 68.9052 62.7148 69.0311 65.2722C69.1588 67.8279 69.5581 71.6058 70.7018 76.3417C71.315 78.6954 72.0636 81.3046 73.1831 84.0511C74.2793 86.8018 75.6352 89.7356 77.4214 92.7021C80.9498 98.6404 86.0238 104.859 92.9522 110.168C96.4013 112.829 100.326 115.22 104.653 117.196C108.977 119.169 113.705 120.757 118.751 121.674C123.787 122.611 129.119 122.985 134.565 122.565C137.293 122.406 140.035 121.966 142.788 121.423C145.536 120.838 148.276 120.053 150.994 119.089C161.824 115.176 172.118 107.854 179.536 97.6918C181.414 95.1749 183.058 92.4561 184.541 89.6311C185.298 88.2243 185.942 86.7552 186.603 85.2879C187.195 83.7913 187.808 82.2955 188.297 80.7488C190.37 74.5999 191.4 68.0178 191.435 61.3588C191.398 54.7024 190.367 48.1229 188.293 41.9757C187.285 38.8944 186.025 35.9209 184.538 33.0968C183.054 30.2735 181.41 27.5556 179.532 25.0387C172.116 14.8789 161.823 7.55969 150.995 3.64631C148.278 2.68393 145.538 1.89763 142.79 1.31244C140.037 0.769534 137.295 0.329341 134.568 0.170527C129.121 -0.248086 123.79 0.124783 118.754 1.06127C113.71 1.9779 108.982 3.56431 104.657 5.5374C100.33 7.51308 96.4056 9.90306 92.9556 12.5641C86.0264 17.8731 80.9524 24.0919 77.4231 30.0301C75.6369 32.9958 74.2811 35.9313 73.184 38.6812C72.0645 41.4276 71.3159 44.0368 70.7018 46.3914C69.5581 51.1274 69.1588 54.9061 69.0311 57.4627C68.9043 60.0227 68.9397 61.3683 68.9397 61.3683Z" fill="#263238"/>
<path d="M118.347 33.0969L142.267 33.1798L142.267 33.3429L145.773 93.6672L94.6832 93.4903L94.8108 56.591L118.347 33.0969Z" fill="#A855F7"/>
<g opacity="0.3">
<path d="M118.347 33.0969L142.267 33.1798L142.267 33.3429L145.773 93.6672L94.6832 93.4903L94.8108 56.591L118.347 33.0969Z" fill="black"/>
</g>
<path d="M142.267 33.1798L166.11 55.6615L165.978 93.738L118.138 93.5714L118.267 56.3045L142.267 33.1798Z" fill="#A855F7"/>
<g opacity="0.3">
<path d="M125.331 59.7184L135.525 59.7542L135.49 69.9562L125.295 69.9205L125.331 59.7184Z" fill="white"/>
</g>
<g opacity="0.3">
<path d="M150.201 59.7977L160.395 59.8334L160.36 70.0354L150.165 69.9997L150.201 59.7977Z" fill="white"/>
</g>
<path d="M155.377 37.289L160.474 37.3069L160.422 52.4408L155.324 52.4229L155.377 37.289Z" fill="#A855F7"/>
<g opacity="0.3">
<path d="M138.294 74.8823L150.148 74.9238L150.082 93.6665L138.228 93.625L138.294 74.8823Z" fill="black"/>
</g>
<path d="M118.347 33.0968C118.344 33.0933 118.302 33.1261 118.226 33.1952C118.136 33.2781 118.026 33.3808 117.888 33.5094C117.579 33.8089 117.148 34.2232 116.598 34.754C115.46 35.8717 113.824 37.478 111.757 39.5089C107.595 43.6355 101.697 49.484 94.6711 56.4502L94.3236 56.7946L94.8135 56.7894C101.882 56.7109 109.83 56.622 118.269 56.5279L118.358 56.527L118.421 56.4658C119.73 55.2056 121.122 53.8643 122.529 52.5092C129.703 45.5861 136.483 39.0428 142.406 33.3255L142.129 33.3272C149.661 40.3893 156.003 46.3345 160.483 50.5344C162.709 52.6016 164.471 54.238 165.698 55.3774C166.291 55.9194 166.754 56.3423 167.088 56.647C167.237 56.7782 167.355 56.8826 167.451 56.9672C167.534 57.038 167.578 57.0717 167.581 57.0674C167.585 57.063 167.549 57.0216 167.474 56.9431C167.384 56.8524 167.273 56.7402 167.133 56.5995C166.81 56.2845 166.36 55.846 165.785 55.285C164.577 54.1267 162.84 52.4626 160.648 50.36C156.195 46.1308 149.892 40.1442 142.405 33.0338L142.266 32.9017L142.127 33.0355C136.193 38.7425 129.403 45.2746 122.217 52.1856C120.811 53.5415 119.419 54.8828 118.111 56.1438L118.263 56.0817C109.824 56.1939 101.876 56.3 94.8074 56.3941L94.9497 56.7333C101.928 49.7196 107.787 43.8323 111.921 39.6772C113.955 37.6135 115.564 35.9805 116.684 34.8438C117.217 34.2939 117.632 33.8658 117.932 33.556C118.06 33.4187 118.163 33.3091 118.246 33.2194C118.317 33.1417 118.351 33.1011 118.347 33.0968Z" fill="#263238"/>
<path d="M138.301 93.6412C138.314 93.6412 138.327 93.5169 138.34 93.2787C138.349 92.9956 138.361 92.6503 138.376 92.2309C138.391 91.2573 138.414 89.9419 138.441 88.3227C138.46 84.9323 138.488 80.2784 138.519 74.94L138.301 75.1584C140.175 75.1601 142.165 75.1627 144.214 75.1653C146.25 75.1627 148.226 75.1609 150.089 75.1584L149.871 74.94C149.902 80.2896 149.93 84.9539 149.95 88.352C149.976 89.9755 149.998 91.2935 150.014 92.2688C150.029 92.6892 150.041 93.0353 150.051 93.3184C150.063 93.5575 150.076 93.6818 150.089 93.6818C150.103 93.6818 150.115 93.5575 150.128 93.3184C150.138 93.0353 150.15 92.6892 150.164 92.2688C150.181 91.2935 150.202 89.9747 150.229 88.352C150.249 84.9539 150.277 80.2905 150.308 74.94L150.308 74.7216H150.089C148.226 74.7199 146.25 74.7173 144.214 74.7156C142.165 74.7182 140.174 74.7199 138.301 74.7225H138.082L138.084 74.9409C138.115 80.2792 138.142 84.9332 138.162 88.3235C138.189 89.9427 138.21 91.259 138.227 92.2317C138.241 92.6512 138.253 92.9964 138.263 93.2795C138.275 93.5169 138.288 93.6412 138.301 93.6412Z" fill="#263238"/>
<path d="M162.623 113.163C162.517 113.227 172.932 130.741 185.884 152.276C198.841 173.818 209.427 191.224 209.533 191.16C209.639 191.096 199.225 173.586 186.269 152.043C173.318 130.509 162.73 113.099 162.623 113.163Z" fill="#263238"/>
<path d="M439.163 124.535C405.399 124.535 378.027 97.1434 378.027 63.3543C378.027 29.5653 405.399 2.17383 439.163 2.17383C472.927 2.17383 500.299 29.5653 500.299 63.3543C500.299 97.1434 472.927 124.535 439.163 124.535Z" fill="#F5F5F5"/>
<path d="M378.027 63.3543C378.027 63.3543 378.052 63.0185 378.076 62.3625C378.117 61.7074 378.094 60.7295 378.209 59.4547C378.366 56.9033 378.793 53.1367 379.959 48.4206C380.585 46.0763 381.343 43.4792 382.471 40.7474C383.576 38.0114 384.937 35.0931 386.727 32.1456C390.262 26.2444 395.331 20.0688 402.236 14.8038C405.674 12.1644 409.582 9.79598 413.888 7.84015C418.192 5.88605 422.895 4.31776 427.91 3.41494C432.916 2.4914 438.215 2.12803 443.627 2.55182C446.336 2.71322 449.059 3.15428 451.793 3.69632C454.521 4.28065 457.243 5.0635 459.94 6.02242C470.691 9.91941 480.906 17.1955 488.265 27.2862C490.128 29.785 491.758 32.4839 493.231 35.2882C494.706 38.0925 495.956 41.0452 496.956 44.1041C499.013 50.2064 500.036 56.7376 500.073 63.3456C500.038 69.9563 499.016 76.4901 496.959 82.5941C496.475 84.1304 495.867 85.615 495.279 87.1004C494.624 88.5574 493.985 90.0152 493.234 91.4126C491.762 94.2168 490.131 96.9175 488.268 99.4171C480.908 109.511 470.691 116.789 459.94 120.687C457.242 121.646 454.521 122.429 451.792 123.014C449.057 123.556 446.333 123.997 443.623 124.158C438.211 124.581 432.912 124.218 427.905 123.294C422.889 122.392 418.187 120.822 413.883 118.868C409.576 116.911 405.668 114.542 402.231 111.902C395.326 106.636 390.258 100.462 386.723 94.5604C384.934 91.6128 383.572 88.6946 382.468 85.9585C381.341 83.2267 380.582 80.6296 379.958 78.2862C378.792 73.571 378.365 69.8044 378.208 67.2538C378.092 65.979 378.115 65.002 378.074 64.3469C378.052 63.69 378.027 63.3543 378.027 63.3543C378.027 63.3543 377.993 64.6999 378.119 67.2582C378.247 69.8147 378.646 73.5917 379.79 78.3277C380.403 80.6823 381.151 83.2906 382.271 86.0371C383.367 88.7878 384.723 91.7215 386.509 94.6881C390.038 100.626 395.112 106.845 402.04 112.154C405.489 114.815 409.413 117.206 413.74 119.182C418.065 121.155 422.793 122.743 427.839 123.66C432.875 124.597 438.207 124.971 443.653 124.551C446.38 124.392 449.123 123.952 451.876 123.409C454.624 122.824 457.364 122.039 460.082 121.075C470.911 117.162 481.206 109.84 488.623 99.6769C490.502 97.1601 492.146 94.4412 493.629 91.6162C494.386 90.2094 495.03 88.7403 495.691 87.273C496.283 85.7764 496.895 84.2806 497.384 82.7339C499.457 76.585 500.487 70.0029 500.522 63.3439C500.485 56.6884 499.454 50.108 497.38 43.9617C496.372 40.8804 495.112 37.9069 493.625 35.0828C492.141 32.2587 490.497 29.5416 488.619 27.0247C481.202 16.8649 470.91 9.54568 460.082 5.63229C457.365 4.66991 454.625 3.88361 451.877 3.29842C449.124 2.75552 446.382 2.31532 443.655 2.15651C438.208 1.7379 432.877 2.1099 427.841 3.04725C422.797 3.96388 418.068 5.5503 413.744 7.52339C409.417 9.49907 405.493 11.889 402.043 14.55C395.114 19.8591 390.039 26.0779 386.51 32.0153C384.724 34.9809 383.368 37.9164 382.271 40.6663C381.151 43.4128 380.403 46.022 379.789 48.3766C378.645 53.1125 378.246 56.8912 378.118 59.4478C377.993 62.0078 378.027 63.3543 378.027 63.3543Z" fill="#263238"/>
<path d="M466.259 26.6311V100.299H415.622C410.822 100.299 406.93 96.4048 406.93 91.6016V39.9482L424.84 22.0255H461.657C464.199 22.0246 466.259 24.0875 466.259 26.6311Z" fill="white"/>
<path d="M466.259 26.6311C466.259 26.6311 466.264 26.5646 466.262 26.4343C466.263 26.3031 466.256 26.1072 466.213 25.8508C466.132 25.3459 465.936 24.5639 465.309 23.7552C464.698 22.962 463.606 22.1342 462.105 21.9771C460.624 21.9245 458.94 21.9495 457.032 21.9323C449.397 21.9141 438.391 21.8891 424.841 21.858H424.771L424.721 21.9072C419.349 27.2698 413.304 33.3056 406.79 39.8083L406.731 39.8662V39.949C406.725 48.8124 406.719 58.3844 406.712 68.4673C406.71 73.5097 406.709 78.6798 406.707 83.9526C406.714 86.5928 406.689 89.2435 406.722 91.9451C406.777 93.3191 407.142 94.6915 407.813 95.9076C408.492 97.1195 409.45 98.1759 410.6 98.9734C411.663 99.7028 412.887 100.184 414.147 100.392C415.425 100.598 416.669 100.5 417.903 100.524C420.378 100.524 422.835 100.523 425.269 100.523C430.139 100.521 434.922 100.52 439.6 100.518C448.957 100.512 457.894 100.507 466.258 100.502H466.461V100.299C466.427 78.4649 466.4 60.0519 466.38 47.0827C466.356 40.6136 466.336 35.5057 466.323 31.998C466.309 30.2605 466.299 28.9235 466.292 28.0043C466.285 27.5607 466.28 27.2215 466.275 26.9781C466.27 26.7476 466.259 26.6311 466.259 26.6311C466.259 26.6311 466.248 26.7485 466.243 26.9781C466.238 27.2215 466.233 27.5607 466.226 28.0043C466.219 28.9235 466.209 30.2605 466.195 31.998C466.182 35.5048 466.162 40.6136 466.138 47.0827C466.118 60.0511 466.09 78.464 466.057 100.299L466.26 100.096C457.895 100.091 448.958 100.086 439.602 100.08C434.924 100.078 430.14 100.077 425.271 100.076C422.836 100.076 420.38 100.075 417.905 100.075C416.669 100.052 415.41 100.144 414.222 99.9488C413.025 99.7502 411.864 99.2945 410.855 98.6014C409.764 97.8436 408.853 96.8398 408.208 95.6901C407.57 94.5353 407.224 93.2328 407.172 91.9278C407.138 89.2608 407.161 86.5851 407.154 83.9526C407.152 78.6789 407.15 73.5088 407.149 68.4673C407.142 58.3835 407.136 48.8124 407.13 39.949L407.072 40.0897C413.57 33.5706 419.601 27.521 424.96 22.1455L424.841 22.1946C438.392 22.1636 449.397 22.1377 457.032 22.1204C458.934 22.123 460.638 22.0842 462.092 22.1204C463.548 22.2577 464.623 23.0483 465.233 23.8165C465.859 24.5993 466.068 25.3632 466.165 25.8603C466.26 26.3635 466.237 26.6319 466.259 26.6311Z" fill="#263238"/>
<path d="M424.84 22.0247L406.93 39.9473H421.824C423.49 39.9473 424.84 38.5957 424.84 36.929V22.0247Z" fill="#E0E0E0"/>
<path d="M475.708 89.5387C475.708 95.4813 470.893 100.299 464.955 100.299H415.382C419.299 98.3995 421.831 94.4723 421.946 90.117L421.962 89.5378L475.708 89.5387Z" fill="#E0E0E0"/>
<path d="M446.316 38.039C446.316 38.1633 449.183 38.2634 452.719 38.2634C456.256 38.2634 459.123 38.1624 459.123 38.039C459.123 37.9156 456.256 37.8146 452.719 37.8146C449.183 37.8137 446.316 37.9147 446.316 38.039Z" fill="#263238"/>
<path d="M419.186 46.1152C419.186 46.2395 427.773 46.3396 438.365 46.3396C448.958 46.3396 457.544 46.2386 457.544 46.1152C457.544 45.9909 448.959 45.8908 438.365 45.8908C427.773 45.8899 419.186 45.9909 419.186 46.1152Z" fill="#263238"/>
<path d="M419.186 53.2272C419.186 53.3515 427.773 53.4516 438.365 53.4516C448.958 53.4516 457.544 53.3506 457.544 53.2272C457.544 53.1029 448.959 53.0028 438.365 53.0028C427.773 53.0019 419.186 53.1029 419.186 53.2272Z" fill="#263238"/>
<path d="M419.186 60.3394C419.186 60.4637 427.773 60.5638 438.365 60.5638C448.958 60.5638 457.544 60.4628 457.544 60.3394C457.544 60.2151 448.959 60.115 438.365 60.115C427.773 60.1141 419.186 60.2151 419.186 60.3394Z" fill="#263238"/>
<path d="M419.186 67.4515C419.186 67.5758 427.773 67.6759 438.365 67.6759C448.958 67.6759 457.544 67.5749 457.544 67.4515C457.544 67.328 448.959 67.2271 438.365 67.2271C427.773 67.2271 419.186 67.3272 419.186 67.4515Z" fill="#263238"/>
<path d="M419.186 74.5636C419.186 74.6879 427.773 74.7881 438.365 74.7881C448.958 74.7881 457.544 74.6871 457.544 74.5636C457.544 74.4394 448.959 74.3392 438.365 74.3392C427.773 74.3384 419.186 74.4394 419.186 74.5636Z" fill="#263238"/>
<path d="M419.186 81.6757C419.186 81.8 427.773 81.9001 438.365 81.9001C448.958 81.9001 457.544 81.7991 457.544 81.6757C457.544 81.5523 448.959 81.4513 438.365 81.4513C427.773 81.4513 419.186 81.5514 419.186 81.6757Z" fill="#263238"/>
<path d="M396.368 65.1495C396.592 73.8937 403.874 80.8004 412.631 80.576C421.389 80.3516 428.308 73.0816 428.084 64.3364C427.86 55.5922 420.579 48.6855 411.821 48.9108C403.064 49.1352 396.145 56.4052 396.368 65.1495Z" fill="#A855F7"/>
<g opacity="0.3">
<path d="M411.044 71.9915L411.068 74.0992L412.948 74.0776L412.925 72.0269C414.784 71.8931 416.564 71.2906 417.589 70.4698L416.53 68.186C415.597 68.8929 414.25 69.4159 412.897 69.5627L412.862 66.4209C414.944 65.8901 417.266 65.1677 417.237 62.4773C417.215 60.4826 415.748 58.7875 412.774 58.4819L412.751 56.3932L410.871 56.4139L410.894 58.4647C409.486 58.5933 408.118 58.9843 407.091 59.6549L408.056 61.9586C409.009 61.4027 409.983 61.0713 410.921 60.9479L410.956 64.1466C408.875 64.6584 406.59 65.3809 406.619 68.0332C406.64 69.9899 408.089 71.6669 411.044 71.9915ZM412.831 63.6546L412.801 60.9833C413.8 61.1982 414.2 61.7393 414.208 62.3599C414.215 63.0185 413.655 63.3827 412.831 63.6546ZM409.648 68.2248C409.641 67.5663 410.182 67.2029 410.987 66.9112L411.017 69.5074C410.073 69.3115 409.655 68.8273 409.648 68.2248Z" fill="black"/>
</g>
<g opacity="0.3">
<path d="M400.218 63.6935C400.292 63.6944 400.33 63.1619 400.5 62.2306C400.676 61.3044 401.008 59.964 401.799 58.4881C402.195 57.7536 402.702 56.9888 403.343 56.2491C403.989 55.5163 404.76 54.8026 405.67 54.1915C406.124 53.8851 406.608 53.5968 407.124 53.3508C407.639 53.1013 408.18 52.8761 408.749 52.7026C409.317 52.5274 409.906 52.3806 410.513 52.2926C411.12 52.2028 411.743 52.1562 412.373 52.1554C413.005 52.1631 413.627 52.2175 414.233 52.3133C414.84 52.4091 415.427 52.5628 415.992 52.744C416.56 52.9244 417.098 53.1557 417.61 53.4112C418.124 53.6641 418.604 53.9576 419.054 54.2691C419.957 54.8897 420.72 55.6139 421.357 56.3536C421.989 57.1002 422.488 57.8701 422.875 58.6098C423.649 60.0943 423.964 61.4382 424.129 62.3661C424.289 63.2991 424.321 63.8316 424.394 63.8316C424.448 63.8334 424.54 63.2991 424.487 62.3246C424.429 61.3562 424.203 59.9286 423.463 58.3224C423.093 57.5231 422.598 56.6842 421.951 55.8668C421.299 55.0563 420.504 54.2605 419.549 53.5743C419.073 53.2299 418.564 52.9054 418.014 52.6249C417.467 52.3418 416.889 52.0846 416.281 51.8843C415.672 51.6824 415.039 51.5123 414.385 51.4053C413.731 51.2974 413.059 51.2387 412.379 51.2301C411.699 51.2301 411.028 51.2819 410.372 51.382C409.717 51.4813 409.082 51.6444 408.472 51.8386C407.86 52.0319 407.28 52.2822 406.729 52.5593C406.177 52.8329 405.663 53.1514 405.183 53.4906C404.22 54.1664 403.416 54.9519 402.754 55.7554C402.099 56.5642 401.593 57.398 401.214 58.1929C400.455 59.7905 400.212 61.2155 400.143 62.1831C400.079 63.1593 400.164 63.6944 400.218 63.6935Z" fill="black"/>
</g>
<path d="M400.136 64.8249C400.142 64.8249 400.149 64.7576 400.156 64.6273C400.164 64.4805 400.174 64.2898 400.186 64.0481C400.192 63.7935 400.205 63.4793 400.268 63.1116C400.32 62.7431 400.362 62.3158 400.49 61.8498C400.677 60.9038 401.088 59.7826 401.737 58.5828C402.395 57.3883 403.357 56.1299 404.69 55.0449C406.019 53.9686 407.713 53.0382 409.691 52.6239C411.656 52.226 413.89 52.2372 416.027 53.0071C416.571 53.1685 417.081 53.4335 417.609 53.6717C418.107 53.966 418.631 54.2345 419.097 54.6021C420.061 55.2883 420.947 56.1342 421.677 57.1268C422.407 58.1133 423.046 59.2112 423.45 60.4196C423.864 61.6219 424.102 62.901 424.153 64.2078C424.169 65.5154 423.997 66.8058 423.645 68.028C423.303 69.2562 422.722 70.3851 422.043 71.4079C421.365 72.4368 420.523 73.3275 419.596 74.062C419.149 74.453 418.639 74.7482 418.156 75.0684C417.642 75.3334 417.146 75.6243 416.61 75.8133C414.514 76.692 412.285 76.8171 410.301 76.5202C408.305 76.2077 406.565 75.3653 405.183 74.3581C403.796 73.3422 402.771 72.1347 402.053 70.9755C401.343 69.8103 400.876 68.7124 400.641 67.7768C400.488 67.3176 400.425 66.893 400.356 66.5279C400.274 66.1636 400.243 65.8512 400.225 65.5966C400.201 65.3566 400.181 65.1659 400.167 65.02C400.151 64.8914 400.142 64.8249 400.136 64.8249C400.131 64.8249 400.131 64.8923 400.136 65.0226C400.143 65.1693 400.152 65.3609 400.164 65.6035C400.173 65.8598 400.194 66.1757 400.267 66.5434C400.328 66.9128 400.383 67.3426 400.528 67.8087C400.748 68.7573 401.203 69.875 401.91 71.0653C402.624 72.2486 403.653 73.4863 405.056 74.5316C406.454 75.5673 408.224 76.4391 410.261 76.7696C412.285 77.0847 414.566 76.9656 416.715 76.074C417.264 75.8815 417.773 75.5863 418.301 75.3161C418.797 74.9907 419.319 74.6887 419.778 74.2899C420.729 73.5398 421.593 72.6284 422.29 71.5762C422.987 70.5293 423.584 69.3727 423.937 68.1143C424.298 66.8619 424.475 65.5396 424.459 64.2C424.406 62.8622 424.162 61.5511 423.737 60.3186C423.32 59.0809 422.666 57.9562 421.916 56.9464C421.167 55.9313 420.257 55.0656 419.269 54.3656C418.79 53.9911 418.253 53.7157 417.742 53.4171C417.2 53.1745 416.677 52.9053 416.119 52.7413C413.928 51.961 411.644 51.9584 409.638 52.377C407.621 52.8112 405.899 53.7727 404.555 54.8783C403.207 55.9935 402.242 57.2821 401.59 58.5009C400.945 59.7256 400.548 60.8649 400.376 61.8239C400.255 62.2969 400.223 62.7293 400.18 63.1013C400.127 63.4724 400.122 63.7892 400.126 64.0455C400.127 64.2881 400.127 64.4805 400.127 64.6273C400.127 64.7585 400.13 64.8249 400.136 64.8249Z" fill="#263238"/>
<path d="M416.695 79.171C416.701 79.1917 416.871 79.158 417.176 79.0812C417.482 79.0087 417.915 78.8654 418.437 78.6557C419.481 78.2406 420.867 77.4879 422.181 76.3684C423.491 75.2438 424.448 73.9897 425.02 73.0213C425.307 72.5371 425.516 72.1314 425.635 71.8405C425.758 71.5514 425.818 71.3882 425.799 71.3796C425.751 71.3572 425.45 71.9812 424.838 72.9065C424.228 73.8317 423.265 75.0358 421.982 76.1371C420.696 77.2342 419.359 77.9989 418.35 78.4581C417.343 78.9198 416.68 79.1201 416.695 79.171Z" fill="white"/>
<path d="M414.11 79.8917C414.128 79.9737 414.446 79.9745 414.821 79.8925C415.196 79.8105 415.486 79.6776 415.468 79.5956C415.45 79.5136 415.132 79.5128 414.757 79.5948C414.381 79.6759 414.092 79.8088 414.11 79.8917Z" fill="white"/>
<path d="M415.381 100.299C415.385 100.308 415.46 100.276 415.603 100.208C415.773 100.121 415.979 100.018 416.23 99.89C416.371 99.8158 416.524 99.7355 416.688 99.6475C416.849 99.5387 417.021 99.4222 417.205 99.2971C417.391 99.1685 417.595 99.0373 417.804 98.8828C418.001 98.7119 418.211 98.5315 418.431 98.3416C419.294 97.5596 420.245 96.4522 420.96 94.9547C421.68 93.4667 422.182 91.6153 422.139 89.524L421.96 89.7173C427.533 89.7302 434.548 89.7458 442.157 89.7631C451.402 89.7372 459.769 89.7138 465.88 89.6975C468.881 89.6672 471.325 89.6431 473.07 89.6258C473.885 89.6085 474.535 89.5939 475.025 89.5835C475.471 89.5688 475.706 89.5533 475.706 89.5378C475.706 89.5222 475.471 89.5067 475.025 89.492C474.535 89.4817 473.885 89.4679 473.07 89.4497C471.325 89.4325 468.881 89.4083 465.88 89.3781C459.769 89.3608 451.402 89.3375 442.157 89.3125C434.548 89.3298 427.533 89.3453 421.96 89.3582L421.775 89.3591L421.781 89.5516C421.842 91.5385 421.379 93.3795 420.699 94.8313C420.025 96.3012 419.12 97.4008 418.292 98.1923C416.592 99.7485 415.333 100.223 415.381 100.299Z" fill="#263238"/>
<path d="M424.84 22.0247C424.809 22.0247 424.779 22.508 424.753 23.3823C424.735 24.337 424.71 25.5824 424.681 27.0843C424.667 28.6733 424.651 30.529 424.633 32.5746C424.629 33.6112 424.624 34.6944 424.62 35.8173C424.604 36.3749 424.654 36.9713 424.561 37.484C424.452 38.0114 424.187 38.5102 423.799 38.9038C423.406 39.2931 422.907 39.5589 422.38 39.6677C421.868 39.7618 421.272 39.7117 420.714 39.7272C419.592 39.7316 418.508 39.7359 417.473 39.7402C415.428 39.7583 413.575 39.7747 411.986 39.7885C410.485 39.8179 409.241 39.842 408.287 39.8602C407.413 39.8869 406.93 39.9163 406.93 39.9473C406.93 39.9784 407.413 40.0078 408.287 40.0345C409.241 40.0526 410.485 40.0768 411.986 40.1061C413.574 40.12 415.428 40.1364 417.473 40.1545C418.509 40.1588 419.592 40.1631 420.714 40.1674C421.277 40.1519 421.834 40.2149 422.468 40.1061C423.08 39.981 423.661 39.6737 424.116 39.2214C424.567 38.7657 424.875 38.1848 424.999 37.5729C425.107 36.9385 425.045 36.3818 425.061 35.8173C425.056 34.6953 425.052 33.6112 425.048 32.5746C425.03 30.529 425.013 28.6733 424.999 27.0843C424.97 25.5824 424.947 24.3361 424.928 23.3823C424.9 22.5089 424.871 22.0247 424.84 22.0247Z" fill="#263238"/>
<path d="M360.244 184.536C360.346 184.606 370.881 169.172 383.769 150.068C396.662 130.958 407.027 115.415 406.924 115.346C406.822 115.277 396.29 130.707 383.396 149.817C370.508 168.921 360.14 184.466 360.244 184.536Z" fill="#263238"/>
<path d="M503.64 290.829C469.876 290.829 442.504 263.437 442.504 229.648C442.504 195.859 469.876 168.468 503.64 168.468C537.404 168.468 564.776 195.859 564.776 229.648C564.776 263.437 537.404 290.829 503.64 290.829Z" fill="#F5F5F5"/>
<path d="M442.504 229.648C442.504 229.648 442.529 229.312 442.553 228.656C442.594 228.001 442.571 227.023 442.686 225.749C442.843 223.197 443.27 219.431 444.436 214.714C445.062 212.37 445.82 209.773 446.948 207.041C448.053 204.305 449.414 201.387 451.203 198.44C454.739 192.538 459.808 186.363 466.713 181.098C470.151 178.458 474.058 176.09 478.365 174.134C482.669 172.18 487.372 170.612 492.387 169.709C497.393 168.785 502.692 168.422 508.103 168.846C510.813 169.007 513.536 169.448 516.27 169.99C518.998 170.575 521.72 171.358 524.417 172.316C535.167 176.213 545.383 183.489 552.741 193.58C554.604 196.079 556.235 198.778 557.708 201.582C559.183 204.386 560.433 207.339 561.433 210.398C563.491 216.5 564.513 223.032 564.55 229.64C564.514 236.25 563.493 242.784 561.436 248.888C560.951 250.424 560.344 251.909 559.756 253.394C559.101 254.851 558.461 256.309 557.711 257.706C556.239 260.511 554.608 263.211 552.744 265.711C545.384 275.805 535.167 283.083 524.416 286.981C521.718 287.94 518.997 288.723 516.268 289.308C513.533 289.85 510.809 290.291 508.1 290.452C502.688 290.876 497.389 290.512 492.382 289.588C487.367 288.686 482.664 287.116 478.36 285.161C474.053 283.205 470.145 280.836 466.708 278.197C459.802 272.932 454.734 266.756 451.2 260.855C449.411 257.908 448.049 254.989 446.945 252.253C445.818 249.521 445.059 246.924 444.435 244.581C443.269 239.866 442.842 236.099 442.685 233.549C442.569 232.274 442.592 231.296 442.551 230.642C442.529 229.985 442.504 229.648 442.504 229.648C442.504 229.648 442.47 230.995 442.596 233.552C442.723 236.109 443.123 239.886 444.266 244.622C444.88 246.975 445.628 249.585 446.748 252.331C447.844 255.082 449.2 258.015 450.986 260.982C454.515 266.92 459.589 273.139 466.517 278.448C469.966 281.109 473.89 283.5 478.217 285.476C482.542 287.449 487.27 289.037 492.316 289.953C497.352 290.891 502.684 291.265 508.13 290.845C510.857 290.686 513.6 290.246 516.353 289.703C519.101 289.118 521.841 288.333 524.559 287.369C535.388 283.456 545.683 276.134 553.1 265.972C554.979 263.455 556.623 260.736 558.106 257.911C558.863 256.504 559.507 255.035 560.167 253.568C560.76 252.072 561.372 250.576 561.861 249.029C563.934 242.88 564.965 236.298 565 229.639C564.963 222.982 563.931 216.403 561.858 210.256C560.85 207.174 559.59 204.201 558.103 201.377C556.618 198.553 554.974 195.835 553.097 193.319C545.679 183.159 535.387 175.84 524.559 171.926C521.842 170.963 519.102 170.178 516.355 169.592C513.602 169.049 510.859 168.609 508.133 168.45C502.686 168.032 497.354 168.405 492.319 169.341C487.274 170.258 482.546 171.844 478.222 173.817C473.895 175.793 469.97 178.183 466.52 180.844C459.592 186.153 454.517 192.372 450.988 198.31C449.202 201.276 447.846 204.21 446.749 206.961C445.629 209.708 444.881 212.317 444.266 214.671C443.123 219.407 442.723 223.186 442.596 225.743C442.47 228.303 442.504 229.648 442.504 229.648Z" fill="#263238"/>
<path d="M457.677 228.325H554.64V242.563H457.677V228.325Z" fill="#A855F7"/>
<g opacity="0.5">
<path d="M457.677 228.325H554.64V242.563H457.677V228.325Z" fill="black"/>
</g>
<path d="M550.96 242.333C551.034 247.499 546.908 251.748 541.746 251.823C536.583 251.897 532.337 247.769 532.262 242.602C532.187 237.435 536.313 233.186 541.476 233.111C546.639 233.038 550.884 237.166 550.96 242.333Z" fill="#263238"/>
<path d="M550.958 242.308C550.958 242.316 550.96 242.325 550.96 242.333C551.034 247.499 546.908 251.748 541.746 251.823C536.583 251.897 532.337 247.769 532.262 242.602C532.262 242.594 532.263 242.586 532.263 242.578L550.958 242.308Z" fill="#263238"/>
<path d="M548.174 242.373C548.226 246.001 545.33 248.984 541.705 249.036C538.08 249.089 535.099 246.191 535.047 242.563C534.994 238.935 537.89 235.952 541.515 235.9C545.141 235.847 548.122 238.745 548.174 242.373Z" fill="#FAFAFA"/>
<path d="M541.516 235.899C545.141 235.846 548.122 238.745 548.175 242.372L535.048 242.561C534.995 238.934 537.891 235.952 541.516 235.899Z" fill="#E0E0E0"/>
<path d="M545.609 242.41C545.641 244.62 543.876 246.437 541.668 246.469C539.46 246.501 537.644 244.735 537.612 242.525C537.58 240.316 539.344 238.498 541.552 238.466C543.761 238.435 545.577 240.2 545.609 242.41Z" fill="#263238"/>
<path d="M479.463 242.333C479.537 247.499 475.412 251.748 470.249 251.823C465.086 251.897 460.84 247.769 460.765 242.602C460.691 237.435 464.816 233.186 469.979 233.111C475.143 233.038 479.389 237.166 479.463 242.333Z" fill="#263238"/>
<path d="M479.461 242.308C479.461 242.316 479.463 242.325 479.463 242.333C479.537 247.499 475.412 251.748 470.249 251.823C465.086 251.897 460.84 247.769 460.765 242.602C460.765 242.594 460.766 242.586 460.766 242.578L479.461 242.308Z" fill="#263238"/>
<path d="M476.678 242.373C476.731 246.001 473.834 248.984 470.209 249.036C466.584 249.089 463.604 246.191 463.551 242.563C463.498 238.935 466.395 235.952 470.02 235.9C473.645 235.847 476.625 238.745 476.678 242.373Z" fill="#FAFAFA"/>
<path d="M470.02 235.899C473.645 235.846 476.625 238.745 476.677 242.372L463.55 242.561C463.498 238.934 466.394 235.952 470.02 235.899Z" fill="#E0E0E0"/>
<path d="M474.112 242.41C474.144 244.62 472.38 246.437 470.171 246.469C467.962 246.501 466.147 244.735 466.116 242.525C466.084 240.316 467.849 238.498 470.057 238.466C472.265 238.434 474.08 240.2 474.112 242.41Z" fill="#263238"/>
<path d="M529.354 220.314C529.354 220.314 543.122 221.33 548.225 222.476C551.822 223.283 558.757 224.676 558.674 229.042L558.123 232.172C558.123 232.172 560.696 233.347 560.696 236.348C560.696 239.348 561.324 244.002 555.319 244.188C554.33 244.218 552.45 244.188 552.45 244.188C552.45 244.188 553.603 231.391 541.854 231.016C529.902 230.635 530.696 244.072 530.696 244.072H480.813C480.813 244.072 482.861 230.982 469.994 230.963C457.128 230.944 459.086 244.157 459.086 244.157C459.086 244.157 454.352 244.567 452.15 240.586C449.949 236.606 450.521 233.772 450.521 233.772L450.594 231.256C450.619 230.399 451.303 229.708 452.158 229.676C452.158 229.676 451.298 223.34 452.618 222.243C453.937 221.146 461.168 214.531 461.168 214.531L460.824 214.315C460.247 213.952 460.347 213.082 460.991 212.86C463.736 211.915 469.164 210.047 470.44 209.6C470.633 209.532 470.83 209.491 471.033 209.475C471.794 209.417 473.951 209.28 477.909 209.238C482.731 209.186 501.875 209.238 501.875 209.238C501.875 209.238 508.463 209.78 512.134 211.397C515.994 213.097 529.354 220.314 529.354 220.314Z" fill="#A855F7"/>
<g opacity="0.4">
<path d="M557.206 236.002C557.705 235.9 558.47 235.89 558.851 236.229C559.134 236.481 559.209 236.887 559.252 237.264C559.311 237.78 559.341 238.31 559.218 238.815C559.095 239.319 558.8 239.803 558.344 240.051C557.888 240.3 557.261 240.259 556.906 239.88C556.582 239.533 556.545 239.011 556.554 238.537C556.566 237.862 556.511 237.29 556.636 236.627C556.659 236.501 556.725 236.34 556.807 236.242C556.939 236.081 557.04 236.012 557.206 236.002Z" fill="black"/>
</g>
<path d="M558.123 232.172C556.661 232.175 555.244 232.092 553.786 231.994C553.628 231.984 553.457 231.967 553.342 231.859C553.202 231.73 553.191 231.517 553.19 231.327C553.183 230.543 553.222 229.652 553.816 229.141C554.179 228.829 554.678 228.732 555.154 228.687C556.327 228.577 557.557 228.668 558.674 229.042L558.123 232.172Z" fill="#FAFAFA"/>
<path d="M527.245 243.889C527.245 243.889 527.248 243.853 527.251 243.784C527.253 243.713 527.257 243.61 527.262 243.474C527.271 243.199 527.283 242.793 527.299 242.265C527.329 241.204 527.373 239.653 527.429 237.679C527.484 235.705 527.549 233.308 527.624 230.56C527.642 229.873 527.662 229.165 527.682 228.435C527.706 228.071 527.668 227.699 527.634 227.324C527.607 227.137 527.58 226.95 527.554 226.761C527.516 226.575 527.478 226.386 527.439 226.196C527.263 225.444 527.006 224.69 526.661 223.956C526.314 223.223 525.904 222.498 525.381 221.827L525.377 221.823L525.371 221.82C522.704 220.137 519.802 218.308 516.733 216.373C515.965 215.89 515.187 215.4 514.4 214.903C513.627 214.379 512.792 213.931 511.93 213.523C511.067 213.118 510.17 212.762 509.249 212.451C508.79 212.291 508.32 212.158 507.85 212.018C507.375 211.898 506.9 211.763 506.416 211.666C504.555 211.252 502.683 211.048 500.848 210.962C499.012 210.876 497.21 210.881 495.459 210.981L495.407 210.983L495.418 211.034C496.245 214.735 497.025 218.226 497.739 221.425L497.741 221.431L497.745 221.437C498.181 222.154 498.527 222.908 498.786 223.669C499.034 224.432 499.194 225.216 499.139 225.979C499.079 226.747 499.059 227.498 499.039 228.227C499.024 228.956 499.01 229.664 498.997 230.35C498.957 233.095 498.946 235.491 498.939 237.464C498.937 239.436 498.935 240.987 498.934 242.046C498.935 242.574 498.937 242.979 498.938 243.254C498.939 243.39 498.94 243.493 498.94 243.564C498.941 243.633 498.944 243.669 498.944 243.669C498.944 243.669 498.946 243.633 498.947 243.564C498.948 243.493 498.949 243.39 498.951 243.254C498.953 242.979 498.955 242.574 498.959 242.046C498.965 240.986 498.974 239.436 498.985 237.464C499 235.491 499.016 233.095 499.062 230.351C499.077 229.664 499.092 228.957 499.108 228.227C499.128 227.499 499.151 226.75 499.211 225.983C499.269 225.206 499.108 224.413 498.858 223.644C498.598 222.876 498.252 222.119 497.812 221.393L497.817 221.406C497.105 218.207 496.329 214.715 495.505 211.013L495.465 211.067C497.212 210.969 499.013 210.965 500.845 211.051C502.677 211.137 504.543 211.341 506.397 211.753C506.88 211.85 507.353 211.985 507.827 212.104C508.295 212.244 508.763 212.375 509.221 212.536C510.139 212.845 511.033 213.199 511.893 213.604C512.752 214.009 513.583 214.455 514.351 214.976C515.139 215.472 515.918 215.962 516.685 216.445C519.757 218.377 522.661 220.205 525.33 221.884L525.32 221.877C525.837 222.537 526.249 223.26 526.593 223.987C526.936 224.716 527.192 225.465 527.369 226.211C527.762 227.71 527.564 229.189 527.56 230.558C527.492 233.304 527.433 235.701 527.384 237.676C527.338 239.649 527.301 241.202 527.276 242.262C527.265 242.79 527.256 243.196 527.25 243.471C527.247 243.606 527.246 243.71 527.245 243.781C527.244 243.853 527.245 243.889 527.245 243.889Z" fill="#263238"/>
<path d="M501.373 226.715C501.373 226.71 501.324 226.711 501.235 226.694C501.145 226.679 501.012 226.643 500.867 226.548C500.725 226.454 500.57 226.293 500.494 226.061C500.454 225.945 500.44 225.817 500.446 225.676C500.45 225.539 500.484 225.395 500.555 225.26C500.694 224.993 501 224.769 501.36 224.77C501.729 224.771 502.123 224.772 502.538 224.773C503.369 224.774 504.281 224.776 505.238 224.777C505.467 224.777 505.69 224.866 505.853 225.017C506.018 225.167 506.122 225.375 506.146 225.589C506.167 225.809 506.139 226.024 506.033 226.206C505.933 226.388 505.769 226.526 505.587 226.603C505.402 226.685 505.204 226.673 505.005 226.674C504.809 226.675 504.618 226.675 504.434 226.676C504.065 226.678 503.721 226.68 503.406 226.682C502.785 226.688 502.28 226.693 501.919 226.696C501.75 226.7 501.616 226.702 501.515 226.705C501.423 226.709 501.373 226.712 501.373 226.715C501.373 226.719 501.422 226.721 501.514 226.725C501.615 226.726 501.749 226.73 501.919 226.733C502.279 226.737 502.784 226.742 503.405 226.748C503.72 226.75 504.064 226.751 504.433 226.754C504.617 226.755 504.809 226.756 505.005 226.757C505.104 226.756 505.2 226.761 505.306 226.754C505.412 226.746 505.518 226.725 505.618 226.683C505.817 226.6 505.997 226.45 506.109 226.251C506.224 226.054 506.257 225.81 506.234 225.581C506.209 225.345 506.095 225.117 505.914 224.952C505.734 224.786 505.488 224.688 505.237 224.688C504.28 224.689 503.368 224.69 502.537 224.691C502.122 224.693 501.728 224.695 501.358 224.696C500.968 224.7 500.642 224.945 500.497 225.232C500.424 225.377 500.389 225.532 500.388 225.678C500.384 225.819 500.401 225.961 500.445 226.08C500.532 226.323 500.697 226.487 500.848 226.58C501.002 226.674 501.14 226.705 501.232 226.714C501.325 226.723 501.373 226.715 501.373 226.715Z" fill="#263238"/>
<path d="M475.521 226.715C475.521 226.71 475.472 226.711 475.382 226.694C475.293 226.679 475.16 226.643 475.015 226.548C474.873 226.454 474.718 226.293 474.642 226.061C474.602 225.945 474.588 225.817 474.594 225.676C474.598 225.539 474.632 225.395 474.703 225.26C474.842 224.993 475.148 224.769 475.507 224.77C475.877 224.771 476.271 224.772 476.686 224.773C477.517 224.774 478.429 224.776 479.386 224.777C479.615 224.777 479.838 224.866 480.001 225.017C480.166 225.167 480.27 225.375 480.293 225.589C480.315 225.809 480.287 226.024 480.181 226.206C480.08 226.388 479.917 226.526 479.735 226.603C479.55 226.685 479.352 226.673 479.153 226.674C478.957 226.675 478.766 226.675 478.581 226.676C478.213 226.678 477.869 226.68 477.554 226.682C476.933 226.688 476.428 226.693 476.067 226.696C475.898 226.7 475.764 226.702 475.663 226.705C475.57 226.709 475.521 226.712 475.521 226.715C475.521 226.719 475.57 226.721 475.662 226.725C475.763 226.726 475.897 226.73 476.066 226.733C476.427 226.737 476.932 226.742 477.553 226.748C477.868 226.75 478.211 226.751 478.581 226.754C478.765 226.755 478.957 226.756 479.152 226.757C479.252 226.756 479.348 226.761 479.454 226.754C479.559 226.746 479.666 226.725 479.766 226.683C479.965 226.6 480.145 226.45 480.256 226.251C480.372 226.054 480.405 225.81 480.381 225.581C480.356 225.345 480.243 225.117 480.061 224.952C479.882 224.786 479.636 224.688 479.385 224.688C478.428 224.689 477.515 224.69 476.685 224.691C476.27 224.693 475.876 224.695 475.506 224.696C475.116 224.7 474.79 224.945 474.645 225.232C474.572 225.377 474.536 225.532 474.535 225.678C474.532 225.819 474.548 225.961 474.593 226.08C474.679 226.323 474.845 226.487 474.996 226.58C475.15 226.674 475.288 226.705 475.38 226.714C475.472 226.723 475.521 226.715 475.521 226.715Z" fill="#263238"/>
<path d="M452.849 222.493H458.022C458.731 222.493 459.382 222.886 459.712 223.514C459.983 224.029 460.004 224.64 459.77 225.173L457.741 229.785L452.561 229.734C452.561 229.734 451.46 223.889 452.849 222.493Z" fill="#FAFAFA"/>
<path d="M524.694 221.841L498.002 221.349L480.63 221.031L474.901 217.721C474.437 217.452 474.314 216.839 474.637 216.411L478.204 211.723C478.575 211.234 479.152 210.944 479.766 210.94L499.197 210.782C499.197 210.782 506.513 210.357 512.277 213.586C518.345 216.985 524.694 221.841 524.694 221.841Z" fill="#263238"/>
<path d="M512.462 211.266C512.462 211.266 511.124 211.876 511.994 212.442C512.865 213.007 526.388 221.539 526.388 221.539L529.497 220.131C523.99 217.061 518.428 214.079 512.462 211.266Z" fill="#455A64"/>
<path d="M461.312 214.349C461.312 214.349 462.504 215.684 462.035 216.664C461.567 217.644 456.725 221.074 456.725 221.074L453.211 221.734L461.312 214.349Z" fill="#455A64"/>
<path d="M494.726 211.958L495.517 220.5L481.375 220.096L475.676 216.781L479.365 211.958H494.726Z" fill="#455A64"/>
<path d="M521.345 220.937C521.345 220.937 512.814 214.77 509.447 213.545C506.198 212.362 504.505 212.065 501.453 211.979C498.536 211.896 496.759 211.977 496.759 211.977L499.014 220.66L521.345 220.937Z" fill="#455A64"/>
<path d="M522.594 220.965C522.594 220.425 522.303 219.926 521.832 219.661L519.872 218.559C519.313 218.245 518.683 218.08 518.042 218.08C517.643 218.08 517.251 218.144 516.878 218.265C516.041 218.54 515.483 219.337 515.449 220.218C515.403 221.443 516.382 222.461 517.607 222.461H521.099C521.925 222.461 522.594 221.791 522.594 220.965Z" fill="#A855F7"/>
<path d="M522.594 220.965C522.589 220.965 522.588 221.032 522.572 221.155C522.555 221.278 522.511 221.46 522.399 221.668C522.284 221.871 522.092 222.1 521.798 222.26C521.651 222.338 521.481 222.395 521.293 222.419C521.108 222.44 520.904 222.428 520.691 222.43C519.838 222.427 518.825 222.424 517.701 222.42C517.422 222.422 517.14 222.388 516.869 222.284C516.599 222.183 516.344 222.023 516.13 221.814C515.916 221.604 515.74 221.346 515.631 221.056C515.521 220.766 515.478 220.448 515.501 220.131C515.549 219.494 515.89 218.906 516.383 218.565C516.627 218.389 516.909 218.29 517.193 218.223C517.476 218.156 517.762 218.123 518.039 218.123C518.596 218.122 519.123 218.247 519.573 218.452C519.799 218.553 520.004 218.68 520.209 218.791C520.412 218.904 520.607 219.012 520.793 219.115C521.165 219.322 521.501 219.508 521.798 219.672C522.093 219.831 522.285 220.06 522.398 220.264C522.512 220.471 522.554 220.654 522.572 220.776C522.59 220.899 522.589 220.965 522.594 220.965C522.594 220.965 522.603 220.899 522.591 220.774C522.578 220.649 522.541 220.462 522.43 220.247C522.32 220.035 522.125 219.795 521.824 219.627C521.529 219.459 521.195 219.269 520.826 219.059C520.641 218.953 520.447 218.844 520.245 218.729C520.042 218.617 519.837 218.487 519.606 218.383C519.147 218.17 518.61 218.04 518.04 218.038C517.756 218.038 517.464 218.07 517.173 218.138C516.885 218.205 516.588 218.308 516.332 218.491C515.816 218.847 515.46 219.461 515.41 220.124C515.386 220.454 515.432 220.786 515.547 221.089C515.661 221.392 515.844 221.66 516.068 221.878C516.291 222.097 516.558 222.262 516.839 222.366C517.12 222.473 517.419 222.508 517.701 222.505C518.825 222.502 519.838 222.498 520.691 222.495C520.904 222.491 521.105 222.502 521.3 222.477C521.494 222.451 521.67 222.388 521.821 222.306C522.123 222.136 522.316 221.897 522.429 221.686C522.539 221.47 522.578 221.285 522.588 221.159C522.6 221.032 522.594 220.965 522.594 220.965Z" fill="#263238"/>
<path d="M501.705 224.471C501.705 224.496 502.39 224.517 503.236 224.517C504.082 224.517 504.766 224.496 504.766 224.471C504.766 224.446 504.081 224.425 503.236 224.425C502.39 224.425 501.705 224.446 501.705 224.471Z" fill="white"/>
<path d="M476.011 224.324C476.011 224.349 477.071 224.38 478.379 224.392C479.687 224.404 480.747 224.393 480.747 224.368C480.747 224.343 479.687 224.313 478.38 224.301C477.072 224.289 476.011 224.299 476.011 224.324Z" fill="white"/>
<path d="M517.182 218.905C517.189 218.91 517.234 218.837 517.35 218.742C517.466 218.649 517.662 218.542 517.928 218.509C518.193 218.473 518.514 218.519 518.86 218.61C519.206 218.696 519.581 218.819 519.96 218.984C520.72 219.311 521.338 219.746 521.75 220.098C522.165 220.447 522.385 220.705 522.397 220.692C522.402 220.688 522.349 220.622 522.25 220.507C522.148 220.393 521.996 220.231 521.792 220.049C521.387 219.683 520.766 219.232 519.996 218.901C519.612 218.734 519.232 218.611 518.879 218.528C518.529 218.441 518.195 218.399 517.919 218.445C517.642 218.489 517.44 218.61 517.327 218.715C517.27 218.768 517.233 218.816 517.21 218.85C517.189 218.884 517.179 218.904 517.182 218.905Z" fill="white"/>
<path d="M386.638 223.551C386.638 223.675 399.12 223.775 414.514 223.775C429.913 223.775 442.392 223.674 442.392 223.551C442.392 223.428 429.913 223.327 414.514 223.327C399.12 223.326 386.638 223.427 386.638 223.551Z" fill="#263238"/>
</svg>
