<svg width="183" height="50" viewBox="0 0 183 50" fill="none" xmlns="http://www.w3.org/2000/svg">
<rect x="1" y="1" width="181" height="48" rx="9" stroke="#6B21A8" stroke-width="2"/>
<g clip-path="url(#clip0_17_25)">
<path d="M40 25C40 33.2838 33.2838 40 25 40C16.7163 40 10 33.2838 10 25C10 22.7175 10.5087 20.5562 11.4212 18.6187C10.8482 20.0463 10.5497 21.5692 10.5412 23.1075C10.5412 29.9 16.025 30.8825 18.3587 30.8612C21.905 30.8287 26.0513 29.0912 29.5438 25.8725L28.955 29.185C28.8225 29.9412 29.3175 30.6075 30.075 30.6125H30.3875C31.1712 30.6125 31.7288 29.9738 31.87 29.1838L33.1275 22.1063C33.2775 21.3213 32.7612 20.6812 31.9762 20.6812H24.885C24.0975 20.6812 23.3763 21.0987 23.235 21.8912L23.18 22.21C23.0675 22.9637 23.5925 23.5312 24.3438 23.5312H28.0438C27.984 23.5885 27.9248 23.6465 27.8663 23.705C25.3162 26.1175 22.1713 27.44 19.5662 27.44C16.9662 27.44 14.0538 25.7987 14.0538 22.1037C14.0538 14.4437 21.2375 10 25 10C33.2675 10 40 16.7163 40 25Z" fill="#6B21A8"/>
</g>
<path d="M53.78 19.94V24.02H58.58V25.88H53.78V30.14H59.18V32H51.5V18.08H59.18V19.94H53.78ZM61.2283 26.44C61.2283 25.3333 61.4549 24.3533 61.9083 23.5C62.3749 22.6467 63.0016 21.9867 63.7883 21.52C64.5883 21.04 65.4749 20.8 66.4483 20.8C67.1683 20.8 67.8749 20.96 68.5683 21.28C69.2749 21.5867 69.8349 22 70.2483 22.52V17.2H72.5483V32H70.2483V30.34C69.8749 30.8733 69.3549 31.3133 68.6883 31.66C68.0349 32.0067 67.2816 32.18 66.4283 32.18C65.4683 32.18 64.5883 31.94 63.7883 31.46C63.0016 30.9667 62.3749 30.2867 61.9083 29.42C61.4549 28.54 61.2283 27.5467 61.2283 26.44ZM70.2483 26.48C70.2483 25.72 70.0883 25.06 69.7683 24.5C69.4616 23.94 69.0549 23.5133 68.5483 23.22C68.0416 22.9267 67.4949 22.78 66.9083 22.78C66.3216 22.78 65.7749 22.9267 65.2683 23.22C64.7616 23.5 64.3483 23.92 64.0283 24.48C63.7216 25.0267 63.5683 25.68 63.5683 26.44C63.5683 27.2 63.7216 27.8667 64.0283 28.44C64.3483 29.0133 64.7616 29.4533 65.2683 29.76C65.7883 30.0533 66.3349 30.2 66.9083 30.2C67.4949 30.2 68.0416 30.0533 68.5483 29.76C69.0549 29.4667 69.4616 29.04 69.7683 28.48C70.0883 27.9067 70.2483 27.24 70.2483 26.48ZM85.523 20.98V32H83.243V30.7C82.883 31.1533 82.4096 31.5133 81.823 31.78C81.2496 32.0333 80.6363 32.16 79.983 32.16C79.1163 32.16 78.3363 31.98 77.643 31.62C76.963 31.26 76.423 30.7267 76.023 30.02C75.6363 29.3133 75.443 28.46 75.443 27.46V20.98H77.703V27.12C77.703 28.1067 77.9496 28.8667 78.443 29.4C78.9363 29.92 79.6096 30.18 80.463 30.18C81.3163 30.18 81.9896 29.92 82.483 29.4C82.9896 28.8667 83.243 28.1067 83.243 27.12V20.98H85.523ZM87.7713 26.48C87.7713 25.3467 87.9979 24.3533 88.4513 23.5C88.9179 22.6333 89.5579 21.9667 90.3713 21.5C91.1846 21.0333 92.1179 20.8 93.1713 20.8C94.5046 20.8 95.6046 21.12 96.4713 21.76C97.3513 22.3867 97.9446 23.2867 98.2513 24.46H95.7913C95.5913 23.9133 95.2713 23.4867 94.8313 23.18C94.3913 22.8733 93.8379 22.72 93.1713 22.72C92.2379 22.72 91.4913 23.0533 90.9313 23.72C90.3846 24.3733 90.1113 25.2933 90.1113 26.48C90.1113 27.6667 90.3846 28.5933 90.9313 29.26C91.4913 29.9267 92.2379 30.26 93.1713 30.26C94.4913 30.26 95.3646 29.68 95.7913 28.52H98.2513C97.9313 29.64 97.3313 30.5333 96.4513 31.2C95.5713 31.8533 94.4779 32.18 93.1713 32.18C92.1179 32.18 91.1846 31.9467 90.3713 31.48C89.5579 31 88.9179 30.3333 88.4513 29.48C87.9979 28.6133 87.7713 27.6133 87.7713 26.48ZM99.7634 26.44C99.7634 25.3333 99.9901 24.3533 100.443 23.5C100.91 22.6467 101.537 21.9867 102.323 21.52C103.123 21.04 104.003 20.8 104.963 20.8C105.83 20.8 106.583 20.9733 107.223 21.32C107.877 21.6533 108.397 22.0733 108.783 22.58V20.98H111.083V32H108.783V30.36C108.397 30.88 107.87 31.3133 107.203 31.66C106.537 32.0067 105.777 32.18 104.923 32.18C103.977 32.18 103.11 31.94 102.323 31.46C101.537 30.9667 100.91 30.2867 100.443 29.42C99.9901 28.54 99.7634 27.5467 99.7634 26.44ZM108.783 26.48C108.783 25.72 108.623 25.06 108.303 24.5C107.997 23.94 107.59 23.5133 107.083 23.22C106.577 22.9267 106.03 22.78 105.443 22.78C104.857 22.78 104.31 22.9267 103.803 23.22C103.297 23.5 102.883 23.92 102.563 24.48C102.257 25.0267 102.103 25.68 102.103 26.44C102.103 27.2 102.257 27.8667 102.563 28.44C102.883 29.0133 103.297 29.4533 103.803 29.76C104.323 30.0533 104.87 30.2 105.443 30.2C106.03 30.2 106.577 30.0533 107.083 29.76C107.59 29.4667 107.997 29.04 108.303 28.48C108.623 27.9067 108.783 27.24 108.783 26.48ZM115.238 19.52C114.825 19.52 114.478 19.38 114.198 19.1C113.918 18.82 113.778 18.4733 113.778 18.06C113.778 17.6467 113.918 17.3 114.198 17.02C114.478 16.74 114.825 16.6 115.238 16.6C115.638 16.6 115.978 16.74 116.258 17.02C116.538 17.3 116.678 17.6467 116.678 18.06C116.678 18.4733 116.538 18.82 116.258 19.1C115.978 19.38 115.638 19.52 115.238 19.52ZM116.358 20.98V32H114.078V20.98H116.358ZM124.912 20.8C125.778 20.8 126.552 20.98 127.232 21.34C127.925 21.7 128.465 22.2333 128.852 22.94C129.238 23.6467 129.432 24.5 129.432 25.5V32H127.172V25.84C127.172 24.8533 126.925 24.1 126.432 23.58C125.938 23.0467 125.265 22.78 124.412 22.78C123.558 22.78 122.878 23.0467 122.372 23.58C121.878 24.1 121.632 24.8533 121.632 25.84V32H119.352V20.98H121.632V22.24C122.005 21.7867 122.478 21.4333 123.052 21.18C123.638 20.9267 124.258 20.8 124.912 20.8ZM136.6 29.96L139.72 20.98H142.14L137.94 32H135.22L131.04 20.98H133.48L136.6 29.96ZM153.963 26.22C153.963 26.6333 153.937 27.0067 153.883 27.34H145.463C145.53 28.22 145.857 28.9267 146.443 29.46C147.03 29.9933 147.75 30.26 148.603 30.26C149.83 30.26 150.697 29.7467 151.203 28.72H153.663C153.33 29.7333 152.723 30.5667 151.843 31.22C150.977 31.86 149.897 32.18 148.603 32.18C147.55 32.18 146.603 31.9467 145.763 31.48C144.937 31 144.283 30.3333 143.803 29.48C143.337 28.6133 143.103 27.6133 143.103 26.48C143.103 25.3467 143.33 24.3533 143.783 23.5C144.25 22.6333 144.897 21.9667 145.723 21.5C146.563 21.0333 147.523 20.8 148.603 20.8C149.643 20.8 150.57 21.0267 151.383 21.48C152.197 21.9333 152.83 22.5733 153.283 23.4C153.737 24.2133 153.963 25.1533 153.963 26.22ZM151.583 25.5C151.57 24.66 151.27 23.9867 150.683 23.48C150.097 22.9733 149.37 22.72 148.503 22.72C147.717 22.72 147.043 22.9733 146.483 23.48C145.923 23.9733 145.59 24.6467 145.483 25.5H151.583ZM160.207 32.18C159.34 32.18 158.56 32.0267 157.867 31.72C157.187 31.4 156.647 30.9733 156.247 30.44C155.847 29.8933 155.634 29.2867 155.607 28.62H157.967C158.007 29.0867 158.227 29.48 158.627 29.8C159.04 30.1067 159.554 30.26 160.167 30.26C160.807 30.26 161.3 30.14 161.647 29.9C162.007 29.6467 162.187 29.3267 162.187 28.94C162.187 28.5267 161.987 28.22 161.587 28.02C161.2 27.82 160.58 27.6 159.727 27.36C158.9 27.1333 158.227 26.9133 157.707 26.7C157.187 26.4867 156.734 26.16 156.347 25.72C155.974 25.28 155.787 24.7 155.787 23.98C155.787 23.3933 155.96 22.86 156.307 22.38C156.654 21.8867 157.147 21.5 157.787 21.22C158.44 20.94 159.187 20.8 160.027 20.8C161.28 20.8 162.287 21.12 163.047 21.76C163.82 22.3867 164.234 23.2467 164.287 24.34H162.007C161.967 23.8467 161.767 23.4533 161.407 23.16C161.047 22.8667 160.56 22.72 159.947 22.72C159.347 22.72 158.887 22.8333 158.567 23.06C158.247 23.2867 158.087 23.5867 158.087 23.96C158.087 24.2533 158.194 24.5 158.407 24.7C158.62 24.9 158.88 25.06 159.187 25.18C159.494 25.2867 159.947 25.4267 160.547 25.6C161.347 25.8133 162 26.0333 162.507 26.26C163.027 26.4733 163.474 26.7933 163.847 27.22C164.22 27.6467 164.414 28.2133 164.427 28.92C164.427 29.5467 164.254 30.1067 163.907 30.6C163.56 31.0933 163.067 31.48 162.427 31.76C161.8 32.04 161.06 32.18 160.207 32.18ZM169.551 22.84V28.94C169.551 29.3533 169.644 29.6533 169.831 29.84C170.031 30.0133 170.364 30.1 170.831 30.1H172.231V32H170.431C169.404 32 168.617 31.76 168.071 31.28C167.524 30.8 167.251 30.02 167.251 28.94V22.84H165.951V20.98H167.251V18.24H169.551V20.98H172.231V22.84H169.551Z" fill="#6B21A8"/>
<defs>
<clipPath id="clip0_17_25">
<rect width="30" height="30" fill="white" transform="translate(10 10)"/>
</clipPath>
</defs>
</svg>
